<svg xmlns="http://www.w3.org/2000/svg" width="45" height="106.657" viewBox="0 0 45 106.657">
  <defs>
    <style>
      .cls-1 {
        fill: #111;
        fill-rule: evenodd;
      }
    </style>
  </defs>
  <path id="CHARACTER_DATA_のコピー" data-name="CHARACTER DATA のコピー" class="cls-1" d="M1147.85,699.045a2.195,2.195,0,0,1-2-2.485c0-1.855,1.02-2.557,3.8-2.557h2.44c2.76,0,3.8.7,3.8,2.557a2.108,2.108,0,0,1-1.99,2.359l0.14,1.782c2.23-.126,3.42-1.566,3.42-4.2a4.091,4.091,0,0,0-1.37-3.439c-0.84-.72-1.91-0.99-3.87-0.99h-2.68a6.032,6.032,0,0,0-3.66.792,4.089,4.089,0,0,0-1.6,3.637c0,2.7,1.15,4.213,3.37,4.339Zm-3.39,5.722v1.926h5.71v4.934h-5.71v1.926h12.86v-1.926h-5.57v-4.934h5.57v-1.926h-12.86Zm2.68,19.693-2.68.9v2.088l12.86-4.681v-1.855l-12.86-4.681v2.089l2.68,0.9v5.239Zm1.55-.468v-4.3l6.29,2.161Zm1.17,8.063v2.287l-5.4,2.574v2.125l5.58-2.809c0.4,1.765,1.5,2.539,3.62,2.539a3.586,3.586,0,0,0,2.72-.918,4.066,4.066,0,0,0,.94-3.151v-4.574h-12.86v1.927h5.4Zm1.53-.036h4.38v2.5c0,1.62-.67,2.34-2.2,2.34-1.49,0-2.18-.684-2.18-2.232v-2.611Zm-4.25,17.137-2.68.9v2.089l12.86-4.681v-1.855l-12.86-4.681v2.088l2.68,0.9v5.239Zm1.55-.468v-4.3l6.29,2.16Zm-0.84,12.78a2.194,2.194,0,0,1-2-2.485c0-1.854,1.02-2.557,3.8-2.557h2.44c2.76,0,3.8.7,3.8,2.557a2.108,2.108,0,0,1-1.99,2.359l0.14,1.782c2.23-.126,3.42-1.566,3.42-4.2a4.091,4.091,0,0,0-1.37-3.439c-0.84-.72-1.91-0.99-3.87-0.99h-2.68a6.032,6.032,0,0,0-3.66.792,4.089,4.089,0,0,0-1.6,3.637c0,2.7,1.15,4.213,3.37,4.339Zm-3.39,8.026v1.927h11.27v3.6h1.59v-9.129h-1.59v3.6h-11.27Zm0,8.784v7.76h1.58v-5.852h4.13v4.934h1.58v-4.934h3.98v5.8h1.59v-7.706h-12.86Zm5.4,13.446v2.287l-5.4,2.574v2.125l5.58-2.809c0.4,1.765,1.5,2.539,3.62,2.539a3.586,3.586,0,0,0,2.72-.918,4.064,4.064,0,0,0,.94-3.151V789.8h-12.86v1.927h5.4Zm1.53-.036h4.38v2.5c0,1.62-.67,2.34-2.2,2.34-1.49,0-2.18-.684-2.18-2.232v-2.611Zm-38.93-99.3v4.231c-0.04,3.259,1.6,4.862,4.93,4.771h2.99c3.33,0.091,4.99-1.512,4.94-4.771v-4.231h-12.86Zm1.55,1.926h9.76v1.963c0.05,2.269-.96,3.169-3.55,3.187h-2.66c-2.6-.018-3.59-0.918-3.55-3.187v-1.963Zm1.13,17.677-2.68.9v2.088l12.86-4.681v-1.855l-12.86-4.681v2.089l2.68,0.9v5.239Zm1.55-.468v-4.3l6.29,2.161Zm-4.23,8.423v1.927h11.27v3.6h1.59V716.34h-1.59v3.6h-11.27Zm2.68,15.139-2.68.9v2.089l12.86-4.681v-1.855l-12.86-4.681v2.088l2.68,0.9v5.239Zm1.55-.468v-4.3l6.29,2.16Z" transform="translate(-1112.47 -692.062)"/>
</svg>
