<svg xmlns="http://www.w3.org/2000/svg" width="332.156" height="95" viewBox="0 0 332.156 95">
  <defs>
    <style>
      .cls-1 {
        fill: #111;
        fill-rule: evenodd;
      }
    </style>
  </defs>
  <path id="ORIGINAL_STORY_All_points_are_divided_to_VIT_because_a_painful_のコピー" data-name="ORIGINAL STORY “All points are divided to VIT because a painful のコピー" class="cls-1" d="M122.83,68.49a5.863,5.863,0,0,0,.981,3.881,4.781,4.781,0,0,0,4.18,1.72,4.859,4.859,0,0,0,3.961-1.48c0.86-.92,1.181-2.081,1.181-4.121V65.009a5.868,5.868,0,0,0-.981-3.881,4.766,4.766,0,0,0-4.161-1.72,4.875,4.875,0,0,0-3.98,1.48c-0.861.94-1.181,2.081-1.181,4.121V68.49Zm8.162-.2c0,2.861-.9,4.061-3,4.061-2.12,0-3.02-1.2-3.02-4.061V65.209c0-2.861.9-4.061,3.02-4.061,2.1,0,3,1.2,3,4.061v3.081Zm9-.4h2.54l2.861,6h2.36l-3.12-6.2c1.96-.44,2.82-1.66,2.82-4.021a3.977,3.977,0,0,0-1.02-3.021c-0.74-.74-1.74-1.04-3.5-1.04H137.85V73.891h2.141v-6Zm-0.04-1.7V61.328h2.78c1.8,0,2.6.74,2.6,2.441,0,1.66-.76,2.42-2.481,2.42h-2.9Zm11.959,7.7h2.141V59.608H151.91V73.891Zm12.3-6h2.681v1.1c0,2.261-.98,3.361-3,3.361-2.18,0-3-1.14-3-4.221V65.409c0-3.061.821-4.221,2.981-4.221a2.426,2.426,0,0,1,2.721,2.221l1.98-.14c-0.14-2.5-1.8-3.821-4.781-3.821a4.766,4.766,0,0,0-3.921,1.52c-0.82.94-1.12,2.1-1.12,4.3v2.981c0,2.041.24,3.141,0.92,4.061,0.88,1.22,2.2,1.78,4.261,1.78a4.888,4.888,0,0,0,4.041-1.6c0.76-.92,1.04-1.98,1.04-3.961v-2.3h-4.8v1.66Zm9.3,6h2.14V59.608h-2.14V73.891Zm7.18,0h2.08V63.208l6.362,10.682h2.08V59.608h-2.08V70.29L182.77,59.608h-2.08V73.891Zm22.641-2.981,1,2.981h2.321l-5.2-14.283H199.39l-5.2,14.283h2.321l1-2.981h5.821Zm-0.52-1.72H198.03l2.4-6.981Zm6.8,4.7h8.622V72.13H211.75V59.608h-2.141V73.891Zm15.92-2.04c0.92,1.5,2.58,2.24,5.021,2.24,3.281,0,5.021-1.44,5.021-4.1a3.386,3.386,0,0,0-1.36-3.061,7.371,7.371,0,0,0-2.981-1.08c-2.32-.58-3.081-1.22-3.081-2.56s0.9-2.141,2.421-2.141a3.182,3.182,0,0,1,2.8,1.28l1.6-1.04c-0.8-1.3-2.3-1.98-4.341-1.98-2.861,0-4.541,1.46-4.541,3.981,0,2.261,1.14,3.421,4.081,4.161,2.08,0.5,2.08.5,2.56,0.84a1.935,1.935,0,0,1,.781,1.66c0,1.48-1.041,2.28-2.941,2.28a3.7,3.7,0,0,1-3.4-1.52Zm16.541,2.04h2.14V61.368h4v-1.76H238.069v1.76h4V73.891Zm9.4-5.4a5.869,5.869,0,0,0,.98,3.881,4.783,4.783,0,0,0,4.181,1.72,4.86,4.86,0,0,0,3.961-1.48c0.86-.92,1.18-2.081,1.18-4.121V65.009a5.869,5.869,0,0,0-.98-3.881,4.768,4.768,0,0,0-4.161-1.72,4.878,4.878,0,0,0-3.981,1.48c-0.86.94-1.18,2.081-1.18,4.121V68.49Zm8.162-.2c0,2.861-.9,4.061-3,4.061-2.12,0-3.021-1.2-3.021-4.061V65.209c0-2.861.9-4.061,3.021-4.061,2.1,0,3,1.2,3,4.061v3.081Zm9-.4h2.541l2.86,6h2.361l-3.121-6.2c1.961-.44,2.821-1.66,2.821-4.021a3.977,3.977,0,0,0-1.02-3.021c-0.741-.74-1.741-1.04-3.5-1.04h-5.081V73.891h2.14v-6Zm-0.04-1.7V61.328h2.781c1.8,0,2.6.74,2.6,2.441,0,1.66-.76,2.42-2.48,2.42h-2.9Zm14.36,7.7h2.141V68.73l4.461-9.122H287.29l-3.261,6.982-3.28-6.982h-2.261l4.461,9.122v5.161ZM128.572,105.608h-1.7l-1.14,4.941h2.16Zm-3.881,0h-1.7l-1.14,4.941h2.141Zm14.681,11.3,1,2.981h2.321l-5.2-14.283h-2.06l-5.2,14.283h2.32l1-2.981h5.821Zm-0.52-1.72h-4.781l2.4-6.982Zm6.478-9.582V116.09c0,3.04.74,3.8,3.7,3.8h0.52V118.23h-0.44c-1.34,0-1.741-.46-1.741-1.94V105.608h-2.04Zm7.18,0V116.09c0,3.04.74,3.8,3.7,3.8h0.52V118.23h-0.44c-1.341,0-1.741-.46-1.741-1.94V105.608h-2.04Zm12.42,18.784h2.04v-5.1a3.861,3.861,0,0,0,2.541.8c2.66,0,3.821-1.381,3.821-4.521v-1.521c0-3.14-1.161-4.521-3.821-4.521a3.791,3.791,0,0,0-2.8.961l-0.2-.761h-1.58v14.664Zm6.381-8.962c0,2.06-.68,3.02-2.16,3.02-1.461,0-2.181-.9-2.181-2.72v-1.841c0-1.82.72-2.72,2.181-2.72,1.48,0,2.16.96,2.16,3.02v1.241Zm5.8,0.16c0,3.12,1.32,4.5,4.3,4.5,2.96,0,4.28-1.381,4.28-4.5v-1.561c0-3.12-1.32-4.5-4.28-4.5-2.981,0-4.3,1.381-4.3,4.5v1.561Zm6.541-.14c0,2.08-.68,3-2.26,3-1.561,0-2.241-.92-2.241-3v-1.281c0-2.08.68-3,2.241-3,1.58,0,2.26.92,2.26,3v1.281Zm6.139-7.622h2.04v-2.32h-2.04v2.32Zm0,12.063h2.04V109.728h-2.04v10.163Zm6.479,0h2.041v-5.2c0-2.481.58-3.421,2.12-3.421,1.441,0,2,.86,2,3.02v5.6h2.04v-5.822a8.046,8.046,0,0,0-.3-2.58c-0.48-1.3-1.62-1.961-3.4-1.961a3.06,3.06,0,0,0-2.78,1.221l-0.16-1.021h-1.561v10.163Zm12.86-8.522v4.721c0,3.1.681,3.8,3.721,3.8h0.36V118.21h-0.32c-1.32.04-1.72-.44-1.72-1.92v-4.921h2v-1.641h-2v-3.1h-1.941l-0.1,3.1h-1.18v1.641h1.18Zm6.58,6.981c0.7,1.141,2.08,1.741,4.081,1.741,2.8,0,4.161-1,4.161-3.081a2.71,2.71,0,0,0-.92-2.32,5.579,5.579,0,0,0-2.841-.8,4.006,4.006,0,0,1-1.44-.34,1.1,1.1,0,0,1-.56-1c0-.9.62-1.4,1.74-1.4a2.393,2.393,0,0,1,2.16,1.04l1.5-.88a4.1,4.1,0,0,0-3.821-1.781c-2.281,0-3.521,1.1-3.521,3.121a2.532,2.532,0,0,0,.84,2.061,4.648,4.648,0,0,0,2.541.82,4.833,4.833,0,0,1,1.76.36,1.114,1.114,0,0,1,.62,1.08c0,1-.76,1.5-2.3,1.5a2.731,2.731,0,0,1-2.521-1.04Zm22.5-4.5h-2.24c-2.881,0-3.841.8-3.841,3.141,0,2.28.94,3.1,3.5,3.1a3.558,3.558,0,0,0,2.86-.861l0.14,0.661h1.621v-6.282a5.038,5.038,0,0,0-.4-2.48c-0.56-1.06-1.72-1.6-3.42-1.6a4.584,4.584,0,0,0-3.841,1.621l1.4,1.04a2.829,2.829,0,0,1,2.241-1.02c1.4,0,1.98.62,1.98,2.1v0.58Zm0,1.441v1.32a2.051,2.051,0,0,1-.24,1.28,2.137,2.137,0,0,1-1.84.6c-1.541,0-2.061-.38-2.061-1.54,0-1.2.58-1.66,2.121-1.66h2.02Zm6.4,4.6h2.04V114.95c0-2.581.541-3.661,1.841-3.661a2.172,2.172,0,0,1,1.38.52l0.88-1.7a3.887,3.887,0,0,0-2.06-.581,2.57,2.57,0,0,0-2.281,1.061l-0.22-.861h-1.58v10.163Zm10.58-4.6h6.442v-0.8c0-3.48-1.261-4.961-4.241-4.961s-4.241,1.481-4.241,4.961v0.781c0,3.34,1.34,4.821,4.361,4.821,1.94,0,3.08-.5,3.921-1.741l-1.521-.9a2.449,2.449,0,0,1-2.2,1.02c-1.641,0-2.521-.98-2.521-2.82v-0.36Zm0-1.461v-0.18a3.426,3.426,0,0,1,.4-1.64,1.916,1.916,0,0,1,1.861-.9c1.46,0,2.24.88,2.24,2.52v0.2h-4.5Zm22.1,6.062h1.58V105.608h-2.04v4.761c-0.34-.26-0.54-0.4-0.56-0.42a4.2,4.2,0,0,0-2-.421c-2.64,0-3.8,1.381-3.8,4.521v1.521c0,3.16,1.16,4.521,3.86,4.521a4.055,4.055,0,0,0,2.441-.64,3.081,3.081,0,0,0,.26-0.241,0.761,0.761,0,0,1,.12-0.1Zm-4.8-5.7c0-2.06.68-3.02,2.16-3.02,1.461,0,2.181.9,2.181,2.72v1.841c0,1.82-.72,2.72-2.181,2.72-1.48,0-2.16-.96-2.16-3.02v-1.241Zm10.819-6.361h2.041v-2.32h-2.041v2.32Zm0,12.063h2.041V109.728h-2.041v10.163Zm8.881,0h1.9l3.581-10.163h-2.06l-2.481,7.622-2.48-7.622h-2.061Zm8.719-12.063h2.041v-2.32h-2.041v2.32Zm0,12.063h2.041V109.728h-2.041v10.163Zm12.981,0h1.581V105.608h-2.041v4.761c-0.34-.26-0.54-0.4-0.56-0.42a4.2,4.2,0,0,0-2-.421c-2.641,0-3.8,1.381-3.8,4.521v1.521c0,3.16,1.16,4.521,3.861,4.521a4.053,4.053,0,0,0,2.44-.64,3.081,3.081,0,0,0,.26-0.241,0.761,0.761,0,0,1,.12-0.1Zm-4.8-5.7c0-2.06.68-3.02,2.161-3.02,1.46,0,2.18.9,2.18,2.72v1.841c0,1.82-.72,2.72-2.18,2.72-1.481,0-2.161-.96-2.161-3.02v-1.241Zm12.54,1.1h6.442v-0.8c0-3.48-1.261-4.961-4.241-4.961s-4.241,1.481-4.241,4.961v0.781c0,3.34,1.34,4.821,4.361,4.821,1.94,0,3.08-.5,3.921-1.741l-1.521-.9a2.449,2.449,0,0,1-2.2,1.02c-1.641,0-2.521-.98-2.521-2.82v-0.36Zm0-1.461v-0.18a3.426,3.426,0,0,1,.4-1.64,1.915,1.915,0,0,1,1.861-.9c1.46,0,2.24.88,2.24,2.52v0.2h-4.5Zm16.9,6.062h1.58V105.608h-2.04v4.761c-0.34-.26-0.54-0.4-0.56-0.42a4.2,4.2,0,0,0-2-.421c-2.64,0-3.8,1.381-3.8,4.521v1.521c0,3.16,1.16,4.521,3.86,4.521a4.055,4.055,0,0,0,2.441-.64,3.081,3.081,0,0,0,.26-0.241,0.761,0.761,0,0,1,.12-0.1Zm-4.8-5.7c0-2.06.68-3.02,2.16-3.02,1.461,0,2.181.9,2.181,2.72v1.841c0,1.82-.72,2.72-2.181,2.72-1.48,0-2.16-.96-2.16-3.02v-1.241Zm16.32-2.82v4.721c0,3.1.68,3.8,3.72,3.8h0.36V118.21h-0.32c-1.32.04-1.72-.44-1.72-1.92v-4.921h2v-1.641h-2v-3.1h-1.94l-0.1,3.1h-1.181v1.641h1.181Zm7.379,4.221c0,3.12,1.321,4.5,4.3,4.5,2.961,0,4.281-1.381,4.281-4.5v-1.561c0-3.12-1.32-4.5-4.281-4.5-2.98,0-4.3,1.381-4.3,4.5v1.561Zm6.542-.14c0,2.08-.68,3-2.261,3-1.56,0-2.24-.92-2.24-3v-1.281c0-2.08.68-3,2.24-3,1.581,0,2.261.92,2.261,3v1.281Zm14.639,4.441h1.84l4.781-14.283h-2.16l-3.541,11.322-3.561-11.322h-2.14Zm9.879,0h2.141V105.608h-2.141v14.283Zm9.741,0h2.14V107.368h4v-1.76H394.227v1.76h4v12.523Zm-275.338,30h1.581l0.14-.781c0.32,0.261.52,0.421,0.58,0.461a4.267,4.267,0,0,0,2.24.52c2.7,0,3.861-1.361,3.861-4.521v-1.521c0-3.14-1.16-4.521-3.821-4.521a3.584,3.584,0,0,0-2.54.841v-4.761H122.89v14.283Zm6.382-4.461c0,2.06-.68,3.02-2.161,3.02-1.46,0-2.18-.9-2.18-2.72v-1.841c0-1.82.72-2.72,2.18-2.72,1.481,0,2.161.96,2.161,3.02v1.241Zm7.839-.14h6.441v-0.8c0-3.48-1.26-4.961-4.241-4.961s-4.241,1.481-4.241,4.961v0.781c0,3.34,1.34,4.821,4.361,4.821,1.941,0,3.081-.5,3.921-1.741l-1.52-.9a2.452,2.452,0,0,1-2.2,1.02c-1.64,0-2.52-.98-2.52-2.82v-0.36Zm0-1.461v-0.18a3.426,3.426,0,0,1,.4-1.64,1.914,1.914,0,0,1,1.86-.9c1.46,0,2.241.88,2.241,2.52v0.2h-4.5Zm16.4,3.621a2.289,2.289,0,0,1-2.04,1c-1.48,0-2.241-1.02-2.241-2.98v-1.1c0-2.2.7-3.2,2.2-3.2a2.03,2.03,0,0,1,1.88,1.02l1.521-.86a3.692,3.692,0,0,0-3.541-1.8c-2.8,0-4.1,1.6-4.1,5v0.741c0,3.24,1.36,4.821,4.161,4.821a4.039,4.039,0,0,0,3.681-1.761Zm10.1-3.6H161.37c-2.88,0-3.84.8-3.84,3.141,0,2.28.94,3.1,3.5,3.1a3.559,3.559,0,0,0,2.861-.861l0.14,0.661h1.62v-6.282a5.052,5.052,0,0,0-.4-2.48c-0.56-1.06-1.72-1.6-3.42-1.6a4.584,4.584,0,0,0-3.841,1.621l1.4,1.04a2.829,2.829,0,0,1,2.241-1.02c1.4,0,1.98.62,1.98,2.1v0.58Zm0,1.441v1.32a2.051,2.051,0,0,1-.24,1.28,2.137,2.137,0,0,1-1.84.6c-1.541,0-2.061-.38-2.061-1.54,0-1.2.58-1.66,2.121-1.66h2.02Zm6.319-5.562v5.822a7.963,7.963,0,0,0,.3,2.58c0.46,1.3,1.58,1.961,3.3,1.961a2.794,2.794,0,0,0,2.68-1.241l0.22,1.041h1.481V139.728h-2.041v5.2c0,2.48-.56,3.42-2,3.42-1.361,0-1.9-.86-1.9-3v-5.622h-2.04Zm11.3,8.622c0.7,1.141,2.081,1.741,4.081,1.741,2.8,0,4.161-1,4.161-3.081a2.71,2.71,0,0,0-.92-2.32,5.571,5.571,0,0,0-2.841-.8,4.006,4.006,0,0,1-1.44-.34,1.1,1.1,0,0,1-.56-1c0-.9.62-1.4,1.74-1.4a2.393,2.393,0,0,1,2.161,1.04l1.5-.88a4.1,4.1,0,0,0-3.821-1.781c-2.28,0-3.52,1.1-3.52,3.121a2.532,2.532,0,0,0,.84,2.061,4.644,4.644,0,0,0,2.54.82,4.835,4.835,0,0,1,1.761.36,1.114,1.114,0,0,1,.62,1.08c0,1-.76,1.5-2.3,1.5a2.729,2.729,0,0,1-2.52-1.04Zm13.661-3.06h6.441v-0.8c0-3.48-1.26-4.961-4.241-4.961s-4.241,1.481-4.241,4.961v0.781c0,3.34,1.341,4.821,4.361,4.821,1.941,0,3.081-.5,3.921-1.741l-1.52-.9a2.45,2.45,0,0,1-2.2,1.02c-1.64,0-2.52-.98-2.52-2.82v-0.36Zm0-1.461v-0.18a3.426,3.426,0,0,1,.4-1.64,1.914,1.914,0,0,1,1.86-.9c1.461,0,2.241.88,2.241,2.52v0.2h-4.5Zm20.96,0.02h-2.24c-2.881,0-3.841.8-3.841,3.141,0,2.28.94,3.1,3.5,3.1a3.558,3.558,0,0,0,2.86-.861l0.14,0.661h1.621v-6.282a5.052,5.052,0,0,0-.4-2.48c-0.56-1.06-1.721-1.6-3.421-1.6a4.585,4.585,0,0,0-3.841,1.621l1.4,1.04a2.831,2.831,0,0,1,2.241-1.02c1.4,0,1.98.62,1.98,2.1v0.58Zm0,1.441v1.32a2.051,2.051,0,0,1-.24,1.28,2.137,2.137,0,0,1-1.84.6c-1.54,0-2.061-.38-2.061-1.54,0-1.2.581-1.66,2.121-1.66h2.02Zm11.619,9.1h2.041v-5.1a3.859,3.859,0,0,0,2.54.8c2.661,0,3.821-1.381,3.821-4.521v-1.521c0-3.14-1.16-4.521-3.821-4.521a3.794,3.794,0,0,0-2.8.961l-0.2-.761h-1.58v14.664Zm6.381-8.962c0,2.06-.68,3.02-2.16,3.02-1.46,0-2.18-.9-2.18-2.72v-1.841c0-1.82.72-2.72,2.18-2.72,1.48,0,2.16.96,2.16,3.02v1.241Zm11.48-1.581h-2.24c-2.881,0-3.841.8-3.841,3.141,0,2.28.94,3.1,3.5,3.1a3.558,3.558,0,0,0,2.86-.861l0.14,0.661h1.621v-6.282a5.038,5.038,0,0,0-.4-2.48c-0.56-1.06-1.72-1.6-3.42-1.6a4.584,4.584,0,0,0-3.841,1.621l1.4,1.04a2.829,2.829,0,0,1,2.241-1.02c1.4,0,1.98.62,1.98,2.1v0.58Zm0,1.441v1.32a2.051,2.051,0,0,1-.24,1.28,2.137,2.137,0,0,1-1.84.6c-1.541,0-2.061-.38-2.061-1.54,0-1.2.58-1.66,2.121-1.66h2.02Zm6.4-7.462h2.04v-2.32h-2.04v2.32Zm0,12.063h2.04V139.728h-2.04v10.163Zm6.48,0h2.04v-5.2c0-2.481.58-3.421,2.121-3.421,1.44,0,2,.86,2,3.02v5.6h2.041v-5.822a8.012,8.012,0,0,0-.3-2.58c-0.48-1.3-1.62-1.961-3.4-1.961a3.061,3.061,0,0,0-2.781,1.221l-0.16-1.021h-1.56v10.163Zm13-8.522v8.522h2.04v-8.522h2.2v-1.641h-2.2v-1.18c0-1.16.26-1.4,1.481-1.38h0.6v-1.56h-1.021c-2.34-.06-3.1.62-3.1,2.74v1.38h-1.22v1.641h1.22Zm7.459-1.641v5.822a7.929,7.929,0,0,0,.3,2.58c0.46,1.3,1.58,1.961,3.3,1.961a2.8,2.8,0,0,0,2.681-1.241l0.22,1.041h1.48V139.728h-2.04v5.2c0,2.48-.56,3.42-2,3.42-1.36,0-1.9-.86-1.9-3v-5.622h-2.041Zm12.4-4.12V146.09c0,3.04.74,3.8,3.7,3.8h0.52V148.23h-0.44c-1.34,0-1.74-.46-1.74-1.94V135.608h-2.041Zm12.08,9.982c0,3.12,1.32,4.5,4.3,4.5,2.961,0,4.281-1.381,4.281-4.5v-1.561c0-3.12-1.32-4.5-4.281-4.5-2.981,0-4.3,1.381-4.3,4.5v1.561Zm6.541-.14c0,2.08-.68,3-2.26,3-1.56,0-2.24-.92-2.24-3v-1.281c0-2.08.68-3,2.24-3,1.58,0,2.26.92,2.26,3v1.281Zm6.139,4.441h2.041v-5.2c0-2.481.58-3.421,2.12-3.421,1.44,0,2,.86,2,3.02v5.6h2.041v-5.822a8.046,8.046,0,0,0-.3-2.58c-0.48-1.3-1.621-1.961-3.4-1.961a3.063,3.063,0,0,0-2.781,1.221l-0.16-1.021h-1.56v10.163Zm14.28-4.6h6.442v-0.8c0-3.48-1.261-4.961-4.241-4.961s-4.241,1.481-4.241,4.961v0.781c0,3.34,1.34,4.821,4.361,4.821,1.94,0,3.081-.5,3.921-1.741l-1.521-.9a2.449,2.449,0,0,1-2.2,1.02c-1.64,0-2.521-.98-2.521-2.82v-0.36Zm0-1.461v-0.18a3.426,3.426,0,0,1,.4-1.64,1.917,1.917,0,0,1,1.861-.9c1.46,0,2.24.88,2.24,2.52v0.2h-4.5Zm15.6-6h2.04v-2.32h-2.04v2.32Zm0,12.063h2.04V139.728h-2.04v10.163Zm5.359-1.541c0.7,1.141,2.081,1.741,4.081,1.741,2.8,0,4.161-1,4.161-3.081a2.71,2.71,0,0,0-.92-2.32,5.571,5.571,0,0,0-2.841-.8,4.006,4.006,0,0,1-1.44-.34,1.1,1.1,0,0,1-.56-1c0-.9.62-1.4,1.74-1.4a2.394,2.394,0,0,1,2.161,1.04l1.5-.88a4.1,4.1,0,0,0-3.821-1.781c-2.28,0-3.521,1.1-3.521,3.121a2.532,2.532,0,0,0,.841,2.061,4.644,4.644,0,0,0,2.54.82,4.848,4.848,0,0,1,1.761.36,1.114,1.114,0,0,1,.62,1.08c0,1-.76,1.5-2.3,1.5a2.729,2.729,0,0,1-2.52-1.04Zm11.94,1.541h2.041v-5.2c0-2.481.58-3.421,2.12-3.421,1.441,0,2,.86,2,3.02v5.6h2.04v-5.822a8.046,8.046,0,0,0-.3-2.58c-0.48-1.3-1.62-1.961-3.4-1.961a3.06,3.06,0,0,0-2.78,1.221l-0.16-1.021h-1.561v10.163Zm11.54-9.342h1.72l1.121-4.941h-2.141Zm16.54,0.82v4.721c0,3.1.68,3.8,3.721,3.8h0.36V148.21h-0.32c-1.32.04-1.721-.44-1.721-1.92v-4.921h2v-1.641h-2v-3.1h-1.94l-0.1,3.1h-1.18v1.641h1.18Zm12.88-5.761V146.09c0,3.04.74,3.8,3.7,3.8h0.52V148.23h-0.44c-1.341,0-1.741-.46-1.741-1.94V135.608h-2.04Zm7.2,2.22h2.04v-2.32h-2.04v2.32Zm0,12.063h2.04V139.728h-2.04v10.163Zm6.48,0h2.04V147.65l1.68-2.14,2.761,4.381h2.22l-3.74-5.862,3.46-4.3h-2.32l-4.061,5.262v-9.382h-2.04v14.283Zm13.32-4.6h6.441v-0.8c0-3.48-1.26-4.961-4.241-4.961s-4.241,1.481-4.241,4.961v0.781c0,3.34,1.341,4.821,4.361,4.821,1.941,0,3.081-.5,3.921-1.741l-1.52-.9a2.45,2.45,0,0,1-2.2,1.02c-1.64,0-2.52-.98-2.52-2.82v-0.36Zm0-1.461v-0.18a3.426,3.426,0,0,1,.4-1.64,1.914,1.914,0,0,1,1.86-.9c1.461,0,2.241.88,2.241,2.52v0.2h-4.5Zm10.579,6.062h2.141V147.63h-2.141v2.261Zm5.74-9.342h1.72l1.12-4.941h-2.14Zm3.881,0h1.72l1.12-4.941h-2.14Z" transform="translate(-121.844 -59.406)"/>
</svg>
