<svg xmlns="http://www.w3.org/2000/svg" width="20.938" height="110.03" viewBox="0 0 20.938 110.03">
  <defs>
    <style>
      .cls-1 {
        fill: #fff;
        fill-rule: evenodd;
      }
    </style>
  </defs>
  <path id="navigation_のコピー_2" data-name="navigation のコピー 2" class="cls-1" d="M50.069,2570.5v1.74H55.68c2.992,0,4.159.75,4.159,2.66,0,1.78-1.012,2.51-3.587,2.51H50.069v1.74h6.337a8.727,8.727,0,0,0,2.794-.33c1.43-.51,2.134-1.76,2.134-3.72a3.325,3.325,0,0,0-1.452-3.13l1.232-.13v-1.34H50.069Zm6.491,19.76v-2.67c0-3.14-.858-4.2-3.41-4.2-2.4,0-3.279,1.04-3.279,3.87,0,1.68.264,2.51,0.99,3.22l-0.792.13v1.38h7a5.115,5.115,0,0,0,2.662-.46c1.056-.61,1.606-1.82,1.606-3.54a4.955,4.955,0,0,0-1.65-4l-0.924,1.21a3.4,3.4,0,0,1,1.122,2.64,2.435,2.435,0,0,1-.792,2.02,2.782,2.782,0,0,1-1.76.4H56.56Zm-1.32,0H53.524a2.154,2.154,0,0,1-1.474-.31,2.693,2.693,0,0,1-.726-2.29c0-1.96.462-2.6,1.87-2.6,1.474,0,2.046.75,2.046,2.71v2.49Zm-5.171,9.5v1.58l11.046,4.01v-1.78l-8.757-3.02,8.757-3.01v-1.78Zm13.444,9.42v1.73h2.332v-1.73H63.513Zm-13.444,0v1.73H61.115v-1.73H50.069Zm-0.176,13.72c-2.464-.06-3.565-0.99-3.565-3.03a2.84,2.84,0,0,1,1.122-2.49l-0.792-1.3a4.215,4.215,0,0,0-1.738,3.85c0,3.15,1.694,4.71,5.149,4.71H61.115v-1.36l-0.99-.13a3.939,3.939,0,0,0,1.21-3.24c0-2.88-1.54-4.18-4.907-4.18H54.756c-3.344,0-4.885,1.3-4.885,4.14a3.9,3.9,0,0,0,1.056,3.06Zm6.425-5.43c2.42,0,3.565.86,3.565,2.68s-1.144,2.75-3.389,2.75h-1.8q-3.366,0-3.367-2.75c0-1.82,1.144-2.68,3.542-2.68h1.452Zm0.242,18.39v-2.66c0-3.15-.858-4.2-3.41-4.2-2.4,0-3.279,1.03-3.279,3.87,0,1.67.264,2.51,0.99,3.21l-0.792.13v1.39h7a5.115,5.115,0,0,0,2.662-.46,3.8,3.8,0,0,0,1.606-3.54,4.99,4.99,0,0,0-1.65-4.01l-0.924,1.21a3.419,3.419,0,0,1,1.122,2.64,2.456,2.456,0,0,1-.792,2.03,2.856,2.856,0,0,1-1.76.39H56.56Zm-1.32,0H53.524a2.1,2.1,0,0,1-1.474-.31,2.657,2.657,0,0,1-.726-2.28c0-1.96.462-2.6,1.87-2.6,1.474,0,2.046.75,2.046,2.71v2.48Zm4.423,7.24H53.744c-2.971,0-3.675.7-3.675,3.59v0.39h1.474v-0.37c-0.022-1.43.462-1.87,2.024-1.87h6.095v2.18h1.452v-2.18h3.542v-1.65l-3.542-.09v-1.34H59.662v1.34Zm3.851,8.29v1.74h2.332v-1.74H63.513Zm-13.444,0v1.74H61.115v-1.74H50.069Zm4.665,6.56c-3.322,0-4.863,1.43-4.863,4.53,0,3.17,1.518,4.6,4.863,4.6H56.45c3.366,0,4.885-1.43,4.885-4.6,0-3.1-1.562-4.53-4.885-4.53H54.734Zm0.11,7.39c-2.4,0-3.52-.9-3.52-2.84,0-1.91,1.122-2.81,3.52-2.81h1.5c2.42,0,3.543.9,3.543,2.81,0,1.94-1.122,2.84-3.543,2.84h-1.5Zm-4.775,6.56v1.73H55.68c2.992,0,4.159.75,4.159,2.67,0,1.78-1.012,2.51-3.587,2.51H50.069v1.73h6.337a8.727,8.727,0,0,0,2.794-.33c1.43-.5,2.134-1.76,2.134-3.72a3.318,3.318,0,0,0-1.452-3.12l1.232-.13v-1.34H50.069Z" transform="translate(-44.906 -2570.5)"/>
</svg>
