<svg xmlns="http://www.w3.org/2000/svg" width="19.063" height="101.218" viewBox="0 0 19.063 101.218">
  <defs>
    <style>
      .cls-1 {
        fill: #111;
        fill-rule: evenodd;
      }
    </style>
  </defs>
  <path id="navigation_のコピー" data-name="navigation のコピー" class="cls-1" d="M44.689,644.336v2.04h5.2c2.481,0,3.421.581,3.421,2.121,0,1.44-.86,2-3.021,2h-5.6v2.041H50.51a8.05,8.05,0,0,0,2.581-.3c1.3-.48,1.96-1.621,1.96-3.4a3.064,3.064,0,0,0-1.22-2.781l1.02-.16v-1.56H44.689Zm6.041,17.921v-2.24c0-2.881-.8-3.841-3.141-3.841-2.28,0-3.1.94-3.1,3.5a3.561,3.561,0,0,0,.86,2.86l-0.66.14v1.62H50.97a5.054,5.054,0,0,0,2.48-.4c1.06-.56,1.6-1.72,1.6-3.42a4.583,4.583,0,0,0-1.62-3.841l-1.04,1.4a2.829,2.829,0,0,1,1.02,2.241c0,1.4-.62,1.98-2.1,1.98H50.73Zm-1.44,0H47.97a2.051,2.051,0,0,1-1.28-.24,2.136,2.136,0,0,1-.6-1.84c0-1.541.38-2.061,1.54-2.061,1.2,0,1.66.58,1.66,2.121v2.02Zm-4.6,8.8v1.9l10.162,3.581v-2.061L47.23,672l7.622-2.481v-2.06Zm12.063,8.72v2.04h2.321v-2.04H56.752Zm-12.062,0v2.04H54.851v-2.04H44.689ZM44.609,692.3c-2.1-.06-3.021-0.8-3.021-2.481a2.249,2.249,0,0,1,1.06-2.1l-0.88-1.521a3.9,3.9,0,0,0-1.78,3.7c0,2.981,1.58,4.441,4.841,4.441H54.851v-1.58l-0.8-.18a3.577,3.577,0,0,0,1-2.861c0-2.62-1.38-3.781-4.521-3.781H49.01c-3.121,0-4.521,1.161-4.521,3.761a3.572,3.572,0,0,0,.84,2.621Zm5.781-4.341c2.06,0,3.021.68,3.021,2.16,0,1.461-.9,2.181-2.721,2.181H48.85c-1.82,0-2.721-.72-2.721-2.181,0-1.48.96-2.16,3.021-2.16h1.24Zm0.34,16.181V701.9c0-2.881-.8-3.841-3.141-3.841-2.28,0-3.1.94-3.1,3.5a3.565,3.565,0,0,0,.86,2.861l-0.66.14v1.62H50.97a5.054,5.054,0,0,0,2.48-.4c1.06-.56,1.6-1.72,1.6-3.421a4.585,4.585,0,0,0-1.62-3.841l-1.04,1.4a2.828,2.828,0,0,1,1.02,2.24c0,1.4-.62,1.981-2.1,1.981H50.73Zm-1.44,0H47.97a2.043,2.043,0,0,1-1.28-.241,2.136,2.136,0,0,1-.6-1.84c0-1.54.38-2.06,1.54-2.06,1.2,0,1.66.58,1.66,2.12v2.021Zm3.921,6.7H48.49c-3.1,0-3.8.681-3.8,3.721v0.36h1.68V714.6c-0.04-1.32.44-1.72,1.92-1.72h4.921v2h1.64v-2h3.1v-1.941l-3.1-.1v-1.18h-1.64v1.18Zm3.541,7.7v2.041h2.321v-2.041H56.752Zm-12.062,0v2.041H54.851v-2.041H44.689Zm4.3,6.16c-3.121,0-4.5,1.32-4.5,4.3,0,2.961,1.38,4.281,4.5,4.281h1.56c3.121,0,4.5-1.32,4.5-4.281,0-2.981-1.38-4.3-4.5-4.3H48.99Zm0.14,6.541c-2.08,0-3-.68-3-2.26,0-1.56.92-2.24,3-2.24h1.28c2.08,0,3,.68,3,2.24,0,1.58-.92,2.26-3,2.26H49.13Zm-4.441,6.139v2.041h5.2c2.481,0,3.421.58,3.421,2.12,0,1.44-.86,2-3.021,2h-5.6v2.041H50.51a8.05,8.05,0,0,0,2.581-.3c1.3-.48,1.96-1.621,1.96-3.4a3.064,3.064,0,0,0-1.22-2.781l1.02-.16v-1.56H44.689Z" transform="translate(-40 -644.344)"/>
</svg>
