<svg xmlns="http://www.w3.org/2000/svg" width="14.469" height="53.28" viewBox="0 0 14.469 53.28">
  <defs>
    <style>
      .cls-1 {
        fill: #111;
        fill-rule: evenodd;
      }
    </style>
  </defs>
  <path id="share_のコピー" data-name="share のコピー" class="cls-1" d="M46.229,1618.22c-1.14.7-1.74,2.08-1.74,4.08,0,2.8,1,4.16,3.081,4.16a2.711,2.711,0,0,0,2.32-.92,5.581,5.581,0,0,0,.8-2.84,4.007,4.007,0,0,1,.34-1.44,1.1,1.1,0,0,1,1-.56c0.9,0,1.4.62,1.4,1.74a2.393,2.393,0,0,1-1.04,2.16l0.88,1.5a4.1,4.1,0,0,0,1.78-3.82c0-2.28-1.1-3.52-3.121-3.52a2.529,2.529,0,0,0-2.06.84,4.643,4.643,0,0,0-.82,2.54,4.829,4.829,0,0,1-.36,1.76,1.114,1.114,0,0,1-1.08.62c-1,0-1.5-.76-1.5-2.3a2.729,2.729,0,0,1,1.04-2.52Zm-1.54,11.94v2.04H50.01c2.361,0,3.321.62,3.321,2.12,0,1.42-.86,2-3,2H44.689v2.04H50.51a8.134,8.134,0,0,0,2.581-.3c1.3-.48,1.96-1.62,1.96-3.34a3.243,3.243,0,0,0-.86-2.52h4.781v-2.04H44.689Zm6.041,17.92v-2.24c0-2.88-.8-3.84-3.141-3.84-2.28,0-3.1.94-3.1,3.5a3.561,3.561,0,0,0,.86,2.86l-0.66.14v1.62H50.97a5.054,5.054,0,0,0,2.48-.4c1.06-.56,1.6-1.72,1.6-3.42a4.582,4.582,0,0,0-1.62-3.84l-1.04,1.4a2.828,2.828,0,0,1,1.02,2.24c0,1.4-.62,1.98-2.1,1.98H50.73Zm-1.44,0H47.97a2.051,2.051,0,0,1-1.28-.24,2.136,2.136,0,0,1-.6-1.84c0-1.54.38-2.06,1.54-2.06,1.2,0,1.66.58,1.66,2.12v2.02Zm-4.6,6.4v2.04H49.63c2.581,0,3.661.54,3.661,1.84a2.171,2.171,0,0,1-.52,1.38l1.7,0.88a3.894,3.894,0,0,0,.58-2.06,2.57,2.57,0,0,0-1.06-2.28l0.86-.22v-1.58H44.689Zm4.6,10.58v6.44h0.8c3.481,0,4.961-1.26,4.961-4.24s-1.48-4.24-4.961-4.24H49.31c-3.341,0-4.821,1.34-4.821,4.36,0,1.94.5,3.08,1.74,3.92l0.9-1.52a2.449,2.449,0,0,1-1.02-2.2c0-1.64.98-2.52,2.821-2.52h0.36Zm1.46,0h0.18a3.427,3.427,0,0,1,1.64.4,1.914,1.914,0,0,1,.9,1.86c0,1.46-.88,2.24-2.52,2.24h-0.2v-4.5Z" transform="translate(-44.5 -1618.22)"/>
</svg>
