<svg xmlns="http://www.w3.org/2000/svg" width="110.03" height="20.91" viewBox="0 0 110.03 20.91">
  <defs>
    <style>
      .cls-1 {
        fill: #fff;
        fill-rule: evenodd;
      }
    </style>
  </defs>
  <path id="navigation_のコピー_2" data-name="navigation のコピー 2" class="cls-1" d="M1623.19,4066.89h1.73v-5.61c0-2.99.75-4.16,2.67-4.16,1.78,0,2.51,1.01,2.51,3.59v6.18h1.73v-6.34a8.738,8.738,0,0,0-.33-2.79c-0.5-1.43-1.76-2.14-3.72-2.14a3.326,3.326,0,0,0-3.12,1.46l-0.13-1.23h-1.34v11.04Zm19.75-6.49h-2.66c-3.15,0-4.2.86-4.2,3.41,0,2.4,1.03,3.28,3.87,3.28,1.67,0,2.51-.27,3.21-0.99l0.13,0.79h1.39v-7a5.119,5.119,0,0,0-.46-2.66,3.811,3.811,0,0,0-3.54-1.61,5,5,0,0,0-4.01,1.66l1.21,0.92a3.4,3.4,0,0,1,2.64-1.12,2.444,2.444,0,0,1,2.03.79,2.864,2.864,0,0,1,.39,1.76v0.77Zm0,1.32v1.72a2.1,2.1,0,0,1-.31,1.47,2.645,2.645,0,0,1-2.28.73c-1.96,0-2.6-.47-2.6-1.87,0-1.48.75-2.05,2.71-2.05h2.48Zm9.51,5.17h1.58l4.01-11.04h-1.79l-3.01,8.75-3.02-8.75h-1.78Zm9.41-13.44h1.74v-2.34h-1.74v2.34Zm0,13.44h1.74v-11.04h-1.74v11.04Zm13.73,0.18c-0.07,2.46-.99,3.56-3.04,3.56a2.837,2.837,0,0,1-2.48-1.12l-1.3.79a4.205,4.205,0,0,0,3.85,1.74c3.15,0,4.71-1.69,4.71-5.15v-11.04h-1.37l-0.13.99a3.929,3.929,0,0,0-3.23-1.22c-2.88,0-4.18,1.55-4.18,4.91v1.67c0,3.35,1.3,4.89,4.13,4.89a3.886,3.886,0,0,0,3.06-1.06Zm-5.43-6.43c0-2.42.85-3.56,2.68-3.56s2.75,1.14,2.75,3.39v1.8c0,2.24-.92,3.37-2.75,3.37s-2.68-1.15-2.68-3.55v-1.45Zm18.39-.24h-2.66c-3.15,0-4.21.86-4.21,3.41,0,2.4,1.04,3.28,3.88,3.28,1.67,0,2.5-.27,3.21-0.99l0.13,0.79h1.39v-7a5,5,0,0,0-.47-2.66c-0.61-1.05-1.82-1.61-3.54-1.61a4.962,4.962,0,0,0-4,1.66l1.21,0.92a3.4,3.4,0,0,1,2.64-1.12,2.422,2.422,0,0,1,2.02.79,2.789,2.789,0,0,1,.4,1.76v0.77Zm0,1.32v1.72a2.154,2.154,0,0,1-.31,1.47,2.681,2.681,0,0,1-2.29.73c-1.96,0-2.59-.47-2.59-1.87,0-1.48.74-2.05,2.7-2.05h2.49Zm7.24-4.42v5.92c0,2.97.7,3.67,3.58,3.67h0.4v-1.47h-0.38c-1.43.02-1.87-.47-1.87-2.03v-6.09h2.18v-1.45h-2.18v-3.55h-1.65l-0.08,3.55h-1.35v1.45h1.35Zm8.29-3.85h1.74v-2.34h-1.74v2.34Zm0,13.44h1.74v-11.04h-1.74v11.04Zm6.55-4.66c0,3.32,1.43,4.86,4.54,4.86,3.17,0,4.6-1.52,4.6-4.86v-1.72c0-3.37-1.43-4.89-4.6-4.89-3.11,0-4.54,1.57-4.54,4.89v1.72Zm7.4-.11c0,2.39-.9,3.52-2.84,3.52-1.91,0-2.82-1.13-2.82-3.52v-1.5c0-2.42.91-3.54,2.82-3.54,1.94,0,2.84,1.12,2.84,3.54v1.5Zm6.55,4.77h1.74v-5.61c0-2.99.75-4.16,2.66-4.16,1.79,0,2.51,1.01,2.51,3.59v6.18h1.74v-6.34a8.738,8.738,0,0,0-.33-2.79c-0.51-1.43-1.76-2.14-3.72-2.14a3.316,3.316,0,0,0-3.12,1.46l-0.14-1.23h-1.34v11.04Z" transform="translate(-1623.19 -4051.12)"/>
</svg>
