<svg xmlns="http://www.w3.org/2000/svg" viewBox="0 0 266.89 266.89"><defs><style>.cls-1{fill:#ff007d;}</style></defs><title>fadebook</title><g id="レイヤー_2" data-name="レイヤー 2"><g id="Blue"><path class="cls-1" d="M252.16,0H14.73A14.72,14.72,0,0,0,0,14.73V252.16a14.72,14.72,0,0,0,14.73,14.73H142.56V163.54H107.77V123.26h34.79V93.55c0-34.47,21.05-53.24,51.8-53.24a285.15,285.15,0,0,1,31.08,1.59v36H204.11c-16.72,0-20,7.95-20,19.61v25.72H224l-5.2,40.28H184.15V266.89h68a14.72,14.72,0,0,0,14.73-14.73V14.73A14.72,14.72,0,0,0,252.16,0Z"/></g></g></svg>