<?xml version="1.0" encoding="UTF-8"?><svg id="_レイヤー_2" xmlns="http://www.w3.org/2000/svg" viewBox="0 0 2340.46 149.22"><defs><style>.cls-1{fill:#fff;}</style></defs><g id="Img"><g><path class="cls-1" d="M64.62,113.5c-9.99,0-26.79-.45-35.56-.45-15.74,0-29.06,.45-29.06,.45v-1.51c7.72,0,11.35-7.11,11.35-18.92V22.55c0-10.75-3.63-13.47-11.35-13.47v-1.51s13.32,.45,29.06,.45c7.72,0,22.7-.45,32.08-.45,19.37,0,40.56,5.9,40.56,24.52,0,15.13-14.68,23.76-34.35,24.37v.61c24.21,.76,39.5,13.01,39.5,27.54,0,21.49-20.13,28.91-42.22,28.91Zm-17.86-57.51c12.26,0,18.61-7.57,18.61-23.91,0-13.77-5.15-22.7-14.83-22.7-1.21,0-2.57,.15-3.78,.61V56Zm0,1.51v41.01c0,10.75,3.33,13.47,8.93,13.47,8.78,0,12.86-11.5,12.86-26.79,0-10.9-5.3-27.69-21.79-27.69Z"/><path class="cls-1" d="M158.3,113.5s-7.26-.45-22.55-.45-25.58,.45-25.58,.45v-1.36c5.9,0,8.63-4.09,8.63-10.59V16.65c0-5.9-2.57-7.72-8.02-7.72l-.61-1.36c23,0,42.22-7.57,42.22-7.57V106.39c0,4.54,2.57,5.75,5.9,5.75v1.36Z"/><path class="cls-1" d="M215.8,40.86l38.14-1.36,1.21,1.21v59.32c0,5.9,2.42,7.87,7.87,7.87l.76,1.21c-23,0-40.86,7.42-40.86,7.42l-1.36-11.8c-9.99,3.33-16.95,11.8-28.91,11.8s-19.07-7.42-19.07-21.19V50.4c0-6.96-2.27-8.17-8.17-8.17v-1.36l40.56-1.36,1.21,1.21v58.42c0,4.39,2.57,6.81,5.6,6.81s4.69-1.21,8.78-2.42V47.97c0-4.54-2.57-5.75-5.75-5.75v-1.36Z"/><path class="cls-1" d="M305.97,69.16v1.67h-37.35v-1.67h37.35Z"/><path class="cls-1" d="M351.4,52.97v52.82c0,4.84,2.88,6.36,8.02,6.36v1.36s-9.38-.45-24.67-.45-25.58,.45-25.58,.45v-1.36c5.9,0,8.63-4.09,8.63-10.59V54.48c0-5.9-2.57-8.02-8.02-8.02l-.61-1.21c23,0,42.22-7.42,42.22-7.42v13.77c7.26-2.57,11.05-13.77,22.85-13.77,8.63,0,14.38,6.51,14.38,14.53s-5.3,16.04-15.44,16.04c-3.48,0-7.87-1.36-9.84-3.03,.76-1.51,1.82-4.24,1.82-6.96,0-3.93-1.97-6.96-6.36-6.96-2.88,0-4.99,1.06-7.42,1.51Z"/><path class="cls-1" d="M470.95,100.19c0,7.87,2.57,9.84,5.75,9.84,1.51,0,3.33-1.06,4.39-2.42l.61,.45c-2.88,4.99-10.44,8.02-19.52,8.02-8.02,0-15.59-2.12-19.67-8.47-6.81,1.82-14.98,8.93-28.15,8.93-10.9,0-20.43-4.84-20.43-16.34,0-15.44,16.19-24.67,45.55-24.67,0,0,.91-10.29,.91-21.79,0-10.44-2.27-14.68-7.87-14.68s-8.47,4.99-8.47,11.2c0,5.6,1.51,9.38,4.39,13.62-4.09,3.18-11.2,5.3-16.04,5.3-8.17,0-13.47-4.69-13.47-11.5,0-12.71,20.58-19.83,39.04-19.83,26.03,0,34.5,9.69,34.5,30.42,0,14.38-1.51,21.34-1.51,31.93Zm-32.08-11.05c0-8.17,.61-12.26,.61-12.26-8.32,1.66-11.8,10.44-11.8,20.28,0,6.96,2.12,11.35,6.81,11.35,2.57,0,4.54-1.06,7.57-2.12,0,0-3.18-4.09-3.18-17.25Z"/><path class="cls-1" d="M530.12,42.22c-4.24,0-5.9,2.57-5.9,5.6,0,2.27,.61,4.24,1.82,7.57l15.13,41.62,9.84-28.6c1.97-5.45,3.18-11.05,3.18-14.83,0-6.66-3.33-11.35-11.96-11.35v-1.36s6.81,.61,16.04,.61c8.47,0,14.07-.61,14.07-.61v1.36c-7.72,0-13.62,9.08-17.55,20.28l-19.37,54.78c-5.3,14.68-11.35,31.93-28,31.93-13.02,0-20.28-7.42-20.28-16.8,0-8.32,6.2-15.29,16.65-15.29s15.13,7.72,15.13,13.32c-6.36,1.36-9.84,5.6-9.84,9.84,0,3.03,1.82,5.15,4.84,5.15,9.08,0,16.34-17.71,19.52-27.09l1.67-4.84h-21.94l-25.58-63.86c-1.82-4.69-3.63-7.42-9.69-7.42v-1.36s13.77,.61,29.21,.61,23-.61,23-.61v1.36Z"/><path class="cls-1" d="M644.68,113.5c-9.99,0-26.79-.45-35.56-.45-15.74,0-29.06,.45-29.06,.45v-1.51c7.72,0,11.35-7.11,11.35-18.92V22.55c0-10.75-3.63-13.47-11.35-13.47v-1.51s13.32,.45,29.06,.45c7.72,0,22.7-.45,32.08-.45,19.37,0,40.56,5.9,40.56,24.52,0,15.13-14.68,23.76-34.35,24.37v.61c24.21,.76,39.5,13.01,39.5,27.54,0,21.49-20.13,28.91-42.22,28.91Zm-17.86-57.51c12.26,0,18.61-7.57,18.61-23.91,0-13.77-5.15-22.7-14.83-22.7-1.21,0-2.57,.15-3.78,.61V56Zm0,1.51v41.01c0,10.75,3.33,13.47,8.93,13.47,8.78,0,12.86-11.5,12.86-26.79,0-10.9-5.3-27.69-21.79-27.69Z"/><path class="cls-1" d="M810.24,57.96c0,32.39-21.64,58.42-57.36,58.42s-55.69-21.49-55.69-53.42,21.64-58.26,57.21-58.26,55.84,21.34,55.84,53.27Zm-40.1,4.24c0-34.5-8.17-56-18.31-56-8.93,0-14.38,13.77-14.38,52.67,0,34.5,8.47,56,18.46,56,8.93,0,14.23-13.47,14.23-52.67Z"/><path class="cls-1" d="M808.12,7.57s10.9,.45,29.36,.45,31.48-.45,31.48-.45v1.51c-4.54,0-6.96,2.72-6.96,6.96,0,3.03,1.21,6.81,3.78,11.05l12.56,20.28,9.69-15.44c2.88-4.54,4.24-8.63,4.24-12.11,0-6.51-5.15-10.74-15.44-10.74v-1.51s17.86,.45,23.76,.45c4.99,0,20.13-.45,20.13-.45v1.51c-9.08,0-19.67,6.66-27.39,18.31l-14.07,21.34,33.29,52.06c3.93,6.05,8.17,11.2,17.1,11.2v1.51s-23.76-.45-31.78-.45-33.45,.45-33.45,.45v-1.51c6.81,0,9.53-2.57,9.53-6.51,0-2.57-1.21-5.75-3.33-9.23l-18.92-31.02-8.02,13.47c-4.39,7.26-7.26,12.86-7.26,18.92,0,8.17,5.15,14.38,17.4,14.38v1.51s-20.73-.45-27.69-.45c-5.15,0-20.88,.45-20.88,.45v-1.51c13.02,0,23.31-13.32,32.24-27.39l13.17-20.88-29.21-44.79c-4.24-6.66-6.51-9.84-13.32-9.84v-1.51Z"/><path class="cls-1" d="M976.55,19.07c0,8.17,5.6,11.2,11.8,11.65,.3,.91,.61,2.72,.61,4.09,0,6.81-5.6,13.92-15.13,13.92-12.56,0-16.65-9.99-16.65-17.71,0-13.17,12.56-26.33,42.22-26.33,25.73,0,45.25,11.35,45.25,29.21,0,40.86-62.5,26.79-81.72,56.15l.45,.45c9.69-11.2,23.61-11.96,33.9-11.96,12.71,0,26.94,4.24,38.74,4.24,5.75,0,9.38-2.72,10.14-8.17h1.51c0,28.45-9.69,41.77-33.9,41.77-19.83,0-31.48-9.99-44.34-9.99-8.47,0-12.26,5.15-12.26,9.84l-.91,.15c-.45-1.51-.91-3.93-.91-6.81,0-37.23,49.79-41.01,49.79-82.78,0-13.92-7.42-19.98-16.04-19.98-7.87,0-12.56,6.05-12.56,12.26Z"/><path class="cls-1" d="M1159.52,57.96c0,31.63-22.55,58.42-52.82,58.42s-51.15-21.79-51.15-53.42,22.25-58.26,52.36-58.26,51.61,21.64,51.61,53.27Zm-39.65,4.24c0-33.75-5.45-56-14.07-56-7.57,0-10.75,14.53-10.75,52.67,0,33.75,5.75,56,14.23,56,7.57,0,10.59-14.23,10.59-52.67Z"/><path class="cls-1" d="M1188.42,19.07c0,8.17,5.6,11.2,11.8,11.65,.3,.91,.61,2.72,.61,4.09,0,6.81-5.6,13.92-15.13,13.92-12.56,0-16.65-9.99-16.65-17.71,0-13.17,12.56-26.33,42.22-26.33,25.73,0,45.25,11.35,45.25,29.21,0,40.86-62.5,26.79-81.72,56.15l.45,.45c9.69-11.2,23.61-11.96,33.9-11.96,12.71,0,26.94,4.24,38.74,4.24,5.75,0,9.38-2.72,10.14-8.17h1.51c0,28.45-9.69,41.77-33.9,41.77-19.83,0-31.48-9.99-44.34-9.99-8.47,0-12.26,5.15-12.26,9.84l-.91,.15c-.45-1.51-.91-3.93-.91-6.81,0-37.23,49.79-41.01,49.79-82.78,0-13.92-7.42-19.98-16.04-19.98-7.87,0-12.56,6.05-12.56,12.26Z"/><path class="cls-1" d="M1287.85,19.07c0,8.17,5.6,11.2,11.8,11.65,.3,.91,.61,2.72,.61,4.09,0,6.81-5.6,13.92-15.13,13.92-12.56,0-16.65-9.99-16.65-17.71,0-13.17,12.56-26.33,42.22-26.33,25.73,0,45.25,11.35,45.25,29.21,0,40.86-62.5,26.79-81.72,56.15l.45,.45c9.69-11.2,23.61-11.96,33.9-11.96,12.71,0,26.94,4.24,38.74,4.24,5.75,0,9.38-2.72,10.14-8.17h1.51c0,28.45-9.69,41.77-33.9,41.77-19.83,0-31.48-9.99-44.34-9.99-8.47,0-12.26,5.15-12.26,9.84l-.91,.15c-.45-1.51-.91-3.93-.91-6.81,0-37.23,49.79-41.01,49.79-82.78,0-13.92-7.42-19.98-16.04-19.98-7.87,0-12.56,6.05-12.56,12.26Z"/><path class="cls-1" d="M1488.06,92.25h-41.08v24.86h-18.74v-24.86h-53.33v-16.81h21.02v-26.3l-4.68,4.92-15.85-9.61c11.29-10.69,19.58-23.78,24.74-40.47l18.62,2.04c-.96,3.36-2.04,6.61-3.24,9.85h67.86v16.81h-36.39v11.53h33.15v16.45h-33.15v14.77h41.08v16.81Zm-88.04-48.04h28.22v-11.53h-20.54c-2.28,4.08-4.92,7.93-7.69,11.53Zm28.22,31.23v-14.77h-14.05v14.77h14.05Z"/><path class="cls-1" d="M1501.18,111.99c7.72,0,11.35-7.11,11.35-18.92V30.12c0-14.23-3.03-17.4-11.35-17.4v-1.67c14.38,0,34.35-1.82,46.46-6.36V98.52c0,10.75,3.63,13.47,11.35,13.47v1.51s-13.17-.45-28.91-.45-28.91,.45-28.91,.45v-1.51Z"/><path class="cls-1" d="M1568.07,111.99c7.72,0,11.35-7.11,11.35-18.92V30.12c0-14.23-3.03-17.4-11.35-17.4v-1.67c14.38,0,34.35-1.82,46.46-6.36V98.52c0,10.75,3.63,13.47,11.35,13.47v1.51s-13.17-.45-28.91-.45-28.91,.45-28.91,.45v-1.51Z"/><path class="cls-1" d="M1738.87,97.53c0,14.89-5.64,19.58-20.42,19.58-3.96,0-8.41,0-11.77-.24l-4.2-18.38c3.36,.36,7.81,.48,11.77,.48,4.44,0,5.88-.84,5.88-4.2v-13.81h-43.84c-2.76,13.09-8.17,25.34-17.9,36.15l-16.69-10.21c15.49-15.61,18.74-32.91,18.74-52.84V7.46h78.43V97.53Zm-18.74-33.87v-11.05h-41.19v1.44c0,3.24-.12,6.37-.36,9.61h41.55Zm-41.19-38.67v10.45h41.19v-10.45h-41.19Z"/><path class="cls-1" d="M1781.92,19.07c0,8.17,5.6,11.2,11.8,11.65,.3,.91,.61,2.72,.61,4.09,0,6.81-5.6,13.92-15.13,13.92-12.56,0-16.65-9.99-16.65-17.71,0-13.17,12.56-26.33,42.22-26.33,25.73,0,45.25,11.35,45.25,29.21,0,40.86-62.5,26.79-81.72,56.15l.45,.45c9.69-11.2,23.61-11.96,33.9-11.96,12.71,0,26.94,4.24,38.74,4.24,5.75,0,9.38-2.72,10.14-8.17h1.51c0,28.45-9.69,41.77-33.9,41.77-19.83,0-31.48-9.99-44.34-9.99-8.47,0-12.26,5.15-12.26,9.84l-.91,.15c-.45-1.51-.91-3.93-.91-6.81,0-37.23,49.79-41.01,49.79-82.78,0-13.92-7.42-19.98-16.04-19.98-7.87,0-12.56,6.05-12.56,12.26Z"/><path class="cls-1" d="M1914.34,93.98c0-18.01-18.61-29.96-41.47-29.96l6.51-56.45c14.53,.91,40.86,2.42,48.43,2.42,14.38,0,17.1-3.03,17.1-8.17h1.51c1.21,3.78,1.82,7.87,1.82,12.41,0,16.95-10.9,25.88-27.54,25.88-14.23,0-28.3-7.72-42.53-9.53l-3.33,28.6c7.42-9.08,21.19-15.29,35.72-15.29,29.51,0,43.13,17.56,43.13,34.81,0,18.16-11.35,37.68-48.73,37.68-29.66,0-41.47-13.17-41.47-26.33,0-7.72,4.69-16.65,16.19-16.65,9.53,0,14.98,6.81,14.98,13.62,0,1.06-.15,2.27-.45,3.33-6.21,.45-11.8,4.24-11.8,11.65,0,6.21,4.39,12.26,13.32,12.26,7.72,0,18.61-4.69,18.61-20.28Z"/><path class="cls-1" d="M2057.58,9.62V116.63h-18.74v-5.89h-50.44v5.89h-18.02V9.62h87.19Zm-69.18,17.29v24.02h50.44V26.91h-50.44Zm50.44,66.66v-25.7h-50.44v25.7h50.44Z"/><path class="cls-1" d="M2159.91,88.4l17.17,2.64c-1.56,21.14-5.04,24.14-18.98,24.14h-11.05c-16.33,0-20.06-4.44-20.06-25.22v-6.61h-11.17c-2.4,12.61-11.17,24.14-32.91,33.99l-13.21-12.73c17.42-6.25,24.98-13.33,27.74-21.26h-25.82v-15.25h27.14v-9.49h-6.25v-3.36c-5.4,4.08-11.29,7.57-17.78,10.45l-10.81-12.61c8.29-3,15.61-6.97,21.74-12.01-3.24-3.36-7.33-6.73-11.89-10.21l9.73-8.89h-8.77V6.85h35.07l11.89,3.36c-3.36,13.21-9.01,24.14-16.69,33.27h35.31c-7.93-9.25-14.17-20.78-18.38-34.35l15.49-5.29c1.2,4.32,2.76,8.41,4.56,12.25,5.16-4.08,9.85-8.17,12.73-11.41l11.77,10.57c-4.44,3.84-10.57,8.41-17.29,12.85l3,3.6c5.53-4.08,10.69-8.41,13.81-11.77l12.13,11.17c-3.84,3.24-9.01,6.97-14.77,10.69,5.16,3.72,10.81,6.61,16.93,8.89l-11.53,14.41c-5.76-2.76-11.17-6-16.21-9.97v3.48h-7.45v9.49h27.38v15.25h-27.38v6.61c0,7.09,.6,8.05,3.48,8.05h8.29c2.52,0,2.88-.72,3-9.61Zm-74.94-66.42c4.2,2.76,7.81,5.28,10.93,7.93,1.8-2.52,3.36-5.04,4.68-7.93h-15.61Zm42.04,46.12v-9.49h-10.33v9.49h10.33Z"/><path class="cls-1" d="M2220.68,69.19l17.78,.6c-2.76,24.26-10.81,39.03-39.63,47.56l-11.29-14.29c26.18-5.52,31.71-16.09,33.15-33.87Zm14.17-41.44h-46.36V13.1h46.36V3.97h18.74V13.1h47.2v14.65h-47.2v4.8h38.07v14.53h-93.92v-14.53h37.11v-4.8Zm45.52,51.64v-13.45h-72.06v13.45h-17.78v-28.46h108.21v28.46h-18.38Zm20.42,12.01c-1.56,21.26-4.92,24.14-19.7,24.14h-14.29c-16.93,0-20.78-4.44-20.78-23.18v-23.42h18.02v23.42c0,5.76,.72,6.61,4.44,6.61h11.29c3.24,0,3.72-.84,3.84-10.33l17.17,2.76Z"/><path class="cls-1" d="M2328.64,79.11h-3.61c-.38-6.24-1.64-13.79-3.78-22.66l-4.27-17.9c-2.57-10.73-3.86-18.42-3.86-23.07,0-4.21,1.26-7.61,3.78-10.18,2.52-2.57,5.8-3.86,9.85-3.86s7.21,1.3,9.81,3.9c2.6,2.6,3.9,5.9,3.9,9.89s-1.37,11.93-4.11,23.32l-4.35,17.9c-1.53,6.35-2.66,13.9-3.37,22.66Zm-1.72,11.74c3.67,0,6.8,1.3,9.4,3.9,2.6,2.6,3.9,5.76,3.9,9.48s-1.3,6.8-3.9,9.4c-2.6,2.6-5.73,3.9-9.4,3.9s-6.8-1.3-9.4-3.9c-2.6-2.6-3.9-5.73-3.9-9.4s1.29-6.81,3.86-9.44c2.57-2.63,5.72-3.94,9.44-3.94Z"/></g></g></svg>