<?xml version="1.0" encoding="UTF-8"?><svg xmlns="http://www.w3.org/2000/svg" viewBox="0 0 509.96 242.44"><defs><style>.cls-1{fill:#fff;}.cls-2{fill:#e52f81;}.cls-3{fill:#231815;}.cls-4{fill:rgba(229,47,129,.25);}.cls-5{mix-blend-mode:multiply;}.cls-6{opacity:.5;}.cls-7{isolation:isolate;}</style></defs><g class="cls-7"><g id="_レイヤー_2"><g id="img"><g><path class="cls-4" d="M470.63,40.05c-.27,2.44,.18,21.21,.18,21.21l-3.78,19.38-7.77,42.31,2.36,5.23-4.74,8.73-3.04,19.46,2.08,8.69-4.61,10.65s-.65,5.86-.82,7.81c-.17,1.95-1.87,19.11-2.11,21.63-.24,2.52-1.08,19.41-1.21,21.81-.14,2.4,.37,15.49,.37,15.49,0,0-19.62-.07-23.09-.1-3.46-.03-13.44-.52-14.4-.6-.95-.08-21.85-3.89-24.23-4.29-2.38-.4-16.87-3.1-16.87-3.1,0,0,2.07-9.33,2.45-11.46,.38-2.13,3.48-20.68,3.94-24.02,.46-3.34,2.99-26.03,2.99-26.03l-2.68-11.67,4.45-7.51,1.58-23.76-3.25-11.81,4.04-5.23,1.05-47.09-.1-14.88s.08,.24,.35-.21c.28-.46,3.24-12,4.03-15.45,.79-3.44,1.93-19.46,1.94-21.65,.01-2.19-.2-13.15-.2-13.15,0,0,3.94,1.48,4.96,1.85,1.02,.37,8.39,3.14,11.2,4.09,2.81,.94,11.54,3.58,15,4.32,3.46,.74,12.68,2.1,15.11,2.5,2.43,.4,11.99,.61,14.23,.58,2.24-.02,10.88-1.05,13.11-1.36,2.22-.32,13.29-3.92,13.29-3.92,0,0-.15,.41-.37,1.12-.21,.72-1.52,5.6-3,11.15-1.48,5.55-2.17,16.83-2.44,19.27Zm-46.53,40.25l7.81-14.54-4.06-16-7.81,14.54,4.06,16Z"/><g><path class="cls-1" d="M167.92,237.79c-11.35-.29-21.3-1.57-31.32-4.01-1.35-.33-2.3-1.53-2.3-2.92v-15.88l-1.43-1.34c-.86-.81-1.17-2.05-.79-3.17,.38-1.12,1.39-1.91,2.57-2.02l12.96-1.19c.06,0,.21-.01,.28-.01,1.65,0,3,1.35,3,3v10.3c5.01,.69,9.65,1.07,14.65,1.19-.52-.55-.82-1.29-.82-2.06,0-.87,.38-1.7,1.04-2.27l7.28-6.32c.54-.47,1.24-.73,1.97-.73,.83,0,1.63,.35,2.2,.96l6.42,6.88,1.53,.08c1.14,.06,2.13,.75,2.59,1.8,.46,1.05,.29,2.24-.44,3.12l-6.56,7.89c-.57,.69-1.42,1.08-2.31,1.08h0c-.74,0-1.44-.27-2-.76l-4.33-3.85-1.13,7.65c-.22,1.46-1.49,2.57-2.97,2.57-.02,0-.06,0-.08,0Z"/><path class="cls-1" d="M160.94,223.81c-.68,0-1.35-.24-1.88-.66l-9.64-7.77c-.69-.55-1.09-1.38-1.12-2.26-.02-.88,.34-1.72,.99-2.31l2.41-2.18h-12.43c-.38,1.22-1.52,2.11-2.87,2.11-.15,0-.31-.01-.47-.04l-10.57-1.65c-1.46-.23-2.55-1.51-2.54-2.99l.3-34.28-1.26-1.17c-.87-.81-1.18-2.05-.79-3.17,.38-1.12,1.39-1.91,2.57-2.01l12.48-1.12c.06,0,.21-.01,.27-.01,1.15,0,2.16,.65,2.66,1.61,12.47-.73,28.9-1.13,39.19-1.15,1.65,0,2.99,1.34,3,2.98l.3,37.87c0,.81-.3,1.57-.87,2.14-.57,.57-1.32,.89-2.13,.89h-14.74l1.97,1.87,1.37,.08c1.14,.07,2.13,.76,2.58,1.8s.28,2.24-.45,3.12l-6.04,7.23c-.57,.69-1.41,1.08-2.31,1.08Zm4.04-28.3v-1.9h-4.65v1.9h4.65Zm-20.92,0v-1.9h-4.65v1.9h4.65Zm20.92-14.63v-1.58h-4.65v1.58h4.65Zm-20.92,0v-1.58h-4.65v1.58h4.65Z"/><path class="cls-1" d="M128.04,234.08c-.4,0-.79-.08-1.15-.23l-9.4-3.91c-1.5-.62-2.23-2.36-1.64-3.87l4.04-10.23-.72-1.5c-.45-.94-.39-2.02,.16-2.9,.55-.88,1.5-1.41,2.54-1.41,.19,0,.38,.02,.58,.06l11.03,2.16c.83,.16,1.56,.67,2,1.4,.44,.73,.55,1.61,.3,2.42l-4.86,15.89c-.39,1.27-1.54,2.13-2.87,2.13h0Z"/><path class="cls-1" d="M249.85,230.67c-10.34,0-17.03-5.75-17.03-14.64,0-5.83,3.58-12.02,11.32-14h-6.96c-.89,0-1.73-.39-2.3-1.07-.57-.68-.81-1.58-.65-2.45l1.56-8.75c.09-.5,.3-.95,.59-1.33-.86-.02-1.66-.41-2.21-1.07-.57-.68-.81-1.58-.66-2.45l1.56-8.79c.25-1.44,1.5-2.48,2.96-2.48,.85,0,1.66,.37,2.23,1l.7,.78,6.62-.3c-.31-.68-.36-1.47-.11-2.21,.38-1.12,1.39-1.92,2.57-2.02l11.62-1.05c.06,0,.21-.01,.27-.01,1.66,0,3,1.35,3,3v1.78s7.22-.09,7.22-.09c1.45,0,2.68,1,2.97,2.38l1.7,7.91c.19,.89-.03,1.81-.6,2.52s-1.42,1.11-2.33,1.11h-1.17c.82,.39,1.44,1.14,1.64,2.05l1.75,7.91c.2,.89-.02,1.81-.59,2.53-.57,.71-1.43,1.12-2.34,1.12h-8.23v1.84c4.22,1.42,8.86,3.33,12.4,5.14,1.46,.75,2.06,2.55,1.33,4.02l-4.86,9.76c-.51,1.03-1.54,1.67-2.69,1.67h0c-1.26,0-2.37-.76-2.81-1.95l-.66-1.77c-1-.5-2.04-.98-3.1-1.44-1.68,6.81-7.42,11.37-14.72,11.37Zm-2.13-14.71s.2,.13,.78,.13c.21,0,.7-.21,1-.55-.19-.02-.35-.03-.48-.03-.9,0-1.22,.17-1.28,.21,0,.01-.02,.09-.02,.24,0,0,0,0,0,0Zm-6.05-26.93l7.67-.33v-.28h-8.22l.55,.61Z"/><path class="cls-1" d="M316.91,238.24c-.47,0-.95-.11-1.37-.33l-12.3-6.28c-1.09-.56-1.73-1.71-1.63-2.93,.11-1.22,.93-2.25,2.11-2.61l2.3-.71c.51-.49,.99-1.01,1.45-1.54-1,.19-2.06,.28-3.17,.28-10.48,0-17.26-6.84-17.26-17.42,0-7.77,4.77-14.21,12-17.03h-19.66c-.89,0-1.73-.39-2.3-1.07-.57-.68-.81-1.57-.66-2.45l2.1-12.01c.25-1.44,1.5-2.49,2.96-2.49,.86,0,1.69,.38,2.26,1.03l1.22,1.4,18.9-.61v-1.12l-1.8-1.66c-.87-.8-1.19-2.04-.81-3.16s1.38-1.92,2.56-2.03l14.6-1.41c.06,0,.23-.01,.29-.01,1.65,0,3,1.35,3,3v6.07l16.65-.2c1.46,0,2.7,1.01,2.98,2.41l2.19,10.72c.18,.89-.04,1.8-.62,2.5s-1.42,1.1-2.33,1.1h-18.87v5.49c4.29,4.37,6.29,10.59,6.29,19.48s-4.72,16.92-8.69,22.36c-.56,.77-1.47,1.23-2.42,1.23Zm-12.08-33.09c-1.3,.44-1.9,1.17-1.9,1.72,0,.34,.06,1.15,.6,1.15,.77,0,1.13-1.44,1.31-2.86Z"/><path class="cls-1" d="M69.19,70.15c-.15,0-.3-.01-.45-.03l-11.37-1.72c-.51-.08-.97-.28-1.36-.57-.53,.47-1.23,.76-1.99,.76-.15,0-.3-.01-.46-.03l-8.21-1.25c-1.34-.21-2.35-1.25-2.52-2.56v1.76c0,1.66-1.35,3-3,3-.16,0-.33-.01-.49-.04l-7.92-1.3c-1.47-.24-2.53-1.5-2.52-2.99l.11-11.64c-.87,4.46-1.97,8.34-3.31,11.79-.38,.97-1.29,1.59-2.33,1.59-.31,0-.61-.06-.9-.17l-10.36-3.99c-1.1-.42-1.85-1.46-1.92-2.64-.07-1.18,.57-2.29,1.62-2.83l1.13-.59c.66-2.04,1.23-4.25,1.71-6.63l-1.31,.76c-.46,.27-.98,.41-1.51,.41h0c-1.32,0-2.48-.85-2.87-2.11l-2.53-8.11c-.29-.92-.12-1.9,.45-2.67,.56-.77,1.47-1.23,2.42-1.23,.19,0,.39,.02,.59,.06l.77,.15,5.83-3.59,.04-.58-6.55-1.7c-1.47-.38-2.43-1.81-2.22-3.31l.89-6.47c.2-1.48,1.48-2.6,2.97-2.6,.06,0,.2,0,.26,.01l5,.44v-.29c-.74,0-1.44-.33-1.91-.91-.48-.58-.67-1.33-.53-2.06l1.66-8.73c.27-1.42,1.51-2.44,2.96-2.44,.81,0,1.57,.32,2.14,.91l.95,.97,13.88-.51-.23-.22c-.86-.81-1.17-2.05-.79-3.17,.38-1.12,1.39-1.91,2.57-2.01L49.13,.01c.06,0,.21-.01,.27-.01,1.65,0,3,1.35,3,3v3.05l17.74-.18c1.43,0,2.66,.99,2.96,2.36l1.62,7.35c.2,.89-.02,1.81-.59,2.53-.57,.71-1.43,1.12-2.34,1.12h-4.13c.1,.42,.11,.86,.02,1.3-.71,3.5-2.04,7.03-3.78,10.12,0,0,4.97-.07,4.97-.07,1.69,0,3.03,1.34,3.05,2.98l.27,33.58c0,.81-.3,1.57-.87,2.14-.57,.57-1.33,.89-2.13,.89Zm-12.17-7.81l.68-.47v-.92h-.68v1.39ZM31.53,27.65c-.05,1.4-.1,2.75-.16,4.06l4.55-.41-.17-.45c-.24-.64-.25-1.33-.04-1.96h-2.03c-.74,0-1.43-.32-1.91-.89-.09-.11-.18-.23-.25-.35Zm.2-8.42c-.02,1.45-.05,2.85-.08,4.2l.71-4.2h-.63Z"/><path class="cls-1" d="M114.69,48.62c-1.02,0-1.96-.52-2.52-1.38-.55-.86-.63-1.93-.21-2.86l.49-1.08c-1.43-5.06-4.08-10.61-7.34-15.32-.92-1.33-.63-3.13,.66-4.11l7.13-5.37c.52-.4,1.15-.6,1.8-.6,.98,0,1.9,.48,2.47,1.29,4.51,6.43,8.78,15.54,10.39,22.14,.36,1.48-.45,3-1.9,3.52l-9.94,3.6c-.33,.12-.68,.18-1.03,.18h0Z"/><path class="cls-1" d="M85.14,61.73c-1.04,0-1.99-.52-2.54-1.4-6.34-10.11-9.16-21.76-9.16-37.77,0-2.21,.05-4.44,.14-6.62,.07-1.61,1.39-2.87,3-2.87,.12,0,.25,0,.38,.02l11,1.39c1.17,.15,2.15,.98,2.5,2.11s-.01,2.36-.91,3.14l-.95,.83-.04,1.25c0,10.16,1.54,18.58,4.7,25.65l3.29,.26c1.27,.1,2.31,.96,2.66,2.19,.34,1.23-.1,2.5-1.14,3.25l-11.16,8.03c-.51,.37-1.12,.57-1.76,.57h0Z"/><path class="cls-1" d="M193.63,229.09c-1.04,0-1.99-.52-2.54-1.4-6.34-10.11-9.16-21.76-9.16-37.77,0-2.21,.05-4.44,.14-6.62,.07-1.61,1.39-2.87,3-2.87,.12,0,.25,0,.38,.02l11,1.39c1.17,.15,2.15,.98,2.5,2.11,.34,1.13-.01,2.36-.91,3.14l-.95,.83-.04,1.25c0,10.16,1.54,18.58,4.7,25.65l3.29,.26c1.27,.1,2.31,.96,2.66,2.18,.34,1.23-.1,2.5-1.14,3.25l-11.16,8.03c-.51,.37-1.12,.57-1.76,.57h0Z"/><path class="cls-1" d="M223.18,215.98c-1.02,0-1.96-.52-2.52-1.38-.55-.86-.63-1.93-.21-2.86l.49-1.08c-1.43-5.06-4.08-10.61-7.34-15.32-.92-1.33-.63-3.13,.66-4.1l7.13-5.37c.52-.4,1.15-.6,1.8-.6,.98,0,1.9,.48,2.47,1.29,4.51,6.44,8.78,15.54,10.39,22.14,.36,1.49-.45,3-1.9,3.52l-9.94,3.6c-.33,.12-.68,.18-1.03,.18h0Z"/><path class="cls-1" d="M244.6,69.83c-.18,0-.36-.02-.55-.05l-6.79-1.26c-.37-.07-.71-.2-1.01-.38-.11,.39-.33,.75-.65,1.01-.36,.3-.82,.46-1.28,.46-.12,0-.24-.01-.36-.03l-8.8-1.63c-.95-.18-1.64-1-1.64-1.97v-4.91l-1.16,1.13c-.56,.55-1.31,.85-2.09,.85-.96,0-1.88-.47-2.44-1.25l-4.4-6.13c-.89-1.25-.71-2.96,.43-3.98l4.06-3.65c-.64-.15-1.22-.51-1.65-1.04-.57-.71-.79-1.63-.6-2.52l1.11-5.14c.09-.41,.25-.78,.48-1.1-.83-.05-1.59-.44-2.12-1.09-.57-.7-.8-1.6-.63-2.49l1.09-5.51c.14-.72,.53-1.33,1.08-1.76-.17-.14-.33-.29-.48-.47-.57-.7-.8-1.62-.61-2.5l1.06-5.12c.07-.33,.19-.64,.36-.92h-.91c-.9,0-1.74-.4-2.31-1.08s-.81-1.59-.64-2.47l1.12-6.01c.27-1.42,1.51-2.45,2.96-2.45,.77,0,1.48,.28,2.04,.81l1.32-.06-.31-2.44c-.1-.81,.12-1.6,.62-2.24,.51-.64,1.23-1.04,2.04-1.12l7.69-.8c.1-.01,.21-.02,.31-.02,1.29,0,2.44,.82,2.85,2.05l1.34,4.02,1.87-.03,.26-.77-.51-.86c-.56-.94-.57-2.07-.03-3.02,.53-.94,1.53-1.52,2.6-1.52,.16,0,.32,.01,.48,.04l9.84,1.56c.8,.13,1.53,.58,2,1.25,.46,.67,.64,1.51,.48,2.31l-.15,.72s3.98-.08,3.98-.08c1.47,0,2.71,1.01,3,2.39l1.29,6.21c.18,.89-.04,1.8-.61,2.5-.57,.7-1.42,1.11-2.33,1.11h-.21c.21,.4,.33,.85,.33,1.32l.1,7.36c.91,.34,1.62,1.12,1.86,2.11l1.29,5.37c.22,.9,.01,1.83-.56,2.56-.57,.73-1.43,1.14-2.36,1.14h-.12l.05,6.84c0,.81-.3,1.56-.87,2.14-.57,.57-1.32,.89-2.13,.89h-1.25l3.25,3.68h.68c1.19,.03,2.23,.73,2.7,1.82s.27,2.32-.53,3.21l-5.36,5.92c-.57,.63-1.38,.99-2.23,.99-.76,0-1.48-.28-2.04-.8l-2.29-2.11v6.01c0,1.66-1.35,3-3,3Z"/><path class="cls-1" d="M204.92,67.46c-.46,0-.92-.11-1.34-.31l-9.12-4.54c-1.12-.56-1.77-1.72-1.65-2.97,.12-1.25,.97-2.27,2.18-2.61l1.26-.35c1.01-1.76,1.89-3.44,2.64-5.06-1.84-.99-3.69-2.07-5.72-3.32-1.01-.62-1.56-1.78-1.4-2.95l2.1-15.76h-.92c-.89,0-1.73-.39-2.3-1.07-.57-.68-.81-1.58-.66-2.45l1.56-8.86c.25-1.44,1.5-2.48,2.96-2.48,.46,0,.91,.11,1.32,.31l.99-7.55-.73-.88c-.75-.91-.9-2.13-.4-3.19,.5-1.06,1.54-1.72,2.71-1.72,.02,0,9.41,.32,9.41,.32,.84,.03,1.64,.41,2.18,1.05,.55,.64,.8,1.48,.7,2.32l-1.28,10.26s5.13-.21,5.16-.21c.8,0,1.56,.31,2.12,.88,.57,.57,.88,1.33,.88,2.13-.03,10.77-.46,18.12-1.47,24.41,.95,.01,1.84,.48,2.4,1.26,.56,.78,.71,1.8,.4,2.71l-2.89,8.5c-.41,1.22-1.56,2.04-2.84,2.04-.32,0-.63-.05-.94-.15l-.2-.06c-1.28,3.06-2.78,5.98-4.56,8.89-.54,.89-1.52,1.44-2.57,1.44h0Z"/><path class="cls-1" d="M55.5,157.29c-.14,0-.27,0-.41-.03l-15.42-2.14c-1.03-.14-1.9-.79-2.32-1.73-.02-.04-.04-.08-.05-.13-.91-.35-1.59-1.13-1.82-2.12-.28-1.22,.21-2.47,1.25-3.17l2.51-1.69,.31-10.15c-.4,2.28-.98,4.47-1.74,6.61-.42,1.19-1.56,1.99-2.83,1.99-.29,0-.58-.04-.85-.12l-9.11-2.7v12c0,.81-.32,1.57-.89,2.14-.57,.56-1.31,.87-2.11,.87h0c-.19,0-.38-.02-.58-.06l-9.5-1.84c-1.03-.2-1.85-.91-2.22-1.84-1.12-.45-1.9-1.54-1.9-2.79v-53.44c-.24-.16-.46-.35-.65-.58-.21-.25-.37-.52-.48-.81-.46-.18-.87-.48-1.2-.87-.57-.69-.81-1.59-.65-2.46l2.22-12.06c.26-1.43,1.51-2.46,2.96-2.46,.88,0,1.71,.38,2.28,1.05l.86,1.01c.26,.15,.5,.33,.71,.55,6.2-.57,12.25-1.09,21.23-1.13,.82,0,1.61,.33,2.17,.91,.28,.28,.49,.62,.64,.98,.39,.16,.75,.39,1.05,.7,.56,.58,.87,1.38,.85,2.18-.02,.58-.03,1.15-.05,1.71,.64,.13,1.23,.47,1.67,.97l.92,1.05c.25,.14,.48,.32,.68,.54l7.36-.35v-3.71l-.33-.31c-.18-.17-.34-.35-.47-.56l-1.21-1.12c-.87-.8-1.19-2.04-.81-3.16,.38-1.12,1.38-1.92,2.56-2.03l14.88-1.42c.06,0,.22-.01,.29-.01,1.26,0,2.35,.79,2.79,1.89,1.11,.44,1.89,1.53,1.89,2.79v6.99s10.2-.17,10.2-.17c1.28,0,2.4,.78,2.84,1.91,.91,.37,1.61,1.16,1.82,2.14l2.29,10.56c.19,.89-.02,1.81-.6,2.52s-1.42,1.12-2.34,1.12h-24.65v1.75c6.18-.29,12.53-.45,18.08-.47,1.27,0,2.35,.79,2.8,1.9,1.11,.44,1.89,1.53,1.89,2.79v10.25c0,9.61-.67,23.25-2.57,32.69-.28,1.39-1.51,2.4-2.94,2.4-.21,0-.41-.02-.61-.06l-14.98-3.1c-.95-.2-1.72-.81-2.12-1.69-.02-.05-.04-.1-.06-.14-.15-.06-.29-.13-.42-.2l-.1,2.96c-.05,1.63-1.37,2.91-3,2.91Zm3.27-11.16l2.04-1.31c1.49-6.08,1.95-13.51,2.14-20.31h-3.48l-.7,21.61Zm-22.72-34.38c2.43,3.71,3.48,7.44,3.91,10.95l.53-17.38h-1.87c-.31,0-.61-.05-.9-.14-.45,2.16-1,4.31-1.67,6.58Z"/><path class="cls-1" d="M147.06,156.87c-.16,0-.32-.01-.48-.04l-7.76-1.25c-1.08-.17-1.94-.9-2.32-1.86-1.04-.41-1.77-1.37-1.88-2.5l-24.94,3.64c-.15,.02-.29,.03-.44,.03-.57,0-1.11-.16-1.56-.44-.13,.55-.4,1.05-.81,1.45-.57,.56-1.32,.87-2.11,.87h0c-.16,0-.33-.01-.49-.04l-9.92-1.65c-1.07-.18-1.92-.9-2.3-1.85-1.13-.44-1.89-1.54-1.89-2.79v-23.37l-.37-.52c-.47-.22-.89-.55-1.2-.99l-5.92-8.4c-.87-1.23-.68-2.93,.43-3.94,3.45-3.14,6.46-6.27,8.81-9.16-.38-.25-.7-.59-.93-.99l-.24-.42c-.6-.24-1.11-.68-1.44-1.27l-5.64-9.81c-.76-1.33-.41-3.02,.83-3.92l8.61-6.28,.14-2.32c.1-1.58,1.42-2.82,3-2.82,.76,0,1.49,.29,2.05,.81l7.98,7.47,.69-2.17-.68-1.38c-.46-.94-.4-2.02,.15-2.91,.55-.89,1.5-1.42,2.54-1.42,.18,0,.36,.02,.55,.05l9.55,1.76c.82,.15,1.55,.65,2,1.36,.1,.16,.18,.32,.25,.49,.59,.23,1.09,.65,1.44,1.19,.45,.71,.57,1.58,.35,2.39l-.13,.47c2.37-.13,5.09-.24,7.5-.27,.89,0,1.69,.37,2.24,.97l.65-3.66c.25-1.44,1.5-2.48,2.96-2.48,.83,0,1.6,.33,2.17,.93l1.17,1.23c5.65-.65,14.29-1.07,18.66-1.13,1.29,0,2.39,.79,2.83,1.9,1.11,.44,1.88,1.51,1.89,2.76l.48,54.62c0,.81-.3,1.57-.87,2.14-.57,.57-1.33,.89-2.13,.89-.15,0-.29-.01-.44-.03l-10.04-1.48v13.15c0,1.66-1.35,3-3,3Zm-13.2-22.18c.29,.22,.55,.48,.75,.79v-.79h-.75Zm.75-14.82v-.16h-.15c.05,.05,.1,.1,.15,.16Zm-2.03-17.07c.78,0,1.49,.26,2.03,.71v-2.84c-.08,0-.15,0-.23,0h-2.45v2.15s.65-.02,.65-.02Zm-26.15,.37l.15-.82c.1-.54,.41-1,.83-1.29l-1.44-.82c-.59-.34-1.03-.85-1.27-1.45l-.41-.23c-.53-.3-.94-.76-1.2-1.28l-2.66,2.34,6.01,3.56Z"/><path class="cls-1" d="M185.36,157.33c-.28,0-.56-.04-.83-.12l-14.43-4.12c-.84-.24-1.53-.82-1.89-1.6-.03-.06-.05-.12-.08-.18-1.19-.47-1.95-1.64-1.89-2.93,.07-1.4,1.07-2.55,2.45-2.81l.74-.14c5.62-9.12,9.92-23.05,10.83-34.91h-13.24c-.88,0-1.72-.39-2.29-1.06-.21-.25-.38-.53-.5-.83-.45-.18-.86-.47-1.18-.85-.57-.68-.82-1.56-.67-2.44l2.1-12.55c.25-1.45,1.49-2.51,2.97-2.51,.86,0,1.69,.38,2.26,1.03l.92,1.05c.24,.14,.46,.31,.66,.52l10.49-.39,.29-6.99-.26-.25c-.16-.15-.3-.31-.42-.49l-1.27-1.19c-.87-.82-1.17-2.03-.78-3.16s1.36-1.9,2.55-2.02l15.13-1.49c.07,0,.23-.01,.3-.01,.81,0,1.59,.33,2.16,.92,.28,.29,.49,.62,.64,.98,.39,.16,.75,.39,1.04,.7,.57,.59,.87,1.37,.84,2.19l-.34,10.29,26.69-.35c1.3,0,2.39,.79,2.83,1.9,1.11,.45,1.89,1.53,1.89,2.78v11.65c0,23.04-2.05,35.4-5.12,46.87-.35,1.31-1.54,2.23-2.9,2.23h0c-.21,0-.42-.02-.63-.07l-16.2-3.46c-.94-.2-1.7-.81-2.1-1.68-.02-.05-.04-.1-.06-.15-1-.39-1.71-1.27-1.87-2.36-.18-1.26,.42-2.46,1.53-3.07l3.42-1.86c3.11-11.28,3.8-23.31,3.96-33.87h-12.52c-.41,18.38-4.14,31.65-12.67,45.39-.54,.88-1.52,1.42-2.56,1.42Z"/><path class="cls-1" d="M435.33,157.19c-.88,0-1.71-.38-2.28-1.04-.24-.28-.47-.56-.7-.85l-.02-.03c-.3-.17-.57-.38-.8-.64-1.04-1.21-2.02-2.42-2.95-3.66,0,.59-.19,1.17-.53,1.66-.48,.7-1.25,1.17-2.1,1.28l-21.84,2.77c-.13,.02-.25,.02-.38,.02-.81,0-1.6-.34-2.17-.93-.24-.25-.43-.54-.57-.85-.35-.16-.67-.38-.94-.66-.52-.54-.82-1.27-.83-2.02-.35,.14-.72,.21-1.11,.21s-.76-.07-1.12-.22l-8.37-3.36v4.35c0,1.66-1.35,3-3,3-.16,0-.33-.01-.5-.04l-14.44-2.43c-.92-.15-1.69-.71-2.13-1.52-.04-.07-.07-.14-.11-.22-.88-.39-1.52-1.17-1.72-2.15-.25-1.23,.27-2.46,1.33-3.13l2.48-1.58v-9.88c-.26,.07-.53,.11-.8,.11-1.21,0-2.27-.72-2.74-1.78-.95-.42-1.64-1.32-1.76-2.41l-1.34-12.14c-.09-.85,.18-1.7,.74-2.33,.57-.64,1.39-1.01,2.24-1.01,.57,0,1.12,.16,1.6,.47l1.65,1.04,.4-.11v-7.97h-3.02c-.89,0-1.73-.39-2.3-1.08-.18-.22-.33-.45-.44-.7-.41-.18-.78-.46-1.08-.81-.57-.68-.81-1.58-.65-2.46l1.98-11.11c.26-1.43,1.5-2.48,2.96-2.48,.83,0,1.63,.35,2.2,.97l.35,.37v-8.79l-.04-.04c-.16-.15-.3-.31-.42-.5l-1.09-1.02c-.86-.81-1.17-2.05-.79-3.17,.38-1.12,1.39-1.91,2.56-2.02l13.08-1.22c.06,0,.22-.01,.28-.01,1.22,0,2.27,.73,2.74,1.78,1.05,.47,1.78,1.52,1.78,2.74v6.1l1.15-6.45c.26-1.43,1.5-2.48,2.96-2.48,.78,0,1.53,.3,2.09,.85l1.23,1.19c10.76-.83,24.92-1.28,41.03-1.29,1.21,0,2.27,.71,2.75,1.78,.84,.37,1.48,1.12,1.7,2.06l2.25,9.55c.21,.9,0,1.83-.57,2.55-.57,.72-1.43,1.14-2.35,1.14h-32.65l-.37,14.53c9.81-.46,21.42-.74,31.54-.75,1.21,0,2.26,.71,2.74,1.77,.84,.37,1.48,1.12,1.7,2.06l2.25,9.55c.21,.9,0,1.83-.57,2.55-.57,.72-1.43,1.14-2.35,1.14h-.87c.09,.14,.17,.28,.24,.43l.35,.21c.73,.43,1.24,1.16,1.4,1.99,.17,.83-.03,1.69-.53,2.38l-5.09,6.88c.81,1.33,1.66,2.67,2.58,3.9l2.09,.09c1.05,.05,1.98,.62,2.49,1.54,.04,.08,.08,.16,.12,.24,.74,.33,1.33,.95,1.61,1.74,.41,1.16,.08,2.43-.84,3.25l-9.37,8.31c-.55,.49-1.26,.76-1.99,.76h0Zm-13.73-29.69l2.52-.89,1.11-1.12h-3.63v2.02Zm-32.32-13.07c.13-1.85,.22-3.63,.29-5.26h-.94v4.38c.21,.22,.39,.48,.52,.77,0,0,.1,.09,.13,.11Z"/><path class="cls-1" d="M408.46,109.59c-.89,0-1.72-.39-2.29-1.07-.18-.22-.33-.46-.45-.71-.41-.18-.77-.46-1.07-.81-.57-.68-.81-1.57-.67-2.44l1.53-8.95c.25-1.45,1.5-2.5,2.96-2.5,.73,0,1.44,.27,1.99,.76l1.16,1.03c8.26-.63,17.26-1.02,24.26-1.04,1.21,0,2.27,.71,2.75,1.78,.83,.37,1.47,1.11,1.69,2.04l1.98,8.19c.22,.9,.01,1.83-.56,2.56s-1.43,1.15-2.36,1.15h-30.94Z"/><path class="cls-1" d="M481,156.6c-.64,0-1.26-.2-1.77-.58l-13.47-9.85c-.39-.29-.7-.65-.91-1.07l-.61-.44c-.98-.72-1.43-1.95-1.14-3.14,.29-1.19,1.26-2.07,2.46-2.25l4.11-.63c9.68-10.94,11.42-18.75,11.42-34.85,0-4.07-.21-8.01-.43-12.19l-.1-1.96-.71-.56c-.32-.25-.57-.56-.76-.91l-.76-.6c-.93-.74-1.33-1.96-1.03-3.11,.3-1.15,1.25-2.01,2.43-2.2l16.23-2.61c.16-.03,.32-.04,.48-.04,1.21,0,2.27,.73,2.74,1.78,.98,.44,1.7,1.4,1.77,2.54,.45,6.54,.95,13.96,.95,21.3,0,23-4.55,35.25-18.71,50.43-.56,.61-1.37,.96-2.2,.96h0Z"/><path class="cls-1" d="M450.04,128.9c-1.21,0-2.27-.72-2.75-1.78-.87-.39-1.54-1.19-1.72-2.18-1.24-6.51-1.87-13.58-1.87-20.99,0-8.72,.75-16.5,2.29-23.78,.29-1.38,1.53-2.38,2.94-2.38,.25,0,.5,.03,.75,.09l15.78,4.05c.83,.21,1.5,.74,1.9,1.48,.03,.06,.07,.13,.1,.2,.9,.39,1.54,1.2,1.73,2.19,.22,1.16-.24,2.3-1.19,2.99l-2.2,1.59c-1.01,5.69-1.52,11.36-1.52,16.87,0,3.21,.2,6.47,.58,9.72l1.19,.85c.41,.29,.73,.67,.94,1.11l.58,.41c.96,.69,1.42,1.83,1.2,2.99-.21,1.16-1.05,2.06-2.19,2.36l-15.76,4.12c-.25,.06-.5,.1-.76,.1Z"/><path class="cls-1" d="M17.38,218.72c-6.3,0-10.35-3.85-10.57-10.05-.04-.65-.04-1.31-.04-1.97,0-2.23,.14-4.26,.29-6.42,.09-1.29,.18-2.61,.25-4.02l.05-.98c.12-2.3,.28-5.17,.28-7.35v-.99c-.03-1.37,.54-2.26,1.03-2.76,1-1.02,2.31-1.14,2.82-1.14,2.25,0,4.02,1.66,4.02,3.77,0,1.76-.49,8.33-.58,9.56-.09,1.4-.21,2.76-.33,4.09-.21,2.26-.4,4.39-.4,6.55,0,2.86,.45,4.14,3.11,4.14,2.5,0,5.87-1.5,9.02-4.02,.78-.65,1.73-1.01,2.69-1.01,2.09,0,3.86,1.84,3.86,4.02,0,1.23-.58,2.39-1.59,3.18-4.17,3.36-9.37,5.37-13.89,5.37Z"/><path class="cls-1" d="M61.21,200.95c-.42,0-.83-.07-1.29-.23-1.42-.5-3.27-.81-4.85-.81-1.3,0-2.03,.18-2.42,.32-.43,.17-.84,.25-1.29,.25-1.85,0-3.36-1.56-3.36-3.48,0-1.62,1.03-4.35,7.89-4.35,2.17,0,4.25,.36,6.18,1.07,1.58,.55,2.63,1.97,2.63,3.61,0,2.02-1.53,3.61-3.48,3.61Z"/><path class="cls-1" d="M56.67,217.94c-5.62,0-11.69-2.44-11.69-6.37,0-2.16,1.73-3.98,3.77-3.98,1.01,0,1.99,.47,2.76,1.31,.72,.79,1.66,1.28,4.04,1.28,1.1,0,2.41-.11,4.17-.28,.06,0,.13,0,.19,0h.29c2.17,0,3.81,1.6,3.81,3.73,0,4.31-5.16,4.31-7.36,4.31Z"/><path class="cls-1" d="M35.07,218.18c-2.09,0-3.73-1.62-3.73-3.69,0-.75,.18-1.5,.54-2.22,2.57-5.26,4.67-10.33,6.39-15.41-6.07-.08-6.73-3.12-6.73-4.43,0-1.96,1.46-3.44,3.4-3.44,.56,0,1.08,.1,1.61,.29,.75,.27,1.66,.41,2.68,.41,.29,0,.59-.02,.93-.05,0-.05,0-.09,0-.14,0-.68-.06-1.37-.12-2.17l-.04-.48c0-.05,0-.28,0-.28,0-1.99,1.59-3.48,3.69-3.48,1.64,0,3.56,.71,3.92,3.89,.32-.09,.65-.14,.99-.14,2,0,3.69,1.69,3.69,3.69,0,2.57-2.62,3.82-5.98,4.92-2,6.82-4.44,13.44-7.47,20.22-.7,1.55-2.14,2.5-3.76,2.5Z"/><path class="cls-1" d="M93.86,207.55c-1.81,0-3.28-1.26-3.65-3.13-.53-2.86-2.12-5.63-3.96-6.91-.98-.71-1.52-1.72-1.52-2.8,0-1.93,1.67-3.57,3.65-3.57,3.92,0,9.5,7.93,9.5,12.26,0,2.59-2.04,4.14-4.02,4.14Z"/><path class="cls-1" d="M73.2,214.89c-4.42,0-9.49-5.22-10.2-16.68l-.09-1.35c-.07-1.08-.12-1.79-.12-2.65,0-4.23,2.98-4.56,3.9-4.56,2.48,0,3.73,1.66,3.73,4.93,0,.28-.01,.52-.02,.77,0,.2-.02,.4-.02,.64,0,7.25,1.91,9.85,2.84,10.68,.25-.36,.63-1.01,1.13-2.14,.61-1.37,1.86-2.22,3.27-2.22,2.11,0,3.9,1.71,3.9,3.73,0,1.77-3.22,8.84-8.31,8.84Z"/><path class="cls-1" d="M108.74,218.47c-1.31,0-12.76-.26-12.76-9.3,0-3.47,2.06-7.05,5.81-10.09l.3-.24c-1.14-3.06-2.84-6.26-4.26-7.98-.63-.77-.99-1.72-.99-2.59,0-2.06,1.77-3.73,3.94-3.73,1.33,0,2.53,.64,3.27,1.75,1.5,2.14,3.05,5.08,4.29,8.03,1.67-1.08,3.52-2.17,5.74-3.39,.54-.27,1.25-.58,2.12-.58,2.09,0,3.73,1.66,3.73,3.77,0,1.53-.89,2.9-2.45,3.74-9.38,4.81-14.12,8.52-14.12,11.02,0,.94,1.21,2.04,4.64,2.04,2.44,0,5.21-.56,6.68-1.11,.5-.17,1.08-.33,1.73-.33,2.12,0,3.77,1.68,3.77,3.81,0,1.92-1.32,3.54-3.36,4.11-2.3,.67-5.33,1.06-8.08,1.06Z"/><path class="cls-1" d="M333.23,233.87c-4.6,0-8.34-3.76-8.34-8.39s3.74-8.34,8.34-8.34,8.39,3.74,8.39,8.34-3.77,8.39-8.39,8.39Zm0-10.62c-1.3,0-2.28,.96-2.28,2.23s1,2.34,2.28,2.34,2.34-1.05,2.34-2.34-1.03-2.23-2.34-2.23Z"/><path class="cls-1" d="M247.52,117.06c-1.97,0-3.57-1.66-3.57-3.69,0-1.72,1.17-3.12,2.98-3.55,2.1-.51,4.51-.8,6.78-.8,2.68,0,8.27,0,8.27,4.27,0,2.05-1.6,3.65-3.65,3.65-.23,0-.58,0-.98-.1-1.41-.31-2.85-.48-4.25-.48-1.53,0-3.08,.2-4.62,.59-.39,.11-.75,.11-.95,.11Z"/><path class="cls-1" d="M236.72,138.38c-5.04,0-5.3-10.32-5.3-12.39,0-1.48,.09-3.11,.3-5.11,.34-3.24,.91-6.3,1.37-8.76,.22-1.18,.42-2.22,.54-3.04,.28-1.98,1.77-3.32,3.71-3.32,2.04,0,3.69,1.58,3.69,3.53,0,.14,0,.44-.1,.8-.11,.58-.26,1.25-.41,2-.52,2.48-1.24,5.89-1.61,8.9-.08,.69-.14,1.3-.19,1.85,.33-.11,.68-.17,1.05-.17,1.87,0,3.44,1.6,3.44,3.48,0,.43-.08,1.07-.45,1.69-2.17,3.89-2.35,5.36-2.35,6.43,0,2.69-1.86,4.1-3.69,4.1Z"/><path class="cls-1" d="M254.57,136.44c-7.06,0-11.28-3.07-11.28-6.04,0-2.08,1.67-3.77,3.73-3.77,.94,0,1.87,.37,2.62,1.05,.74,.69,2.16,1.05,4.02,1.05,1.42,0,3.13-.21,5.07-.62,.27-.05,.62-.13,1.03-.13,2.13,0,3.73,1.62,3.73,3.77,0,1.89-1.24,3.49-3.09,3.99-1.71,.45-3.73,.69-5.84,.69Z"/><path class="cls-1" d="M144.93,53.48c-2.3,0-4.1-1.66-4.1-3.77,0-1.45,.89-3.2,3.37-3.76,1.92-.42,8.17-2.28,8.17-8.48,0-3.22-2.03-5.75-5.18-6.75-.34,2.67-1.85,7.04-3.77,10.78-2.11,4.11-5.51,9.02-9.66,9.02s-7.81-4.56-7.81-9.96c0-6.88,5.85-17.05,18.41-17.05,8.87,0,15.56,6.05,15.56,14.08,0,11.75-12.34,15.89-14.99,15.89Zm-5.54-22.09c-3.77,1.86-6.14,5.65-6.14,8.83,0,1.29,.41,2,.68,2.31,1.41-1.15,4.44-6.32,5.46-11.14Z"/><path class="cls-1" d="M163.19,54.75c-1.36,0-3.06-.81-3.76-3.1-.74-2.39-1.12-5.3-1.12-8.63,0-2.22,.13-4.46,.38-6.66,.28-2.61,.66-5.13,1-7.36,.31-2.04,.58-3.81,.68-5.05,.16-2.54,2.06-3.7,3.77-3.7,2.14,0,3.81,1.6,3.81,3.65,0,.15-.02,.33-.05,.51,0,.03,0,.05-.01,.08-.12,.81-.31,1.95-.53,3.27-.29,1.77-.64,3.85-.95,5.88-.27,1.69-.47,3.21-.61,4.51,.19-.03,.38-.05,.57-.05,1.91,0,3.4,1.57,3.4,3.57,0,.69-.16,1.38-.47,2.06-2.03,4.41-2.29,6.01-2.29,6.92,0,2.69-1.92,4.1-3.81,4.1Z"/><path class="cls-1" d="M177.78,54.71c-4.56,0-8.27-3.15-8.27-7.03s3.91-6.95,9.09-6.95c.49,0,.97,.02,1.47,.07-.1-1.39-.22-3.77-.33-6.33-1,.11-1.98,.16-2.95,.16-1.77,0-5.92,0-5.92-3.81,0-1.81,1.43-3.69,3.81-3.69,.21,0,.52,0,.88,.08,.55,.09,1.15,.13,1.88,.13,.69,0,1.39-.04,2.1-.11,0-.03,0-.07,0-.1-.01-.54-.02-1.06-.02-1.54,0-.59,.01-1.14,.02-1.63,0-.36,.02-.69,.02-.97,.08-2.12,1.65-3.61,3.73-3.61s3.69,1.46,3.69,3.4c0,0,0,.21,0,.26-.03,.44-.08,1.33-.12,2.55,.47-.14,.88-.14,1.13-.14,2.1,0,3.81,1.66,3.81,3.69,0,1.3-.84,3.02-3.22,3.59l-1.7,.41c.06,2.92,.17,5.51,.26,7.09,.02,.46,.06,.95,.1,1.48,.04,.44,.07,.9,.1,1.37,1.51,.8,2.93,1.8,4.17,2.92,.92,.85,1.4,1.9,1.4,3.05,0,2.16-1.73,3.98-3.77,3.98-.68,0-1.69-.2-2.65-1.16-.29-.3-.61-.6-.93-.87-1.81,2.25-4.76,3.72-7.79,3.72Z"/><path class="cls-1" d="M286.49,36.42c-.65,0-1.27-.2-1.85-.58-1.52-.99-3.11-1.48-4.83-1.48-.07,0-.14,0-.21,.01-.18,.01-.36,.03-.54,.03h-.12c-1.92,0-3.36-1.44-3.36-3.36,0-1.38,.63-3.69,4.88-3.69,.1,0,9.59,.06,9.59,5.3,0,2.08-1.6,3.77-3.57,3.77Z"/><path class="cls-1" d="M272.47,56.08c-4.83,0-8.76-3.13-8.76-6.99s4.1-6.82,9.75-6.82c.42,0,.83,.02,1.24,.05-.01-.5-.04-1.02-.06-1.52-.02-.42-.04-.84-.05-1.24v-.52c0-1.37,0-5.55,3.77-5.55,2.08,0,3.65,1.53,3.65,3.57,0,.14,0,.43-.09,.78h0c-.11,.61-.16,.89-.16,1.57v1.11c0,.88,0,1.88,.04,2.8,0,.34,.02,.66,.04,.98,2.13,1.04,6.02,3.33,6.02,6.36,0,2.15-1.71,3.9-3.81,3.9-.78,0-1.93-.26-2.97-1.49-.2-.24-.42-.48-.66-.72-1.72,2.27-4.7,3.74-7.95,3.74Zm-.29-6.97c.26,0,.51-.03,.75-.08-.31,0-.61,.04-.89,.08,.05,0,.09,0,.14,0Z"/><path class="cls-1" d="M261.55,46.44c-2.07,0-3.69-1.53-3.69-3.48,0-.77,.28-1.59,.77-2.3l.12-.18c1.56-2.3,3.56-5.23,5.22-8.26-4.8-.15-5.83-2.22-5.83-3.97,0-2,1.58-3.57,3.61-3.57,.39,0,.82,.07,1.29,.2,.55,.17,1.14,.25,1.76,.25,.57,0,1.26-.07,2.06-.21,.19-.82,.33-1.68,.47-2.56l.07-.45c.23-1.76,1.71-3.04,3.58-3.04,2.08,0,3.66,1.47,3.73,3.43,.08,0,.15,0,.23,0,1.97,0,3.57,1.56,3.57,3.48,0,2.73-3.08,4.18-6.09,5.11-1.7,3.95-4.11,8.4-7.32,13.55-.77,1.25-2.1,2.01-3.55,2.01Z"/><path class="cls-1" d="M304.55,54.39c-2.3,0-4.1-1.66-4.1-3.77,0-1.45,.89-3.2,3.37-3.76,1.92-.42,8.17-2.28,8.17-8.48,0-3.22-2.03-5.75-5.18-6.75-.34,2.67-1.85,7.04-3.77,10.78-2.11,4.11-5.51,9.02-9.66,9.02s-7.81-4.56-7.81-9.96c0-6.88,5.85-17.05,18.41-17.05,8.87,0,15.56,6.05,15.56,14.08,0,11.75-12.34,15.89-14.99,15.89Zm-5.54-22.09c-3.77,1.86-6.14,5.65-6.14,8.83,0,1.29,.41,2,.68,2.31,1.41-1.15,4.44-6.32,5.46-11.14Z"/><path class="cls-1" d="M346.41,40.99c-.92,0-1.79-.42-2.45-1.18-.49-.58-2.31-1.91-2.97-2.19-1.28-.51-2.1-1.65-2.1-2.96,0-1.82,1.63-3.36,3.57-3.36,1,0,7.48,2.27,7.48,6,0,2-1.61,3.69-3.53,3.69Z"/><path class="cls-1" d="M341.5,55.26c-7.86,0-15.81-5.03-15.81-14.66,0-2.58,.63-4.82,1.4-6.59-.48,.17-.99,.36-1.52,.55-4.11,1.48-5.06,1.48-5.46,1.48-2.3,0-4.1-1.75-4.1-3.98,0-1.89,1.34-3.44,3.33-3.85,8.94-2.02,11.33-2.62,14.4-3.51,7.6-2.18,10.89-2.51,12.18-2.51,2.75,0,4.19,2.02,4.19,4.02,0,1.16-.52,3.85-5.34,3.85h-.82c-1.38,0-3.24,.38-5.23,1.08-2.32,.83-5.71,4.72-5.71,8.91,0,3.34,2.07,7.23,7.89,7.23h.7c3.04,0,4.68,2.05,4.68,3.98s-1.61,3.98-4.68,3.98h-.08Z"/><path class="cls-1" d="M350.37,37.45c-.91,0-1.77-.4-2.41-1.14-.41-.48-2.21-1.73-3.03-2.06-1.32-.49-2.16-1.64-2.16-2.97,0-1.88,1.6-3.4,3.57-3.4,1.46,0,7.52,2.36,7.52,5.92,0,1.98-1.59,3.65-3.48,3.65Z"/><path class="cls-1" d="M3.36,75.75c-.24,0-.48-.03-.7-.08-.22-.05-.42-.11-.61-.19-.17-.07-.33-.16-.49-.25-.04-.02-.07-.04-.1-.07-.19-.13-.35-.27-.5-.41-.61-.61-.97-1.48-.97-2.36,0-.21,.03-.41,.06-.6,.04-.24,.11-.47,.2-.69,.07-.17,.15-.33,.25-.48,.04-.07,.09-.15,.14-.21,.12-.16,.23-.29,.34-.4,.13-.13,.29-.26,.47-.39,.04-.02,.07-.05,.11-.07,.19-.12,.39-.22,.6-.3,.13-.05,.36-.12,.57-.16,.2-.04,.41-.06,.62-.06,.9,0,1.77,.36,2.39,.98,.62,.62,.98,1.49,.98,2.38s-.36,1.75-.99,2.38c-.62,.62-1.49,.98-2.38,.98Z"/><path class="cls-1" d="M152.21,75.75c-1.85,0-3.36-1.51-3.36-3.36s1.51-3.37,3.36-3.37,3.37,1.51,3.37,3.37-1.51,3.36-3.37,3.36Z"/><path class="cls-1" d="M145.12,75.75c-1.85,0-3.36-1.51-3.36-3.36s1.51-3.37,3.36-3.37,3.37,1.51,3.37,3.37-1.51,3.36-3.37,3.36Z"/><path class="cls-1" d="M159.3,75.75c-1.86,0-3.36-1.51-3.36-3.36s1.51-3.37,3.36-3.37,3.36,1.51,3.36,3.37-1.51,3.36-3.36,3.36Z"/><path class="cls-1" d="M237.26,75.75c-1.85,0-3.36-1.51-3.36-3.36s1.51-3.37,3.36-3.37,3.36,1.51,3.36,3.37-1.51,3.36-3.36,3.36Z"/><path class="cls-1" d="M138.04,75.75c-1.86,0-3.37-1.51-3.37-3.36s1.51-3.37,3.37-3.37,3.36,1.51,3.36,3.37-1.51,3.36-3.36,3.36Z"/><path class="cls-1" d="M230.18,75.75c-1.86,0-3.37-1.51-3.37-3.36s1.51-3.37,3.37-3.37,3.36,1.51,3.36,3.37-1.51,3.36-3.36,3.36Z"/><path class="cls-1" d="M116.77,75.75c-1.86,0-3.36-1.51-3.36-3.36s1.51-3.37,3.36-3.37,3.37,1.51,3.37,3.37-1.51,3.36-3.37,3.36Z"/><path class="cls-1" d="M258.53,75.75c-1.86,0-3.37-1.51-3.37-3.36s1.51-3.37,3.37-3.37,3.36,1.51,3.36,3.37-1.51,3.36-3.36,3.36Z"/><path class="cls-1" d="M109.68,75.75c-1.86,0-3.37-1.51-3.37-3.36s1.51-3.37,3.37-3.37,3.36,1.51,3.36,3.37-1.51,3.36-3.36,3.36Z"/><path class="cls-1" d="M123.86,75.75c-1.86,0-3.36-1.51-3.36-3.36s1.51-3.37,3.36-3.37,3.36,1.51,3.36,3.37-1.51,3.36-3.36,3.36Z"/><path class="cls-1" d="M130.95,75.75c-1.86,0-3.36-1.51-3.36-3.36s1.51-3.37,3.36-3.37,3.36,1.51,3.36,3.37-1.51,3.36-3.36,3.36Z"/><path class="cls-1" d="M166.39,75.75c-1.86,0-3.37-1.51-3.37-3.36s1.51-3.37,3.37-3.37,3.36,1.51,3.36,3.37-1.51,3.36-3.36,3.36Z"/><path class="cls-1" d="M194.74,75.75c-1.86,0-3.37-1.51-3.37-3.36s1.51-3.37,3.37-3.37,3.36,1.51,3.36,3.37-1.51,3.36-3.36,3.36Z"/><path class="cls-1" d="M102.59,75.75c-1.85,0-3.36-1.51-3.36-3.36s1.51-3.37,3.36-3.37,3.36,1.51,3.36,3.37-1.51,3.36-3.36,3.36Z"/><path class="cls-1" d="M180.56,75.75c-1.85,0-3.36-1.51-3.36-3.36s1.51-3.37,3.36-3.37,3.36,1.51,3.36,3.37-1.51,3.36-3.36,3.36Z"/><path class="cls-1" d="M244.35,75.75c-1.86,0-3.36-1.51-3.36-3.36s1.51-3.37,3.36-3.37,3.36,1.51,3.36,3.37-1.51,3.36-3.36,3.36Z"/><path class="cls-1" d="M187.65,75.75c-1.86,0-3.36-1.51-3.36-3.36s1.51-3.37,3.36-3.37,3.36,1.51,3.36,3.37-1.51,3.36-3.36,3.36Z"/><path class="cls-1" d="M173.47,75.75c-1.86,0-3.36-1.51-3.36-3.36s1.51-3.37,3.36-3.37,3.37,1.51,3.37,3.37-1.51,3.36-3.37,3.36Z"/><path class="cls-1" d="M251.44,75.75c-1.86,0-3.37-1.51-3.37-3.36s1.51-3.37,3.37-3.37,3.36,1.51,3.36,3.37-1.51,3.36-3.36,3.36Z"/><path class="cls-1" d="M201.82,75.75c-1.85,0-3.36-1.51-3.36-3.36s1.51-3.37,3.36-3.37,3.37,1.51,3.37,3.37-1.51,3.36-3.37,3.36Z"/><path class="cls-1" d="M223.09,75.75c-1.86,0-3.37-1.51-3.37-3.36s1.51-3.37,3.37-3.37,3.36,1.51,3.36,3.37-1.51,3.36-3.36,3.36Z"/><path class="cls-1" d="M216,75.75c-1.86,0-3.36-1.51-3.36-3.36s1.51-3.37,3.36-3.37,3.36,1.51,3.36,3.37-1.51,3.36-3.36,3.36Z"/><path class="cls-1" d="M208.91,75.75c-1.85,0-3.36-1.51-3.36-3.36s1.51-3.37,3.36-3.37,3.37,1.51,3.37,3.37-1.51,3.36-3.37,3.36Z"/><path class="cls-1" d="M45.89,75.75c-1.85,0-3.36-1.51-3.36-3.36s1.51-3.37,3.36-3.37,3.37,1.51,3.37,3.37-1.51,3.36-3.37,3.36Z"/><path class="cls-1" d="M471.15,75.75c-1.85,0-3.36-1.51-3.36-3.36s1.51-3.37,3.36-3.37,3.36,1.51,3.36,3.37-1.51,3.36-3.36,3.36Z"/><path class="cls-1" d="M456.97,75.75c-1.86,0-3.36-1.51-3.36-3.36s1.51-3.37,3.36-3.37,3.37,1.51,3.37,3.37-1.51,3.36-3.37,3.36Z"/><path class="cls-1" d="M17.54,75.75c-1.85,0-3.36-1.51-3.36-3.36s1.51-3.37,3.36-3.37,3.36,1.51,3.36,3.37-1.51,3.36-3.36,3.36Z"/><path class="cls-1" d="M10.45,75.75c-1.86,0-3.36-1.51-3.36-3.36s1.51-3.37,3.36-3.37,3.36,1.51,3.36,3.37-1.51,3.36-3.36,3.36Z"/><path class="cls-1" d="M52.98,75.75c-1.86,0-3.37-1.51-3.37-3.36s1.51-3.37,3.37-3.37,3.36,1.51,3.36,3.37-1.51,3.36-3.36,3.36Z"/><path class="cls-1" d="M386.1,75.75c-1.86,0-3.36-1.51-3.36-3.36s1.51-3.37,3.36-3.37,3.36,1.51,3.36,3.37-1.51,3.36-3.36,3.36Z"/><path class="cls-1" d="M464.06,75.75c-1.86,0-3.36-1.51-3.36-3.36s1.51-3.37,3.36-3.37,3.37,1.51,3.37,3.37-1.51,3.36-3.37,3.36Z"/><path class="cls-1" d="M31.71,75.75c-1.85,0-3.36-1.51-3.36-3.36s1.51-3.37,3.36-3.37,3.37,1.51,3.37,3.37-1.51,3.36-3.37,3.36Z"/><path class="cls-1" d="M38.8,75.75c-1.85,0-3.36-1.51-3.36-3.36s1.51-3.37,3.36-3.37,3.37,1.51,3.37,3.37-1.51,3.36-3.37,3.36Z"/><path class="cls-1" d="M24.63,75.75c-1.86,0-3.37-1.51-3.37-3.36s1.51-3.37,3.37-3.37,3.36,1.51,3.36,3.37-1.51,3.36-3.36,3.36Z"/><path class="cls-1" d="M435.71,75.75c-1.86,0-3.36-1.51-3.36-3.36s1.51-3.37,3.36-3.37,3.37,1.51,3.37,3.37-1.51,3.36-3.37,3.36Z"/><path class="cls-1" d="M421.54,75.75c-1.85,0-3.36-1.51-3.36-3.36s1.51-3.37,3.36-3.37,3.36,1.51,3.36,3.37-1.51,3.36-3.36,3.36Z"/><path class="cls-1" d="M428.62,75.75c-1.86,0-3.36-1.51-3.36-3.36s1.51-3.37,3.36-3.37,3.37,1.51,3.37,3.37-1.51,3.36-3.37,3.36Z"/><path class="cls-1" d="M442.8,75.75c-1.86,0-3.36-1.51-3.36-3.36s1.51-3.37,3.36-3.37,3.36,1.51,3.36,3.37-1.51,3.36-3.36,3.36Z"/><path class="cls-1" d="M407.36,75.75c-1.86,0-3.36-1.51-3.36-3.36s1.51-3.37,3.36-3.37,3.36,1.51,3.36,3.37-1.51,3.36-3.36,3.36Z"/><path class="cls-1" d="M400.27,75.75c-1.86,0-3.36-1.51-3.36-3.36s1.51-3.37,3.36-3.37,3.37,1.51,3.37,3.37-1.51,3.36-3.37,3.36Z"/><path class="cls-1" d="M393.19,75.75c-1.85,0-3.36-1.51-3.36-3.36s1.51-3.37,3.36-3.37,3.36,1.51,3.36,3.37-1.51,3.36-3.36,3.36Z"/><path class="cls-1" d="M414.45,75.75c-1.86,0-3.36-1.51-3.36-3.36s1.51-3.37,3.36-3.37,3.36,1.51,3.36,3.37-1.51,3.36-3.36,3.36Z"/><path class="cls-1" d="M364.84,75.75c-1.85,0-3.36-1.51-3.36-3.36s1.51-3.37,3.36-3.37,3.36,1.51,3.36,3.37-1.51,3.36-3.36,3.36Z"/><path class="cls-1" d="M357.75,75.75c-1.86,0-3.36-1.51-3.36-3.36s1.51-3.37,3.36-3.37,3.36,1.51,3.36,3.37-1.51,3.36-3.36,3.36Z"/><path class="cls-1" d="M499.5,75.75c-1.85,0-3.36-1.51-3.36-3.36s1.51-3.37,3.36-3.37,3.36,1.51,3.36,3.37-1.51,3.36-3.36,3.36Z"/><path class="cls-1" d="M74.24,75.75c-1.85,0-3.36-1.51-3.36-3.36s1.51-3.37,3.36-3.37,3.36,1.51,3.36,3.37-1.51,3.36-3.36,3.36Z"/><path class="cls-1" d="M449.89,75.75c-1.85,0-3.36-1.51-3.36-3.36s1.51-3.37,3.36-3.37,3.36,1.51,3.36,3.37-1.51,3.36-3.36,3.36Z"/><path class="cls-1" d="M81.33,75.75c-1.86,0-3.37-1.51-3.37-3.36s1.51-3.37,3.37-3.37,3.36,1.51,3.36,3.37-1.51,3.36-3.36,3.36Z"/><path class="cls-1" d="M95.5,75.75c-1.85,0-3.36-1.51-3.36-3.36s1.51-3.37,3.36-3.37,3.37,1.51,3.37,3.37-1.51,3.36-3.37,3.36Z"/><path class="cls-1" d="M371.92,75.75c-1.85,0-3.36-1.51-3.36-3.36s1.51-3.37,3.36-3.37,3.36,1.51,3.36,3.37-1.51,3.36-3.36,3.36Z"/><path class="cls-1" d="M88.42,75.75c-1.85,0-3.36-1.51-3.36-3.36s1.51-3.37,3.36-3.37,3.37,1.51,3.37,3.37-1.51,3.36-3.37,3.36Z"/><path class="cls-1" d="M485.32,75.75c-1.86,0-3.36-1.51-3.36-3.36s1.51-3.37,3.36-3.37,3.37,1.51,3.37,3.37-1.51,3.36-3.37,3.36Z"/><path class="cls-1" d="M60.07,75.75c-1.86,0-3.36-1.51-3.36-3.36s1.51-3.37,3.36-3.37,3.37,1.51,3.37,3.37-1.51,3.36-3.37,3.36Z"/><path class="cls-1" d="M478.24,75.75c-1.85,0-3.36-1.51-3.36-3.36s1.51-3.37,3.36-3.37,3.36,1.51,3.36,3.37-1.51,3.36-3.36,3.36Z"/><path class="cls-1" d="M492.41,75.75c-1.86,0-3.36-1.51-3.36-3.36s1.51-3.37,3.36-3.37,3.37,1.51,3.37,3.37-1.51,3.36-3.37,3.36Z"/><path class="cls-1" d="M379.01,75.75c-1.86,0-3.36-1.51-3.36-3.36s1.51-3.37,3.36-3.37,3.36,1.51,3.36,3.37-1.51,3.36-3.36,3.36Z"/><path class="cls-1" d="M67.16,75.75c-1.86,0-3.36-1.51-3.36-3.36s1.51-3.37,3.36-3.37,3.36,1.51,3.36,3.37-1.51,3.36-3.36,3.36Z"/><path class="cls-1" d="M506.59,75.75c-.24,0-.47-.02-.69-.08-.21-.04-.4-.1-.59-.18-.18-.07-.35-.16-.51-.26-.07-.04-.13-.08-.19-.13-.12-.09-.24-.19-.35-.3-.18-.17-.34-.36-.48-.58-.11-.16-.19-.32-.27-.5-.11-.28-.18-.51-.22-.71-.04-.2-.06-.42-.06-.63,0-.22,.02-.43,.06-.63,.04-.21,.11-.43,.18-.62,.13-.29,.22-.47,.35-.65,.07-.1,.21-.31,.43-.51,.62-.6,1.47-.95,2.34-.95,.23,0,.46,.02,.68,.07,.13,.02,.33,.08,.53,.15,.23,.09,.39,.18,.56,.28,.05,.03,.1,.06,.15,.1,.17,.12,.32,.24,.46,.38,.16,.16,.31,.34,.42,.51,.12,.18,.23,.38,.31,.59,.09,.2,.13,.37,.16,.47,.01,.05,.04,.14,.04,.19,.04,.2,.06,.42,.06,.63,0,.2-.02,.42-.06,.62-.01,.06-.02,.12-.04,.17-.03,.12-.08,.3-.17,.49-.08,.2-.17,.38-.29,.56-.12,.18-.26,.35-.43,.53-.15,.15-.3,.28-.48,.4-.04,.03-.09,.06-.13,.09-.18,.11-.35,.2-.51,.26-.14,.06-.35,.13-.58,.17-.21,.05-.44,.07-.68,.07Z"/><path class="cls-1" d="M3.36,163.82c-.2,0-.43-.02-.63-.06-.05,0-.1-.02-.16-.04-.19-.05-.35-.1-.48-.15-.24-.11-.41-.2-.58-.31-.19-.12-.37-.27-.54-.44-.13-.14-.26-.29-.39-.47-.11-.16-.23-.36-.32-.59-.1-.22-.17-.45-.21-.7-.04-.25-.06-.42-.06-.61s.02-.37,.05-.55c.05-.3,.12-.54,.22-.76,.1-.23,.21-.43,.29-.55,.15-.22,.28-.37,.42-.51,.16-.17,.34-.31,.53-.43,.16-.11,.33-.2,.51-.28,.22-.09,.38-.14,.53-.18,.05-.01,.13-.03,.17-.04,.21-.04,.42-.06,.63-.06,.89,0,1.77,.36,2.39,.99,.63,.62,.99,1.49,.99,2.38,0,.24-.02,.46-.07,.68-.05,.24-.12,.46-.22,.68-.04,.11-.16,.32-.27,.5-.16,.23-.29,.38-.43,.52-.62,.62-1.49,.98-2.38,.98Z"/><path class="cls-1" d="M471.15,163.82c-1.85,0-3.36-1.51-3.36-3.36s1.51-3.36,3.36-3.36,3.36,1.51,3.36,3.36-1.51,3.36-3.36,3.36Z"/><path class="cls-1" d="M364.84,163.82c-1.85,0-3.36-1.51-3.36-3.36s1.51-3.36,3.36-3.36,3.36,1.51,3.36,3.36-1.51,3.36-3.36,3.36Z"/><path class="cls-1" d="M464.06,163.82c-1.86,0-3.36-1.51-3.36-3.36s1.51-3.36,3.36-3.36,3.37,1.51,3.37,3.36-1.51,3.36-3.37,3.36Z"/><path class="cls-1" d="M258.53,163.82c-1.86,0-3.37-1.51-3.37-3.36s1.51-3.36,3.37-3.36,3.36,1.51,3.36,3.36-1.51,3.36-3.36,3.36Z"/><path class="cls-1" d="M478.24,163.82c-1.85,0-3.36-1.51-3.36-3.36s1.51-3.36,3.36-3.36,3.36,1.51,3.36,3.36-1.51,3.36-3.36,3.36Z"/><path class="cls-1" d="M272.7,163.82c-1.86,0-3.36-1.51-3.36-3.36s1.51-3.36,3.36-3.36,3.36,1.51,3.36,3.36-1.51,3.36-3.36,3.36Z"/><path class="cls-1" d="M499.5,163.82c-1.85,0-3.36-1.51-3.36-3.36s1.51-3.36,3.36-3.36,3.36,1.51,3.36,3.36-1.51,3.36-3.36,3.36Z"/><path class="cls-1" d="M492.41,163.82c-1.86,0-3.36-1.51-3.36-3.36s1.51-3.36,3.36-3.36,3.37,1.51,3.37,3.36-1.51,3.36-3.37,3.36Z"/><path class="cls-1" d="M265.61,163.82c-1.86,0-3.36-1.51-3.36-3.36s1.51-3.36,3.36-3.36,3.36,1.51,3.36,3.36-1.51,3.36-3.36,3.36Z"/><path class="cls-1" d="M456.97,163.82c-1.86,0-3.36-1.51-3.36-3.36s1.51-3.36,3.36-3.36,3.37,1.51,3.37,3.36-1.51,3.36-3.37,3.36Z"/><path class="cls-1" d="M251.44,163.82c-1.86,0-3.37-1.51-3.37-3.36s1.51-3.36,3.37-3.36,3.36,1.51,3.36,3.36-1.51,3.36-3.36,3.36Z"/><path class="cls-1" d="M485.32,163.82c-1.86,0-3.36-1.51-3.36-3.36s1.51-3.36,3.36-3.36,3.37,1.51,3.37,3.36-1.51,3.36-3.37,3.36Z"/><path class="cls-1" d="M244.35,163.82c-1.86,0-3.36-1.51-3.36-3.36s1.51-3.36,3.36-3.36,3.36,1.51,3.36,3.36-1.51,3.36-3.36,3.36Z"/><path class="cls-1" d="M223.09,163.82c-1.86,0-3.37-1.51-3.37-3.36s1.51-3.36,3.37-3.36,3.36,1.51,3.36,3.36-1.51,3.36-3.36,3.36Z"/><path class="cls-1" d="M74.24,163.82c-1.85,0-3.36-1.51-3.36-3.36s1.51-3.36,3.36-3.36,3.36,1.51,3.36,3.36-1.51,3.36-3.36,3.36Z"/><path class="cls-1" d="M194.74,163.82c-1.86,0-3.37-1.51-3.37-3.36s1.51-3.36,3.37-3.36,3.36,1.51,3.36,3.36-1.51,3.36-3.36,3.36Z"/><path class="cls-1" d="M52.98,163.82c-1.86,0-3.37-1.51-3.37-3.36s1.51-3.36,3.37-3.36,3.36,1.51,3.36,3.36-1.51,3.36-3.36,3.36Z"/><path class="cls-1" d="M67.16,163.82c-1.86,0-3.36-1.51-3.36-3.36s1.51-3.36,3.36-3.36,3.36,1.51,3.36,3.36-1.51,3.36-3.36,3.36Z"/><path class="cls-1" d="M60.07,163.82c-1.86,0-3.36-1.51-3.36-3.36s1.51-3.36,3.36-3.36,3.37,1.51,3.37,3.36-1.51,3.36-3.37,3.36Z"/><path class="cls-1" d="M187.65,163.82c-1.86,0-3.36-1.51-3.36-3.36s1.51-3.36,3.36-3.36,3.36,1.51,3.36,3.36-1.51,3.36-3.36,3.36Z"/><path class="cls-1" d="M371.92,163.82c-1.85,0-3.36-1.51-3.36-3.36s1.51-3.36,3.36-3.36,3.36,1.51,3.36,3.36-1.51,3.36-3.36,3.36Z"/><path class="cls-1" d="M201.82,163.82c-1.85,0-3.36-1.51-3.36-3.36s1.51-3.36,3.36-3.36,3.37,1.51,3.37,3.36-1.51,3.36-3.37,3.36Z"/><path class="cls-1" d="M216,163.82c-1.86,0-3.36-1.51-3.36-3.36s1.51-3.36,3.36-3.36,3.36,1.51,3.36,3.36-1.51,3.36-3.36,3.36Z"/><path class="cls-1" d="M116.77,163.82c-1.86,0-3.36-1.51-3.36-3.36s1.51-3.36,3.36-3.36,3.37,1.51,3.37,3.36-1.51,3.36-3.37,3.36Z"/><path class="cls-1" d="M208.91,163.82c-1.85,0-3.36-1.51-3.36-3.36s1.51-3.36,3.36-3.36,3.37,1.51,3.37,3.36-1.51,3.36-3.37,3.36Z"/><path class="cls-1" d="M17.54,163.82c-1.85,0-3.36-1.51-3.36-3.36s1.51-3.36,3.36-3.36,3.36,1.51,3.36,3.36-1.51,3.36-3.36,3.36Z"/><path class="cls-1" d="M95.5,163.82c-1.85,0-3.36-1.51-3.36-3.36s1.51-3.36,3.36-3.36,3.37,1.51,3.37,3.36-1.51,3.36-3.37,3.36Z"/><path class="cls-1" d="M81.33,163.82c-1.86,0-3.37-1.51-3.37-3.36s1.51-3.36,3.37-3.36,3.36,1.51,3.36,3.36-1.51,3.36-3.36,3.36Z"/><path class="cls-1" d="M88.42,163.82c-1.85,0-3.36-1.51-3.36-3.36s1.51-3.36,3.36-3.36,3.37,1.51,3.37,3.36-1.51,3.36-3.37,3.36Z"/><path class="cls-1" d="M102.59,163.82c-1.85,0-3.36-1.51-3.36-3.36s1.51-3.36,3.36-3.36,3.36,1.51,3.36,3.36-1.51,3.36-3.36,3.36Z"/><path class="cls-1" d="M45.89,163.82c-1.85,0-3.36-1.51-3.36-3.36s1.51-3.36,3.36-3.36,3.37,1.51,3.37,3.36-1.51,3.36-3.37,3.36Z"/><path class="cls-1" d="M109.68,163.82c-1.86,0-3.37-1.51-3.37-3.36s1.51-3.36,3.37-3.36,3.36,1.51,3.36,3.36-1.51,3.36-3.36,3.36Z"/><path class="cls-1" d="M38.8,163.82c-1.85,0-3.36-1.51-3.36-3.36s1.51-3.36,3.36-3.36,3.37,1.51,3.37,3.36-1.51,3.36-3.37,3.36Z"/><path class="cls-1" d="M24.63,163.82c-1.86,0-3.37-1.51-3.37-3.36s1.51-3.36,3.37-3.36,3.36,1.51,3.36,3.36-1.51,3.36-3.36,3.36Z"/><path class="cls-1" d="M449.89,163.82c-1.85,0-3.36-1.51-3.36-3.36s1.51-3.36,3.36-3.36,3.36,1.51,3.36,3.36-1.51,3.36-3.36,3.36Z"/><path class="cls-1" d="M379.01,163.82c-1.86,0-3.36-1.51-3.36-3.36s1.51-3.36,3.36-3.36,3.36,1.51,3.36,3.36-1.51,3.36-3.36,3.36Z"/><path class="cls-1" d="M31.71,163.82c-1.85,0-3.36-1.51-3.36-3.36s1.51-3.36,3.36-3.36,3.37,1.51,3.37,3.36-1.51,3.36-3.37,3.36Z"/><path class="cls-1" d="M10.45,163.82c-1.86,0-3.36-1.51-3.36-3.36s1.51-3.36,3.36-3.36,3.36,1.51,3.36,3.36-1.51,3.36-3.36,3.36Z"/><path class="cls-1" d="M173.47,163.82c-1.86,0-3.36-1.51-3.36-3.36s1.51-3.36,3.36-3.36,3.37,1.51,3.37,3.36-1.51,3.36-3.37,3.36Z"/><path class="cls-1" d="M421.54,163.82c-1.85,0-3.36-1.51-3.36-3.36s1.51-3.36,3.36-3.36,3.36,1.51,3.36,3.36-1.51,3.36-3.36,3.36Z"/><path class="cls-1" d="M400.27,163.82c-1.86,0-3.36-1.51-3.36-3.36s1.51-3.36,3.36-3.36,3.37,1.51,3.37,3.36-1.51,3.36-3.37,3.36Z"/><path class="cls-1" d="M386.1,163.82c-1.86,0-3.36-1.51-3.36-3.36s1.51-3.36,3.36-3.36,3.36,1.51,3.36,3.36-1.51,3.36-3.36,3.36Z"/><path class="cls-1" d="M393.19,163.82c-1.85,0-3.36-1.51-3.36-3.36s1.51-3.36,3.36-3.36,3.36,1.51,3.36,3.36-1.51,3.36-3.36,3.36Z"/><path class="cls-1" d="M166.39,163.82c-1.86,0-3.37-1.51-3.37-3.36s1.51-3.36,3.37-3.36,3.36,1.51,3.36,3.36-1.51,3.36-3.36,3.36Z"/><path class="cls-1" d="M407.36,163.82c-1.86,0-3.36-1.51-3.36-3.36s1.51-3.36,3.36-3.36,3.36,1.51,3.36,3.36-1.51,3.36-3.36,3.36Z"/><path class="cls-1" d="M442.8,163.82c-1.86,0-3.36-1.51-3.36-3.36s1.51-3.36,3.36-3.36,3.36,1.51,3.36,3.36-1.51,3.36-3.36,3.36Z"/><path class="cls-1" d="M428.62,163.82c-1.86,0-3.36-1.51-3.36-3.36s1.51-3.36,3.36-3.36,3.37,1.51,3.37,3.36-1.51,3.36-3.37,3.36Z"/><path class="cls-1" d="M435.71,163.82c-1.86,0-3.36-1.51-3.36-3.36s1.51-3.36,3.36-3.36,3.37,1.51,3.37,3.36-1.51,3.36-3.37,3.36Z"/><path class="cls-1" d="M237.26,163.82c-1.85,0-3.36-1.51-3.36-3.36s1.51-3.36,3.36-3.36,3.36,1.51,3.36,3.36-1.51,3.36-3.36,3.36Z"/><path class="cls-1" d="M230.18,163.82c-1.86,0-3.37-1.51-3.37-3.36s1.51-3.36,3.37-3.36,3.36,1.51,3.36,3.36-1.51,3.36-3.36,3.36Z"/><path class="cls-1" d="M414.45,163.82c-1.86,0-3.36-1.51-3.36-3.36s1.51-3.36,3.36-3.36,3.36,1.51,3.36,3.36-1.51,3.36-3.36,3.36Z"/><path class="cls-1" d="M152.21,163.82c-1.85,0-3.36-1.51-3.36-3.36s1.51-3.36,3.36-3.36,3.37,1.51,3.37,3.36-1.51,3.36-3.37,3.36Z"/><path class="cls-1" d="M145.12,163.82c-1.85,0-3.36-1.51-3.36-3.36s1.51-3.36,3.36-3.36,3.37,1.51,3.37,3.36-1.51,3.36-3.37,3.36Z"/><path class="cls-1" d="M138.04,163.82c-1.86,0-3.37-1.51-3.37-3.36s1.51-3.36,3.37-3.36,3.36,1.51,3.36,3.36-1.51,3.36-3.36,3.36Z"/><path class="cls-1" d="M159.3,163.82c-1.86,0-3.36-1.51-3.36-3.36s1.51-3.36,3.36-3.36,3.36,1.51,3.36,3.36-1.51,3.36-3.36,3.36Z"/><path class="cls-1" d="M180.56,163.82c-1.85,0-3.36-1.51-3.36-3.36s1.51-3.36,3.36-3.36,3.36,1.51,3.36,3.36-1.51,3.36-3.36,3.36Z"/><path class="cls-1" d="M123.86,163.82c-1.86,0-3.36-1.51-3.36-3.36s1.51-3.36,3.36-3.36,3.36,1.51,3.36,3.36-1.51,3.36-3.36,3.36Z"/><path class="cls-1" d="M130.95,163.82c-1.86,0-3.36-1.51-3.36-3.36s1.51-3.36,3.36-3.36,3.36,1.51,3.36,3.36-1.51,3.36-3.36,3.36Z"/><path class="cls-1" d="M506.59,163.82c-.88,0-1.75-.36-2.38-.99-.12-.11-.28-.3-.42-.51-.12-.18-.21-.35-.25-.44-.03-.07-.08-.16-.1-.23-.07-.2-.13-.38-.16-.56-.04-.24-.06-.43-.06-.63,0-.88,.36-1.75,.98-2.38,.61-.62,1.49-.99,2.39-.99,.21,0,.43,.02,.64,.06,.17,.03,.37,.09,.56,.16,.07,.03,.14,.06,.21,.09,.14,.07,.28,.15,.42,.24,.22,.14,.43,.31,.6,.5,.56,.56,.92,1.42,.92,2.31s-.36,1.75-.98,2.38c-.12,.12-.3,.28-.54,.44-.15,.1-.29,.17-.43,.25-.06,.03-.13,.06-.19,.08-.15,.06-.31,.1-.47,.14-.04,0-.08,.02-.11,.02-.2,.04-.42,.06-.63,.06Z"/><path class="cls-1" d="M284.55,168.78c-1.35,0-2.53-.84-3-2.06-1.03-.4-1.8-1.3-2-2.43l-3.2-18.14c-.47,.26-1.01,.41-1.58,.41-.78,0-1.53-.28-2.12-.8l-8.33-7.33c-.25-.22-.47-.49-.64-.78l-1.19-1.05c-.96-.85-1.33-2.18-.93-3.4l5.28-16.23-2.32,.41c-.19,.03-.38,.05-.56,.05-.86,0-1.66-.34-2.27-.94-.32-.32-.56-.69-.72-1.1-.41-.16-.79-.41-1.11-.73-.61-.61-.94-1.42-.94-2.27l.03-13c0-1.77,1.45-3.21,3.22-3.21,.71,0,1.38,.23,1.95,.66l1.36,1.04,2.26-.64-2.48-14.06-.42-.28c-.53-.35-.92-.83-1.16-1.39l-.67-.45c-1.06-.71-1.6-1.93-1.39-3.19s1.1-2.25,2.34-2.58l14.34-3.84c.27-.07,.55-.11,.83-.11,1.35,0,2.52,.83,2.99,2.05,1.02,.4,1.8,1.3,2,2.44l2.97,16.87,2.03-.42c.22-.04,.44-.07,.66-.07,1.32,0,2.52,.82,2.99,2.05,.85,.33,1.54,1.02,1.86,1.91l3.14,8.75,5.24-1.99c.37-.14,.75-.21,1.14-.21,1.24,0,2.34,.71,2.87,1.77l7.39-1.81c.25-.06,.51-.09,.77-.09,1.35,0,2.52,.83,2.99,2.05,1.02,.4,1.8,1.3,2,2.44l5.07,28.76c.15,.84-.04,1.7-.53,2.4s-1.23,1.17-2.07,1.32l-7.62,1.34c-.02,.71-.28,1.4-.75,1.95-.61,.73-1.51,1.15-2.46,1.15-.04,0-.17,0-.21,0l-7-.46c-1.27-.08-2.34-.89-2.78-2.04-1.03-.4-1.8-1.31-2-2.44l-1.17-6.63c-.57,.96-1.62,1.59-2.77,1.59h0c-.4,0-.8-.08-1.18-.22l-.37-.15,4.71,26.71c.23,.36,.36,.79,.36,1.24,0,.17-.02,.33-.05,.49l.48,2.72c.16,.92-.09,1.87-.68,2.6-.6,.73-1.48,1.15-2.42,1.17,0,0-12.14,.23-12.15,.23Zm9.71-53.95l1.18-.49-.16-.89c-.38-.33-.68-.74-.87-1.2l-.18-.11-3.6,.64,.06,.33,3.57,1.73Z"/><path class="cls-1" d="M306.4,164.86c-.86,0-1.67-.34-2.27-.95-.32-.32-.56-.69-.72-1.1-.41-.16-.79-.41-1.11-.73-.61-.61-.94-1.42-.93-2.28l.08-12.86c0-1.76,1.45-3.19,3.21-3.19,.64,0,1.27,.19,1.8,.56l2.12,1.45c3.24-.78,7.55-1.75,12.72-2.86h0c-.82-.33-1.49-.97-1.82-1.81-.49-1.22-.19-2.6,.76-3.52l1.82-1.74-5.16-29.26-7.59-.36c-.92-.04-1.78-.48-2.36-1.21-.2-.26-.37-.54-.48-.84-.52-.2-.99-.54-1.35-.99-.58-.72-.81-1.66-.65-2.57l1.69-9.41-11.82,2.08c-.19,.03-.38,.05-.56,.05-1.36,0-2.52-.85-2.99-2.05-1.19-.47-2.05-1.63-2.05-2.99l-.04-13.69c0-.86,.33-1.67,.93-2.27,.6-.6,1.43-.95,2.28-.95,.63,0,1.24,.19,1.77,.54l2.1,1.39c11.59-2.85,38.53-8.35,47.96-10.06,.19-.04,.38-.05,.57-.05,1.28,0,2.44,.76,2.95,1.95l.04,.1c.79,.31,1.44,.92,1.79,1.73l5.04,11.76c.39,.91,.34,1.92-.13,2.79-.47,.87-1.3,1.46-2.27,1.63l-21.39,3.77c.53,.27,.98,.68,1.29,1.19,.58-.89,1.58-1.48,2.7-1.48,.66,0,1.29,.2,1.84,.58l1.49,1.05c3.7-1.13,8.01-2.18,13.61-3.47,.23-.05,.48-.08,.72-.08,1.35,0,2.53,.83,3,2.05,1.03,.4,1.81,1.31,2,2.46,1.65,9.78,2.22,18.13,1.76,26.11l.58-.23c.38-.15,.77-.22,1.17-.22,1.02,0,2,.5,2.6,1.34,.16,.23,.29,.47,.39,.72,.57,.22,1.07,.61,1.44,1.12,.61,.84,.77,1.89,.44,2.88l-3.92,11.85c-.44,1.32-1.66,2.2-3.05,2.2-.65,0-1.27-.19-1.81-.56l-1.25-.85c-.26,.83-.55,1.67-.86,2.54,1.45-.28,2.87-.56,4.22-.82,.2-.04,.4-.06,.6-.06,1.26,0,2.41,.75,2.93,1.9l.07,.15c.77,.3,1.42,.9,1.77,1.68l4.84,10.85c.41,.91,.37,1.93-.1,2.81s-1.3,1.48-2.28,1.66l-59.59,10.51c-.19,.03-.38,.05-.56,.05Zm35.87-26.31c.97-.19,1.94-.39,2.91-.58l-3.39-2.15,.48,2.73Zm-5.45-30.92l.41-.67-.51,.09,.1,.58Z"/><path class="cls-1" d="M390.47,242.16c-.5,0-.99-.11-1.44-.33-2.61-1.25-9-3.71-22.51-6.09-9.31-1.64-12.31-1.92-14.72-2.14-1.06-.1-2.07-.19-3.43-.38-.94-.13-1.85-.87-2.08-1.88-1.06-.27-2.02-1.3-1.86-2.57,.04-.35,.16-1.26,1.95-2.78,14.14-14.48,25.94-27.06,27.24-34.44,.21-1.21,.03-2.45-.51-3.47-.32-.16-.65-.26-.99-.32-.22-.04-.44-.06-.67-.06-2.92,0-5.68,3.31-6.73,4.74-.63,.85-1.6,1.34-2.66,1.34s-2.01-.47-2.66-1.3c-.25-.31-.49-.62-.74-.92-.42-.22-.79-.53-1.1-.91-1.67-2.14-3.5-4.21-5.56-6.34-.59-.58-1.19-1.14-1.74-1.65-.19-.17-.33-.36-.44-.51-.49-.47-.96-.92-1.4-1.32-1.33-1.23-1.43-3.32-.22-4.67,3.02-3.36,11.45-11.19,24.46-11.19,1.9,0,3.84,.17,5.78,.51,5.84,1.03,11.02,3.81,14.6,7.83,5.6,4.98,7.96,11.87,6.63,19.41-1.58,8.95-8.34,18.18-12.87,23.54,2.06,.25,3.97,.41,5.16,.5,1.01,.07,1.92,.59,2.5,1.41,.15,.21,.27,.43,.36,.66,.59,.24,1.1,.64,1.47,1.17,.58,.82,.75,1.85,.47,2.82-.9,3.17-1.69,6.65-2.34,10.34-.19,1.09-.42,3.19-.64,5.92-.14,1.72-1.6,3.08-3.32,3.08h0Z"/><path class="cls-1" d="M405.54,189.84c-1.1-.02-1.97-.93-1.96-2.03v-.13c0-.49-.06-1.02-.18-1.54-.25-1.08,.43-2.15,1.5-2.4l16.63-3.8c.15-.03,.3-.05,.45-.05,.37,0,.74,.1,1.06,.31,.45,.28,.77,.73,.89,1.25,.47,2.05,.71,4.16,.71,6.27,0,.18,0,.36,0,.54-.03,1.09-.92,1.95-2,1.95-.01,0-17.1-.37-17.1-.37Z"/><path class="cls-1" d="M402.54,182.94c-.49,0-.96-.18-1.33-.5-.42-.37-.89-.69-1.4-.96-.47-.25-.82-.67-.98-1.17-.16-.51-.11-1.05,.13-1.53l7.88-15.13c.25-.47,.67-.82,1.17-.98,.2-.06,.4-.09,.6-.09,.32,0,.64,.08,.92,.23,2.02,1.05,3.91,2.35,5.61,3.85,.4,.35,.64,.85,.67,1.38,.03,.53-.15,1.05-.5,1.45l-11.29,12.79c-.35,.4-.85,.64-1.38,.67-.04,0-.08,0-.12,0Z"/></g><g><circle class="cls-2" cx="297.03" cy="161.58" r=".35"/><path class="cls-2" d="M117.71,226.8l4.36-11.04-1.1-2.29c-.36-.74,.29-1.58,1.1-1.42l11.03,2.16c.58,.11,.94,.71,.77,1.28l-4.86,15.89c-.17,.57-.8,.86-1.34,.63l-9.4-3.91c-.5-.21-.75-.79-.55-1.29Zm41.09-20.16l6.13,5.82,2.1,.12c.82,.05,1.24,1.01,.71,1.64l-6.04,7.23c-.35,.42-.97,.48-1.4,.14l-9.64-7.77c-.48-.39-.5-1.11-.04-1.53l6.28-5.66h-19.51v1.11c0,.62-.55,1.09-1.16,.99l-10.57-1.65c-.49-.08-.85-.5-.85-1l.31-35.16-1.9-1.77c-.63-.59-.27-1.65,.59-1.73l12.48-1.12c.59-.05,1.09,.41,1.09,1v.71c12.15-.76,29.49-1.23,40.85-1.26,.55,0,1,.44,1,.99l.3,37.87c0,.56-.45,1.01-1,1.01h-19.75Zm11.88,16.99l-1.68,11.31c-.07,.5-.51,.87-1.02,.86-10.5-.27-20.47-1.41-30.9-3.96-.45-.11-.77-.52-.77-.98v-16.75s-2.07-1.93-2.07-1.93c-.63-.59-.27-1.65,.59-1.73l12.96-1.19c.59-.05,1.09,.41,1.09,1v12.04c6.29,.94,12.03,1.42,18.4,1.49l1.89-1.49-2.12-1.84c-.46-.4-.46-1.11,0-1.51l7.28-6.32c.41-.35,1.02-.32,1.39,.07l6.97,7.47,2.34,.13c.82,.04,1.24,1.01,.72,1.64l-6.56,7.89c-.36,.44-1.01,.49-1.44,.11l-7.09-6.31Zm-24.62-46.33h-8.65v5.58h8.65v-5.58Zm0,14.31h-8.65v5.9h8.65v-5.9Zm20.92-14.31h-8.65v5.58h8.65v-5.58Zm0,14.31h-8.65v5.9h8.65v-5.9Z"/><path class="cls-2" d="M269.26,219.32c-1.93-1.03-4.06-1.94-6.26-2.84-.65,7.48-6.13,12.19-13.16,12.19-8.06,0-15.03-3.93-15.03-12.64s7.22-12.64,14.77-12.64h1.74v-3.35h-14.15c-.62,0-1.1-.56-.99-1.18l1.56-8.75c.15-.82,1.17-1.11,1.73-.5l1.34,1.47,10.51-.45v-4.19h-14.86c-.62,0-1.1-.56-.99-1.18l1.56-8.79c.15-.82,1.18-1.12,1.73-.49l1.33,1.49,11.22-.52v-.77l-1.69-1.56c-.64-.59-.28-1.66,.59-1.74l11.62-1.05c.59-.05,1.09,.41,1.09,1v3.8l9.24-.12c.48,0,.89,.33,.99,.79l1.7,7.92c.13,.62-.34,1.21-.98,1.21h-10.95v3.87l8.47-.18c.48,0,.9,.32,1,.79l1.75,7.91c.14,.63-.34,1.22-.98,1.22h-10.23v5.29c4.54,1.43,9.69,3.53,13.5,5.47,.49,.25,.69,.85,.45,1.34l-4.86,9.76c-.39,.78-1.53,.73-1.84-.09l-.93-2.49Zm-17.54-5.42c-.71-.19-2-.39-2.71-.39-2.71,0-3.29,1.23-3.29,2.45,0,1.16,.84,2.13,2.77,2.13,1.23,0,3.22-1.16,3.22-3.1v-1.1Z"/><path class="cls-2" d="M304.31,228.01l2.75-.85c2.12-1.97,4.4-4.88,5.66-8.1-1.97,1.89-4.72,3.07-8.42,3.07-9.75,0-15.26-6.45-15.26-15.42,0-9.52,7.79-15.89,16.83-16.52v-2.52h-26.49c-.62,0-1.09-.56-.99-1.18l2.1-12.01c.15-.83,1.19-1.12,1.74-.49l1.85,2.11,21.79-.71v-3.93l-2.44-2.26c-.64-.59-.28-1.65,.58-1.73l14.6-1.41c.59-.06,1.1,.41,1.1,1v8.1l18.68-.23c.48,0,.9,.33,.99,.8l2.19,10.73c.13,.62-.35,1.2-.98,1.2h-20.87v8.34c4.4,4.09,6.29,9.99,6.29,18.64,0,7.36-3.8,15-8.3,21.18-.29,.4-.83,.52-1.27,.3l-12.3-6.27c-.8-.41-.7-1.59,.16-1.85Zm-3.39-21.14c0,2.04,1.18,3.15,2.6,3.15,2.04,0,3.38-1.73,3.46-7.24-4.09,.16-6.06,2.2-6.06,4.09Z"/><path class="cls-2" d="M57.25,64.61l2.45-1.68v-3.97h-4.68v6.64c0,.61-.55,1.08-1.15,.99l-8.21-1.25c-.49-.07-.85-.5-.85-.99v-5.38h-3.97v7.55c0,.62-.55,1.09-1.17,.99l-7.92-1.3c-.49-.08-.84-.5-.84-1l.28-28.3-1.99-1.63c-.7,10.93-2.14,21.12-5.35,29.34-.1,.26-.39,.38-.65,.28l-10.37-3.99c-.81-.31-.87-1.43-.1-1.83l1.85-.96c1.21-3.55,2.13-7.59,2.77-11.92l-5.02,2.92c-.56,.32-1.27,.05-1.46-.57l-2.53-8.11c-.23-.73,.41-1.43,1.15-1.28l1.54,.31,7.38-4.54,.21-3.26-8.15-2.12c-.49-.13-.81-.6-.74-1.11l.89-6.47c.07-.53,.55-.91,1.08-.86l7.14,.63,.07-4.47h-2.02c-.31,0-.55-.29-.49-.59l1.66-8.73c.15-.8,1.14-1.09,1.7-.51l1.57,1.6,17.45-.64v-2.06l-1.63-1.52c-.63-.59-.27-1.65,.59-1.73l11.58-1.05c.59-.05,1.09,.41,1.09,1v5.08l19.76-.2c.47,0,.89,.32,.99,.79l1.62,7.35c.14,.63-.34,1.22-.98,1.22H35.22l2.2,2.34c7.03-.61,19.16-.64,27.34-.64,.63,0,1.09,.58,.96,1.2-.92,4.53-2.99,9.18-5.53,12.57l8.71-.13c.56,0,1.01,.44,1.02,.99l.27,33.58c0,.62-.54,1.09-1.15,1l-11.37-1.72c-.9-.14-1.17-1.3-.42-1.82Zm-5.57-37.73h-18c-.31,0-.55-.28-.49-.58l1.53-9.07h-4.97c-.07,5.68-.21,11.28-.5,16.67l9.44-.85-1.07-2.9c-.22-.59,.16-1.24,.78-1.34l7.73-1.25c.43-.07,.85,.14,1.05,.53l2.08,4.04,2.41-5.25Zm-6.88,13.41h-3.97v2.91h3.97v-2.91Zm0,9.22h-3.97v3.12h3.97v-3.12Zm14.9-9.22h-4.68v2.91h4.68v-2.91Zm0,9.22h-4.68v3.12h4.68v-3.12Z"/><path class="cls-2" d="M85.73,59.54c-.47,.34-1.13,.21-1.44-.27-7.02-11.2-8.86-23.63-8.86-36.71,0-2.19,.05-4.38,.14-6.54,.02-.59,.55-1.02,1.13-.95l11,1.39c.86,.11,1.19,1.18,.53,1.75l-1.62,1.4-.06,2.12c0,9.5,1.25,18.99,5.37,27.61l4.45,.35c.93,.07,1.27,1.27,.51,1.81l-11.16,8.03Zm28.05-14.34l.79-1.74c-1.52-5.76-4.42-11.72-7.82-16.63-.31-.44-.21-1.05,.22-1.37l7.13-5.37c.46-.34,1.1-.24,1.43,.23,4.05,5.78,8.45,14.74,10.09,21.47,.12,.49-.16,.99-.64,1.17l-9.94,3.6c-.83,.3-1.62-.55-1.26-1.36Z"/><path class="cls-2" d="M194.22,226.9c-.47,.34-1.13,.21-1.44-.27-7.02-11.2-8.86-23.63-8.86-36.71,0-2.19,.05-4.38,.14-6.54,.02-.59,.55-1.02,1.13-.95l11,1.39c.86,.11,1.19,1.18,.53,1.75l-1.62,1.4-.06,2.12c0,9.5,1.25,18.99,5.37,27.61l4.45,.35c.93,.07,1.27,1.27,.51,1.81l-11.16,8.03Zm28.05-14.34l.79-1.74c-1.52-5.76-4.42-11.72-7.82-16.63-.31-.44-.21-1.05,.22-1.37l7.13-5.37c.46-.34,1.1-.24,1.43,.23,4.05,5.78,8.45,14.74,10.09,21.47,.12,.49-.16,.99-.64,1.17l-9.94,3.6c-.83,.3-1.62-.55-1.26-1.36Z"/><path class="cls-2" d="M195.52,58.96l2.04-.57c1.42-2.41,2.77-4.97,3.9-7.66-2.32-1.19-4.64-2.51-7.25-4.12-.34-.21-.52-.6-.47-.99l2.4-18.02h-3.2c-.62,0-1.1-.56-.99-1.18l1.56-8.86c.15-.82,1.17-1.12,1.73-.5l1.25,1.39,.92-.14,1.49-11.42-1.28-1.55c-.55-.67-.06-1.67,.81-1.64l9.31,.31c.59,.02,1.03,.54,.96,1.13l-1.57,12.61,7.4-.31c.57-.02,1.05,.44,1.05,1.01-.03,11.04-.47,19.4-1.91,26.76l.64,.14,1.47-.44c.78-.23,1.5,.51,1.24,1.28l-2.89,8.5c-.18,.52-.74,.8-1.26,.63-.67-.22-1.34-.43-1.97-.67-1.32,3.44-2.95,6.81-5.12,10.36-.27,.44-.84,.61-1.31,.37l-9.12-4.54c-.82-.41-.71-1.61,.17-1.86Zm9.49-16.82c.99-4.47,1.56-9.44,1.84-14.55h-2.06l-1.85,13.55,2.06,.99Zm40.59,14.12v10.57c0,.63-.57,1.1-1.19,.99l-6.79-1.26c-.48-.09-.82-.5-.82-.99v-19.46h-2.48v21.5l-8.8-1.63v-9.65l-4.56,4.44c-.44,.43-1.16,.36-1.51-.13l-4.4-6.13c-.3-.42-.24-.99,.14-1.33l7.85-7.06h-4.44c-.64,0-1.11-.59-.98-1.21l1.11-5.14c.17-.79,1.16-1.07,1.71-.47l.54,.58,4.54-.28v-3.34h-8.07c-.63,0-1.11-.58-.98-1.2l1.09-5.51c.16-.79,1.14-1.08,1.71-.5l.58,.61,5.68-.28v-3.34h-7c-.64,0-1.11-.58-.98-1.21l1.06-5.12c.17-.8,1.16-1.08,1.72-.48l.52,.56,4.68-.21v-3.19h-9.44c-.63,0-1.1-.57-.99-1.19l1.12-6.01c.15-.81,1.16-1.1,1.72-.5l.49,.53,4.4-.21-.58-4.59c-.07-.56,.33-1.06,.89-1.12l7.69-.8c.47-.05,.91,.23,1.06,.68l1.8,5.41,4.75-.07,.99-2.98-.97-1.64c-.43-.73,.18-1.63,1.02-1.5l9.84,1.56c.56,.09,.94,.63,.83,1.19l-.64,3.16,6.48-.13c.48,0,.9,.33,1,.8l1.28,6.21c.13,.62-.35,1.21-.98,1.21h-11.68v2.55l8.78-.19c.56-.01,1.02,.43,1.02,.99l.13,9.14h.91c.46,0,.87,.32,.97,.77l1.29,5.37c.15,.63-.33,1.24-.97,1.24h-2.13l.06,8.85c0,.56-.45,1.01-1,1.01h-9.07v4.68l4.1-2.59c.42-.26,.96-.19,1.29,.18l4.76,5.39,1.56,.03c.86,.02,1.3,1.04,.72,1.68l-5.36,5.92c-.37,.41-1.01,.44-1.42,.06l-5.64-5.2Zm-8.8-39.88h-2.48v2.84l2.48-.07v-2.77Zm0,9.65h-2.48v2.91h2.48v-2.91Zm0,10.22h-2.48v2.84l2.48-.07v-2.77Zm11.21-10.22h-2.41v2.91h2.41v-2.91Zm0,10.22h-2.41v2.55h2.41v-2.55Z"/><g><g class="cls-5"><path class="cls-3" d="M23.01,139.24v14.68c0,.63-.57,1.1-1.19,.98l-9.5-1.85c-.47-.09-.81-.5-.81-.98v-56.62h-2.03c-.63,0-1.1-.57-.99-1.18l2.22-12.06c.15-.83,1.2-1.11,1.75-.47l2.03,2.37c6.87-.64,12.89-1.2,22.3-1.24,.57,0,1.03,.47,1.01,1.04-.35,12.11-1.21,19.24-3.94,28.18,3.48,4.88,4.39,9.93,4.39,15.81,0,4.83-.66,9.51-2.32,14.18-.18,.5-.72,.77-1.23,.62l-11.68-3.46Zm3.23-43.79h-3.23v14.4l1.49-.66,1.74-13.74Zm-1.32,40.98c.75-2.65,1.16-5.38,1.16-8.2,0-4.3-.75-8.94-3.06-13.16v22.19l1.9-.83Zm36.35,13.24l2.97-1.9c1.82-6.87,2.32-15.48,2.48-25.25h-9.19l-1.03,31.8c-.02,.6-.55,1.04-1.14,.96l-15.42-2.14c-.91-.13-1.19-1.31-.42-1.83l3.37-2.26,1.39-45.75h-5.67c-.63,0-1.1-.57-.99-1.18l2.22-12.01c.15-.82,1.19-1.11,1.74-.48l2.03,2.33,10.43-.5v-6.62l-2.66-2.45c-.64-.59-.28-1.65,.58-1.73l14.88-1.42c.59-.06,1.1,.41,1.1,1v10.73l13.91-.23c.48,0,.9,.32,1,.79l2.29,10.56c.14,.62-.34,1.22-.98,1.22h-26.65v7.62c7.1-.39,15.02-.64,21.76-.66,.55,0,1,.45,1,1v10.25c0,10.99-.84,23.89-2.53,32.3-.11,.54-.64,.89-1.19,.78l-14.98-3.11c-.88-.18-1.09-1.34-.34-1.83Z"/></g><path class="cls-2" d="M21.33,137.55v14.68c0,.63-.57,1.1-1.19,.98l-9.5-1.85c-.47-.09-.81-.5-.81-.98v-56.62h-2.03c-.63,0-1.1-.57-.99-1.18l2.22-12.06c.15-.83,1.2-1.11,1.75-.47l2.03,2.37c6.87-.64,12.89-1.2,22.3-1.24,.57,0,1.03,.47,1.01,1.04-.35,12.11-1.21,19.24-3.94,28.18,3.48,4.88,4.39,9.93,4.39,15.81,0,4.83-.66,9.51-2.32,14.18-.18,.5-.72,.77-1.23,.62l-11.68-3.46Zm3.23-43.79h-3.23v14.4l1.49-.66,1.74-13.74Zm-1.32,40.98c.75-2.65,1.16-5.38,1.16-8.2,0-4.3-.75-8.94-3.06-13.16v22.19l1.9-.83Zm36.35,13.24l2.97-1.9c1.82-6.87,2.32-15.48,2.48-25.25h-9.19l-1.03,31.8c-.02,.6-.55,1.04-1.14,.96l-15.42-2.14c-.91-.13-1.19-1.31-.42-1.83l3.37-2.26,1.39-45.75h-5.67c-.63,0-1.1-.57-.99-1.18l2.22-12.01c.15-.82,1.19-1.11,1.74-.48l2.03,2.33,10.43-.5v-6.62l-2.66-2.45c-.64-.59-.28-1.65,.58-1.73l14.88-1.42c.59-.06,1.1,.41,1.1,1v10.73l13.91-.23c.48,0,.9,.32,1,.79l2.29,10.56c.14,.62-.34,1.22-.98,1.22h-26.65v7.62c7.1-.39,15.02-.64,21.76-.66,.55,0,1,.45,1,1v10.25c0,10.99-.84,23.89-2.53,32.3-.11,.54-.64,.89-1.19,.78l-14.98-3.11c-.88-.18-1.09-1.34-.34-1.83Z"/></g><g><g class="cls-5"><path class="cls-3" d="M94.68,153.12c-.48-.08-.84-.5-.84-.99v-26.3l-.4,.4c-.44,.44-1.17,.38-1.53-.13l-5.92-8.4c-.29-.41-.23-.97,.14-1.31,3.84-3.5,7.71-7.5,10.6-11.41l-.83-4.14-1.64,1.49c-.47,.43-1.22,.31-1.54-.24l-5.64-9.82c-.25-.44-.13-1.01,.28-1.31l9.37-6.84,.2-3.25c.05-.85,1.07-1.25,1.69-.67l9.31,8.72c.43,.4,.42,1.09-.02,1.49l-11.34,9.95,11.9,7.06c.5,.3,.64,.96,.31,1.44-2.81,3.97-5.36,7.19-7.98,10.04l3.83-.51c.6-.08,1.14,.39,1.14,.99v34.43c0,.62-.56,1.09-1.17,.99l-9.92-1.65Zm43.62-.5v-56.76h-3.31l.37,1.58c.15,.63-.33,1.23-.98,1.23h-4.45v7.95l4.4-.14c.48-.02,.9,.31,1.01,.77l2.17,9.23c.15,.63-.33,1.23-.98,1.23h-6.6v4.88l4.08-.07c.47,0,.88,.31,.99,.76l1.99,8.16c.15,.63-.32,1.24-.97,1.24h-6.09v5.71l3.68-.6c.5-.08,.98,.22,1.12,.71l2.66,9.13c.17,.58-.22,1.18-.82,1.27l-27.18,3.97c-.6,.09-1.15-.38-1.15-.99v-8.36c0-.48,.34-.89,.81-.98l.92-.18v-18.29l-1.34-1.23c-.64-.58-.29-1.64,.57-1.74l7.53-.8c.59-.06,1.11,.4,1.11,1v19.33l2.4-.5v-22.43h-11.22c-.62,0-1.1-.57-.99-1.18l2.19-12.15h.33l2.73,3.06,6.95-.41v-8.36h-3.31l-1.05,3.51c-.18,.62-.9,.9-1.46,.58l-7.47-4.27c-.41-.23-.6-.72-.46-1.18l4.31-13.47-1.03-2.1c-.36-.74,.27-1.58,1.08-1.43l9.55,1.76c.58,.11,.94,.68,.79,1.25l-1.37,4.99c4.3-.31,8.88-.54,12.36-.58,.47,0,.88,.31,.99,.76l1.72,7.01,2.14-12.12c.14-.81,1.15-1.11,1.71-.52l1.86,1.96c5.38-.69,14.7-1.17,19.44-1.23,.55,0,1.01,.44,1.01,.99l.48,54.62c0,.62-.54,1.09-1.15,1l-12.33-1.82v15.46c0,.62-.55,1.09-1.16,.99l-7.76-1.25c-.49-.08-.84-.5-.84-.99Zm12.91-56.76h-3.15v40.4l3.15-1.82v-38.58Z"/></g><path class="cls-2" d="M93,151.44c-.48-.08-.84-.5-.84-.99v-26.3l-.4,.4c-.44,.44-1.17,.38-1.53-.13l-5.92-8.4c-.29-.41-.23-.97,.14-1.31,3.84-3.5,7.71-7.5,10.6-11.41l-.83-4.14-1.64,1.49c-.47,.43-1.22,.31-1.54-.24l-5.64-9.82c-.25-.44-.13-1.01,.28-1.31l9.37-6.84,.2-3.25c.05-.85,1.07-1.25,1.69-.67l9.31,8.72c.43,.4,.42,1.09-.02,1.49l-11.34,9.95,11.9,7.06c.5,.3,.64,.96,.31,1.44-2.81,3.97-5.36,7.19-7.98,10.04l3.83-.51c.6-.08,1.14,.39,1.14,.99v34.43c0,.62-.56,1.09-1.17,.99l-9.92-1.65Zm43.62-.5v-56.76h-3.31l.37,1.58c.15,.63-.33,1.23-.98,1.23h-4.45v7.95l4.4-.14c.48-.02,.9,.31,1.01,.77l2.17,9.23c.15,.63-.33,1.23-.98,1.23h-6.6v4.88l4.08-.07c.47,0,.88,.31,.99,.76l1.99,8.16c.15,.63-.32,1.24-.97,1.24h-6.09v5.71l3.68-.6c.5-.08,.98,.22,1.12,.71l2.66,9.13c.17,.58-.22,1.18-.82,1.27l-27.18,3.97c-.6,.09-1.15-.38-1.15-.99v-8.36c0-.48,.34-.89,.81-.98l.92-.18v-18.29l-1.34-1.23c-.64-.58-.29-1.64,.57-1.74l7.53-.8c.59-.06,1.11,.4,1.11,1v19.33l2.4-.5v-22.43h-11.22c-.62,0-1.1-.57-.99-1.18l2.19-12.15h.33l2.73,3.06,6.95-.41v-8.36h-3.31l-1.05,3.51c-.18,.62-.9,.9-1.46,.58l-7.47-4.27c-.41-.23-.6-.72-.46-1.18l4.31-13.47-1.03-2.1c-.36-.74,.27-1.58,1.08-1.43l9.55,1.76c.58,.11,.94,.68,.79,1.25l-1.37,4.99c4.3-.31,8.88-.54,12.36-.58,.47,0,.88,.31,.99,.76l1.72,7.01,2.14-12.12c.14-.81,1.15-1.11,1.71-.52l1.86,1.96c5.38-.69,14.7-1.17,19.44-1.23,.55,0,1.01,.44,1.01,.99l.48,54.62c0,.62-.54,1.09-1.15,1l-12.33-1.82v15.46c0,.62-.55,1.09-1.16,.99l-7.76-1.25c-.49-.08-.84-.5-.84-.99Zm12.91-56.76h-3.15v40.4l3.15-1.82v-38.58Z"/></g><g><g class="cls-5"><path class="cls-3" d="M208.37,149.7l4.16-2.26c3.39-11.84,4.22-24.59,4.3-38.91h-18.21c-.16,16.99-2.88,31-12.4,46.33-.24,.38-.7,.56-1.13,.44l-14.43-4.12c-1.02-.29-.95-1.76,.09-1.95l1.6-.3c6.41-9.99,11.59-26.8,11.79-40.4h-17.11c-.62,0-1.09-.56-.99-1.17l2.1-12.55c.14-.83,1.19-1.13,1.74-.49l2,2.29,13.49-.5,.41-9.85-2.62-2.46c-.63-.59-.27-1.64,.59-1.73l15.13-1.49c.6-.06,1.12,.43,1.1,1.03l-.46,14.09,30.52-.4c.56,0,1.02,.44,1.02,1v11.65c0,22.11-1.89,34.54-5.05,46.35-.14,.52-.66,.83-1.18,.72l-16.2-3.46c-.91-.19-1.09-1.42-.27-1.86Z"/></g><path class="cls-2" d="M206.69,148.01l4.16-2.26c3.39-11.84,4.22-24.59,4.3-38.91h-18.21c-.16,16.99-2.88,31-12.4,46.33-.24,.38-.7,.56-1.13,.44l-14.43-4.12c-1.02-.29-.95-1.76,.09-1.95l1.6-.3c6.41-9.99,11.59-26.8,11.79-40.4h-17.11c-.62,0-1.09-.56-.99-1.17l2.1-12.55c.14-.83,1.19-1.13,1.74-.49l2,2.29,13.49-.5,.41-9.85-2.62-2.46c-.63-.59-.27-1.64,.59-1.73l15.13-1.49c.6-.06,1.12,.43,1.1,1.03l-.46,14.09,30.52-.4c.56,0,1.02,.44,1.02,1v11.65c0,22.11-1.89,34.54-5.05,46.35-.14,.52-.66,.83-1.18,.72l-16.2-3.46c-.91-.19-1.09-1.42-.27-1.86Z"/></g><g><g class="cls-5"><path class="cls-3" d="M434.57,154.84c-5.84-6.79-9.47-13.5-12.96-22.05-.22-.53,.06-1.14,.59-1.33l4.53-1.6,6.29-6.37h-13.43v18.27l3.67-.61c.52-.09,1.01,.24,1.14,.75l2.15,8.8c.14,.58-.25,1.16-.85,1.23l-21.84,2.77c-.62,.08-1.15-.42-1.13-1.04l.46-10.86c.04-.84,1.02-1.26,1.65-.72l2,1.72h.17v-20.31h-1.78c-.82,9.1-2.91,17.57-6.18,26.32-.2,.53-.79,.79-1.32,.58l-11.11-4.46v7.31c0,.62-.56,1.09-1.17,.99l-14.44-2.43c-.91-.15-1.15-1.34-.37-1.83l3.41-2.17v-15.55l-4.05,1.13c-.6,.17-1.2-.24-1.27-.86l-1.34-12.14c-.09-.84,.82-1.41,1.53-.96l2.4,1.52,2.72-.77v-13h-6.54c-.62,0-1.1-.56-.99-1.18l1.98-11.11c.15-.82,1.16-1.11,1.72-.5l1.69,1.83,2.12-.34v-12.24l-2.19-2.05c-.63-.59-.27-1.65,.59-1.73l13.08-1.22c.59-.05,1.1,.41,1.1,1v15.39l2.05-.06c.49-.01,.91,.32,1.01,.8l2.13,10.21c.13,.62-.35,1.21-.98,1.21h-4.21v9.26l1.05-.29c.47-.13,.97,.1,1.17,.54l3.21,6.88c.93-7.14,1.1-14.53,1.27-20.74l.25-10.2h-1.18c-.62,0-1.1-.56-.99-1.18l1.84-10.3c.14-.79,1.11-1.1,1.69-.54l1.87,1.83c11.36-.92,26.26-1.35,41.78-1.36,.47,0,.87,.32,.98,.77l2.25,9.55c.15,.63-.33,1.23-.98,1.23h-34.6l-.51,20.23c10.71-.58,24.09-.92,35.16-.93,.47,0,.87,.32,.97,.77l2.25,9.55c.15,.63-.33,1.23-.98,1.23h-8.59l7.29,4.36c.51,.3,.64,.98,.29,1.46l-5.89,7.95c1.62,2.72,3.23,5.35,5.27,7.48l3.22,.14c.9,.04,1.29,1.15,.62,1.75l-9.37,8.31c-.42,.37-1.06,.33-1.43-.09Zm-47.52-12.06c1.95-4.16,3.4-9.52,4.42-15.3l-4.84,1.27v14.19l.42-.17Zm20.43-36.36l1.53-8.94c.13-.78,1.07-1.1,1.66-.58l1.79,1.6c8.36-.66,17.75-1.07,24.96-1.1,.46,0,.86,.32,.97,.77l1.98,8.19c.15,.63-.33,1.24-.97,1.24h-30.94c-.62,0-1.09-.56-.99-1.17Z"/><path class="cls-3" d="M450.29,126.87c-.56,.15-1.14-.21-1.24-.78-1.3-6.8-1.83-13.75-1.83-20.62,0-7.81,.62-15.7,2.24-23.37,.12-.56,.68-.9,1.24-.76l15.78,4.05c.82,.21,1.03,1.29,.34,1.78l-2.86,2.06c-1.1,5.95-1.7,11.98-1.7,18.02,0,3.74,.25,7.56,.76,11.3l3.36,2.41c.69,.49,.49,1.57-.33,1.78l-15.76,4.12Zm17.08,15.88l4.82-.74c10.71-11.9,12.41-20.23,12.41-36.71,0-5.18-.34-10.28-.59-15.47l-2.91-2.33c-.68-.54-.39-1.63,.47-1.77l16.23-2.61c.58-.09,1.12,.33,1.16,.92,.48,7.1,.94,14.14,.94,21.17,0,21.37-3.64,33.49-18.17,49.06-.35,.37-.92,.43-1.33,.13l-13.47-9.85c-.72-.53-.44-1.66,.44-1.8Z"/></g><g><path class="cls-2" d="M433.05,153.32c-5.84-6.79-9.47-13.5-12.96-22.05-.22-.53,.06-1.14,.59-1.33l4.53-1.6,6.29-6.37h-13.43v18.27l3.67-.61c.52-.09,1.01,.24,1.14,.75l2.15,8.8c.14,.58-.25,1.16-.85,1.23l-21.84,2.77c-.62,.08-1.15-.42-1.13-1.04l.46-10.86c.04-.84,1.02-1.26,1.65-.72l2,1.72h.17v-20.31h-1.78c-.82,9.1-2.91,17.57-6.18,26.32-.2,.53-.79,.79-1.32,.58l-11.11-4.46v7.31c0,.62-.56,1.09-1.17,.99l-14.44-2.43c-.91-.15-1.15-1.34-.37-1.83l3.41-2.17v-15.55l-4.05,1.13c-.6,.17-1.2-.24-1.27-.86l-1.34-12.14c-.09-.84,.82-1.41,1.53-.96l2.4,1.52,2.72-.77v-13h-6.54c-.62,0-1.1-.56-.99-1.18l1.98-11.11c.15-.82,1.16-1.11,1.72-.5l1.69,1.83,2.12-.34v-12.24l-2.19-2.05c-.63-.59-.27-1.65,.59-1.73l13.08-1.22c.59-.05,1.1,.41,1.1,1v15.39l2.05-.06c.49-.01,.91,.32,1.01,.8l2.13,10.21c.13,.62-.35,1.21-.98,1.21h-4.21v9.26l1.05-.29c.47-.13,.97,.1,1.17,.54l3.21,6.88c.93-7.14,1.1-14.53,1.27-20.74l.25-10.2h-1.18c-.62,0-1.1-.56-.99-1.18l1.84-10.3c.14-.79,1.11-1.1,1.69-.54l1.87,1.83c11.36-.92,26.26-1.35,41.78-1.36,.47,0,.87,.32,.98,.77l2.25,9.55c.15,.63-.33,1.23-.98,1.23h-34.6l-.51,20.23c10.71-.58,24.09-.92,35.16-.93,.47,0,.87,.32,.97,.77l2.25,9.55c.15,.63-.33,1.23-.98,1.23h-8.59l7.29,4.36c.51,.3,.64,.98,.29,1.46l-5.89,7.95c1.62,2.72,3.23,5.35,5.27,7.48l3.22,.14c.9,.04,1.29,1.15,.62,1.75l-9.37,8.31c-.42,.37-1.06,.33-1.43-.09Zm-47.52-12.06c1.95-4.16,3.4-9.52,4.42-15.3l-4.84,1.27v14.19l.42-.17Zm20.43-36.36l1.53-8.94c.13-.78,1.07-1.1,1.66-.58l1.79,1.6c8.36-.66,17.75-1.07,24.96-1.1,.46,0,.86,.32,.97,.77l1.98,8.19c.15,.63-.33,1.24-.97,1.24h-30.94c-.62,0-1.09-.56-.99-1.17Z"/><path class="cls-2" d="M448.77,125.35c-.56,.15-1.14-.21-1.24-.78-1.3-6.8-1.83-13.75-1.83-20.62,0-7.81,.62-15.7,2.24-23.37,.12-.56,.68-.9,1.24-.76l15.78,4.05c.82,.21,1.03,1.29,.34,1.78l-2.86,2.06c-1.1,5.95-1.7,11.98-1.7,18.02,0,3.74,.25,7.56,.76,11.3l3.36,2.41c.69,.49,.49,1.57-.33,1.78l-15.76,4.12Zm17.08,15.88l4.82-.74c10.71-11.9,12.41-20.23,12.41-36.71,0-5.18-.34-10.28-.59-15.47l-2.91-2.33c-.68-.54-.39-1.63,.47-1.77l16.23-2.61c.58-.09,1.12,.33,1.16,.92,.48,7.1,.94,14.14,.94,21.17,0,21.37-3.64,33.49-18.17,49.06-.35,.37-.92,.43-1.33,.13l-13.47-9.85c-.72-.53-.44-1.66,.44-1.8Z"/></g></g><g><path d="M17.38,216.72c-4.66,0-8.37-2.43-8.57-8.12-.04-.66-.04-1.28-.04-1.9,0-3.5,.37-6.64,.54-10.35,.12-2.39,.33-5.85,.33-8.41v-.99c-.04-1.9,1.73-1.9,1.86-1.9,.99,0,2.02,.66,2.02,1.77,0,1.61-.45,7.83-.58,9.4-.25,3.88-.74,7.26-.74,10.8,0,2.14,.08,6.14,5.11,6.14,2.84,0,6.6-1.53,10.26-4.45,.5-.41,.99-.58,1.44-.58,1.03,0,1.86,.99,1.86,2.02,0,.54-.25,1.15-.82,1.61-3.83,3.09-8.57,4.95-12.66,4.95Z"/><path d="M38.53,194.87c-4.29,0-4.99-1.44-4.99-2.43,0-.74,.45-1.44,1.4-1.44,.29,0,.58,.04,.91,.16,1.03,.37,2.18,.54,3.38,.54,.91,0,1.86-.12,2.76-.29,.12-.7,.16-1.32,.16-1.9,0-.91-.08-1.77-.16-2.8v-.12c0-.99,.82-1.48,1.69-1.48,1.44,0,1.98,.82,1.98,3.01,0,.74-.04,1.44-.17,2.19,.78-.33,1.53-.74,2.19-1.15,.29-.21,.62-.29,.91-.29,.91,0,1.69,.78,1.69,1.69,0,1.03-1.11,1.94-5.61,3.34-2.6,9.11-5.61,16.37-7.67,20.98-.41,.91-1.2,1.32-1.94,1.32-.91,0-1.73-.62-1.73-1.69,0-.37,.08-.82,.33-1.32,1.81-3.71,4.86-10.26,7.42-18.51-.87,.12-1.73,.21-2.56,.21Zm18.14,21.07c-5.32,0-9.69-2.23-9.69-4.37,0-1.03,.82-1.98,1.77-1.98,.41,0,.87,.21,1.28,.66,1.36,1.48,3.05,1.94,5.52,1.94,1.24,0,2.68-.12,4.37-.29h.29c1.2,0,1.81,.87,1.81,1.73,0,1.36-.87,2.31-5.36,2.31Zm3.88-17.11c-1.52-.54-3.59-.91-5.48-.91-1.15,0-2.27,.12-3.13,.45-.21,.08-.37,.12-.58,.12-.82,0-1.36-.74-1.36-1.48,0-2.18,4.49-2.35,5.9-2.35,1.69,0,3.59,.25,5.48,.95,.95,.33,1.32,1.07,1.32,1.73,0,.82-.58,1.61-1.48,1.61-.21,0-.41-.04-.66-.12Z"/><path d="M65,198.09c-.12-1.98-.21-2.8-.21-3.88,0-.7,0-2.56,1.9-2.56,1.48,0,1.73,1.15,1.73,2.93,0,.5-.04,.87-.04,1.4,0,11.17,4.37,12.99,4.95,12.99,.54,0,1.4-.37,2.84-3.63,.33-.74,.91-1.03,1.44-1.03,.95,0,1.9,.78,1.9,1.73,0,.82-2.51,6.84-6.31,6.84-3.38,0-7.58-4.78-8.2-14.8Zm27.17,5.94c-.62-3.34-2.47-6.55-4.78-8.16-.45-.33-.66-.74-.66-1.15,0-.78,.7-1.57,1.65-1.57,2.35,0,7.5,6.6,7.5,10.26,0,1.36-1.03,2.14-2.02,2.14-.74,0-1.48-.49-1.69-1.53Z"/><path d="M99.38,189.59c-.37-.45-.54-.95-.54-1.32,0-.99,.95-1.73,1.94-1.73,.58,0,1.2,.25,1.61,.87,1.81,2.6,3.75,6.47,4.99,9.98,2.35-1.65,4.82-3.13,7.67-4.7,.41-.21,.78-.33,1.15-.33,1.03,0,1.73,.82,1.73,1.77,0,.7-.41,1.44-1.4,1.98-6.35,3.26-15.17,8.16-15.17,12.78,0,.33,0,4.04,6.64,4.04,2.72,0,5.73-.62,7.38-1.24,.37-.12,.7-.21,1.03-.21,1.11,0,1.77,.87,1.77,1.81,0,.87-.58,1.81-1.9,2.18-1.86,.54-4.7,.99-7.54,.99-10.22,0-10.76-6.02-10.76-7.3,0-2.68,1.61-5.73,5.07-8.53l1.4-1.11c-1.07-3.3-3.13-7.59-5.07-9.94Z"/></g><path d="M333.23,231.87c-3.5,0-6.34-2.89-6.34-6.39s2.84-6.34,6.34-6.34,6.39,2.84,6.39,6.34-2.89,6.39-6.39,6.39Zm0-10.62c-2.39,0-4.28,1.83-4.28,4.22s1.89,4.34,4.28,4.34,4.34-1.95,4.34-4.34-1.95-4.22-4.34-4.22Z"/><path d="M233.42,125.99c0-1.65,.12-3.3,.29-4.91,.49-4.74,1.52-9.19,1.9-11.71,.17-1.15,.95-1.61,1.73-1.61,.82,0,1.69,.58,1.69,1.53,0,.08,0,.21-.04,.33-.5,2.51-1.57,7.09-2.06,11.13-.16,1.4-.29,2.76-.29,4,0,.41,.04,3.09,.54,3.09,.08,0,.21-.17,.33-.41,.08-.21,.91-1.73,1.07-2.02,.33-.54,.78-.74,1.2-.74,.74,0,1.44,.7,1.44,1.48,0,.21-.04,.45-.16,.66-2.39,4.29-2.64,6.06-2.64,7.46,0,1.73-1.15,2.1-1.69,2.1-2.47,0-3.3-6.76-3.3-10.39Zm21.15,8.45c-6.1,0-9.28-2.47-9.28-4.04,0-.95,.78-1.77,1.73-1.77,.41,0,.87,.16,1.28,.54,1.24,1.15,3.26,1.57,5.36,1.57,1.9,0,3.92-.33,5.48-.66,.21-.04,.41-.08,.62-.08,1.15,0,1.73,.87,1.73,1.77s-.54,1.77-1.61,2.06c-1.57,.41-3.42,.62-5.32,.62Zm3.26-19.54c-1.48-.33-3.09-.54-4.74-.54s-3.38,.21-5.15,.66c-.12,.04-.29,.04-.41,.04-.91,0-1.57-.82-1.57-1.69,0-.66,.41-1.36,1.44-1.61,2.02-.49,4.25-.74,6.31-.74,4.49,0,6.27,.66,6.27,2.27,0,.87-.62,1.65-1.65,1.65-.17,0-.33,0-.5-.04Z"/><g><path d="M145.26,29.71c0,3.92-5.81,18.8-11.5,18.8-3.09,0-5.81-3.71-5.81-7.96,0-6.23,5.48-15.05,16.41-15.05,7.92,0,13.56,5.28,13.56,12.08,0,10.39-11.25,13.89-12.99,13.89-1.32,0-2.1-.87-2.1-1.77,0-.78,.54-1.53,1.81-1.81,5.24-1.15,9.73-4.62,9.73-10.43,0-4.82-3.79-8.95-9.73-9.19,.41,.33,.62,.78,.62,1.44Zm-14.02,10.51c0,2.93,1.61,4.45,2.68,4.45,2.35,0,7.21-8.86,7.75-15.05,.04-.49,.16-.91,.37-1.2-6.55,1.15-10.8,6.93-10.8,11.79Z"/><path d="M161.34,51.06c-.74-2.39-1.03-5.15-1.03-8.04,0-2.1,.12-4.29,.37-6.43,.54-5.03,1.48-9.77,1.69-12.49,.08-1.32,.95-1.86,1.77-1.86,.91,0,1.81,.62,1.81,1.65,0,.08-.04,.21-.04,.29-.29,1.9-.95,5.61-1.48,9.15-.45,2.89-.87,6.1-.87,8.24,0,1.73,.29,1.94,.29,1.94,.12,0,.25-.25,.45-.66,.21-.37,.74-1.69,.91-2.02,.25-.54,.7-.74,1.15-.74,.7,0,1.4,.58,1.4,1.57,0,.37-.08,.78-.29,1.24-1.98,4.29-2.47,6.31-2.47,7.75,0,1.61-1.03,2.1-1.81,2.1-.74,0-1.48-.49-1.85-1.69Zm24.07-6.72c1.81,.82,3.46,1.94,4.78,3.13,.54,.49,.74,1.03,.74,1.57,0,1.07-.82,1.98-1.77,1.98-.41,0-.82-.16-1.24-.58-.82-.87-1.86-1.65-2.93-2.39-.95,2.47-3.92,4.66-7.21,4.66s-6.27-2.23-6.27-5.03,2.8-4.95,7.09-4.95c1.2,0,2.39,.16,3.59,.45,0-.78-.04-1.57-.12-2.51-.12-1.73-.29-5.11-.41-8.49-1.61,.29-3.22,.45-4.86,.45-2.1,0-3.92-.08-3.92-1.81,0-.82,.62-1.69,1.81-1.69,.16,0,.33,0,.49,.04,.74,.12,1.48,.17,2.27,.17,1.32,0,2.72-.12,4.12-.37,0-1.24-.04-2.39-.04-3.38s.04-1.94,.04-2.6c.04-1.11,.87-1.61,1.73-1.61s1.69,.49,1.69,1.4v.12c-.08,1.24-.16,3.17-.16,5.36l2.56-.74c.21-.08,.41-.08,.62-.08,1.03,0,1.81,.82,1.81,1.69,0,.66-.49,1.36-1.69,1.65l-3.26,.78c.04,3.34,.16,6.68,.29,8.78,.04,1.03,.21,2.39,.25,3.75v.25Zm-3.5,2.06c-1.86-.62-2.8-.78-3.79-.78-2.76,0-3.59,1.15-3.59,1.98,0,1.85,2.76,1.9,3.05,1.9,1.9,0,3.88-1.03,4.33-2.97v-.12Z"/></g><g><path d="M263.4,43.36c-.45,.74-1.2,1.07-1.86,1.07-.87,0-1.69-.58-1.69-1.48,0-.33,.12-.74,.41-1.15,2.1-3.09,5.15-7.54,7.09-11.87-.99,.21-1.9,.29-2.8,.29-4.25,0-4.41-1.36-4.41-1.98,0-.78,.58-1.57,1.61-1.57,.21,0,.45,.04,.74,.12,.66,.21,1.44,.33,2.31,.33,1.11,0,2.39-.21,3.67-.49,.45-1.44,.66-2.89,.91-4.41,.12-.95,.87-1.36,1.61-1.36,.87,0,1.73,.54,1.73,1.57,0,.7-.25,1.81-.7,3.22,.74-.33,1.44-.66,1.98-1.03,.33-.21,.66-.33,.95-.33,.82,0,1.57,.66,1.57,1.48,0,.74-.62,2.06-5.57,3.46-1.94,4.7-4.74,9.65-7.54,14.14Zm9.07,10.72c-3.55,0-6.76-2.23-6.76-4.99s3.3-4.82,7.75-4.82c1.11,0,2.23,.12,3.3,.37,0-.37-.04-.82-.04-1.28,0-1.24-.08-2.64-.12-3.87v-.45c0-1.94,.16-3.55,1.77-3.55,.82,0,1.65,.54,1.65,1.57,0,.08,0,.21-.04,.33-.12,.7-.21,1.11-.21,2.02v1.11c0,.91,0,1.94,.04,2.89,0,.66,.08,1.44,.12,2.23,2.72,1.11,5.94,3.26,5.94,5.03,0,1.07-.87,1.9-1.81,1.9-.5,0-.99-.25-1.44-.78-.7-.87-1.69-1.73-2.84-2.52-.74,2.72-3.83,4.82-7.3,4.82Zm.58-7.05c-2.06,0-4.33,.78-4.33,2.06,0,1.03,1.36,2.02,3.46,2.02s3.96-1.11,4.33-2.89l.08-.58c-1.15-.41-2.35-.62-3.55-.62Zm12.7-12.86c-1.77-1.15-3.71-1.81-5.94-1.81-.25,0-.5,.04-.74,.04h-.12c-.91,0-1.36-.66-1.36-1.36,0-1.44,1.32-1.69,2.88-1.69,.99,0,7.59,.49,7.59,3.3,0,.95-.7,1.77-1.57,1.77-.25,0-.5-.08-.74-.25Z"/><path d="M304.88,30.63c0,3.92-5.81,18.8-11.5,18.8-3.09,0-5.81-3.71-5.81-7.96,0-6.23,5.48-15.05,16.41-15.05,7.92,0,13.56,5.28,13.56,12.08,0,10.39-11.25,13.89-12.99,13.89-1.32,0-2.1-.87-2.1-1.77,0-.78,.54-1.53,1.81-1.81,5.24-1.15,9.73-4.62,9.73-10.43,0-4.82-3.79-8.95-9.73-9.19,.41,.33,.62,.78,.62,1.44Zm-14.02,10.51c0,2.93,1.61,4.45,2.68,4.45,2.35,0,7.21-8.86,7.75-15.05,.04-.49,.16-.91,.37-1.2-6.55,1.15-10.8,6.93-10.8,11.79Z"/><path d="M341.59,53.26h-.08c-8.95,0-13.81-6.02-13.81-12.66,0-4.41,2.14-7.87,3.42-9.4,.29-.33,.41-.54,.41-.66,0-.04-.04-.08-.12-.08-.33,0-1.4,.37-6.51,2.23-1.03,.37-3.83,1.36-4.78,1.36-1.32,0-2.1-.99-2.1-1.98,0-.82,.54-1.65,1.73-1.9,8.95-2.02,11.42-2.64,14.55-3.55,6.88-1.98,10.31-2.43,11.62-2.43,1.53,0,2.19,1.03,2.19,2.02,0,1.48-1.61,1.86-3.34,1.86h-.82c-2.06,0-4.37,.66-5.9,1.2-3.22,1.15-7.05,5.81-7.05,10.8s3.26,9.23,9.89,9.23h.7c1.77,0,2.68,.99,2.68,1.98s-.87,1.98-2.68,1.98Zm3.88-14.76c-.66-.78-2.72-2.31-3.71-2.72-.62-.25-.87-.7-.87-1.11,0-.66,.66-1.36,1.57-1.36,.41,0,5.48,1.98,5.48,4,0,.91-.74,1.69-1.52,1.69-.33,0-.66-.16-.95-.49Zm4-3.5c-.66-.78-2.76-2.19-3.79-2.6-.66-.25-.91-.7-.91-1.11,0-.7,.66-1.4,1.57-1.4,.82,0,5.52,1.94,5.52,3.92,0,.87-.7,1.65-1.48,1.65-.29,0-.62-.12-.91-.45Z"/></g><g class="cls-6"><path class="cls-2" d="M3.36,73.75c-.09,0-.18,0-.26-.03-.08-.02-.18-.04-.25-.08-.08-.03-.16-.08-.24-.12-.08-.05-.15-.11-.21-.17-.25-.25-.4-.61-.4-.96,0-.09,.02-.18,.03-.27,.02-.09,.04-.17,.08-.25,.03-.09,.08-.16,.12-.24,.05-.07,.11-.15,.17-.21,.06-.06,.13-.12,.21-.17,.08-.05,.15-.09,.24-.12,.08-.03,.17-.06,.25-.08,.45-.08,.92,.05,1.23,.37,.25,.25,.4,.61,.4,.97s-.15,.71-.4,.96c-.25,.25-.61,.4-.97,.4Z"/><path class="cls-2" d="M498.14,72.39c0-.76,.61-1.37,1.36-1.37h0c.76,0,1.36,.62,1.36,1.37h0c0,.75-.61,1.36-1.36,1.36h0c-.75,0-1.36-.62-1.36-1.36Zm-7.09,0c0-.76,.62-1.37,1.36-1.37h0c.75,0,1.37,.62,1.37,1.37h0c0,.75-.62,1.36-1.37,1.36h0c-.75,0-1.36-.62-1.36-1.36Zm-7.09,0c0-.76,.61-1.37,1.36-1.37h0c.75,0,1.37,.62,1.37,1.37h0c0,.75-.62,1.36-1.37,1.36h0c-.76,0-1.36-.62-1.36-1.36Zm-7.08,0c0-.76,.61-1.37,1.36-1.37h0c.75,0,1.36,.62,1.36,1.37h0c0,.75-.62,1.36-1.36,1.36h0c-.75,0-1.36-.62-1.36-1.36Zm-7.09,0c0-.76,.61-1.37,1.36-1.37h0c.76,0,1.36,.62,1.36,1.37h0c0,.75-.61,1.36-1.36,1.36h0c-.75,0-1.36-.62-1.36-1.36Zm-7.09,0c0-.76,.62-1.37,1.36-1.37h0c.75,0,1.37,.62,1.37,1.37h0c0,.75-.62,1.36-1.37,1.36h0c-.75,0-1.36-.62-1.36-1.36Zm-7.09,0c0-.76,.62-1.37,1.36-1.37h0c.75,0,1.37,.62,1.37,1.37h0c0,.75-.62,1.36-1.37,1.36h0c-.75,0-1.36-.62-1.36-1.36Zm-7.08,0c0-.76,.61-1.37,1.36-1.37h0c.75,0,1.36,.62,1.36,1.37h0c0,.75-.62,1.36-1.36,1.36h0c-.75,0-1.36-.62-1.36-1.36Zm-7.09,0c0-.76,.61-1.37,1.36-1.37h0c.75,0,1.36,.62,1.36,1.37h0c0,.75-.61,1.36-1.36,1.36h0c-.76,0-1.36-.62-1.36-1.36Zm-7.09,0c0-.76,.62-1.37,1.36-1.37h0c.75,0,1.37,.62,1.37,1.37h0c0,.75-.62,1.36-1.37,1.36h0c-.75,0-1.36-.62-1.36-1.36Zm-7.09,0c0-.76,.62-1.37,1.36-1.37h0c.75,0,1.37,.62,1.37,1.37h0c0,.75-.62,1.36-1.37,1.36h0c-.75,0-1.36-.62-1.36-1.36Zm-7.08,0c0-.76,.61-1.37,1.36-1.37h0c.75,0,1.36,.62,1.36,1.37h0c0,.75-.62,1.36-1.36,1.36h0c-.75,0-1.36-.62-1.36-1.36Zm-7.09,0c0-.76,.61-1.37,1.36-1.37h0c.75,0,1.36,.62,1.36,1.37h0c0,.75-.61,1.36-1.36,1.36h0c-.76,0-1.36-.62-1.36-1.36Zm-7.09,0c0-.76,.61-1.37,1.36-1.37h0c.75,0,1.36,.62,1.36,1.37h0c0,.75-.61,1.36-1.36,1.36h0c-.76,0-1.36-.62-1.36-1.36Zm-7.09,0c0-.76,.62-1.37,1.36-1.37h0c.75,0,1.37,.62,1.37,1.37h0c0,.75-.62,1.36-1.37,1.36h0c-.75,0-1.36-.62-1.36-1.36Zm-7.08,0c0-.76,.61-1.37,1.36-1.37h0c.75,0,1.36,.62,1.36,1.37h0c0,.75-.62,1.36-1.36,1.36h0c-.75,0-1.36-.62-1.36-1.36Zm-7.09,0c0-.76,.61-1.37,1.36-1.37h0c.75,0,1.36,.62,1.36,1.37h0c0,.75-.61,1.36-1.36,1.36h0c-.76,0-1.36-.62-1.36-1.36Zm-7.09,0c0-.76,.61-1.37,1.36-1.37h0c.75,0,1.36,.62,1.36,1.37h0c0,.75-.61,1.36-1.36,1.36h0c-.76,0-1.36-.62-1.36-1.36Zm-7.09,0c0-.76,.62-1.37,1.36-1.37h0c.76,0,1.36,.62,1.36,1.37h0c0,.75-.61,1.36-1.36,1.36h0c-.75,0-1.36-.62-1.36-1.36Zm-7.08,0c0-.76,.61-1.37,1.36-1.37h0c.76,0,1.36,.62,1.36,1.37h0c0,.75-.61,1.36-1.36,1.36h0c-.75,0-1.36-.62-1.36-1.36Zm-7.09,0c0-.76,.61-1.37,1.36-1.37h0c.75,0,1.36,.62,1.36,1.37h0c0,.75-.61,1.36-1.36,1.36h0c-.76,0-1.36-.62-1.36-1.36Zm-99.23,0c0-.76,.62-1.37,1.37-1.37h0c.75,0,1.36,.62,1.36,1.37h0c0,.75-.62,1.36-1.36,1.36h0c-.75,0-1.37-.62-1.37-1.36Zm-7.09,0c0-.76,.62-1.37,1.37-1.37h0c.75,0,1.36,.62,1.36,1.37h0c0,.75-.61,1.36-1.36,1.36h0c-.76,0-1.37-.62-1.37-1.36Zm-7.08,0c0-.76,.61-1.37,1.36-1.37h0c.75,0,1.36,.62,1.36,1.37h0c0,.75-.61,1.36-1.36,1.36h0c-.76,0-1.36-.62-1.36-1.36Zm-7.09,0c0-.76,.61-1.37,1.36-1.37h0c.76,0,1.36,.62,1.36,1.37h0c0,.75-.61,1.36-1.36,1.36h0c-.76,0-1.36-.62-1.36-1.36Zm-7.09,0c0-.76,.62-1.37,1.37-1.37h0c.75,0,1.36,.62,1.36,1.37h0c0,.75-.62,1.36-1.36,1.36h0c-.75,0-1.37-.62-1.37-1.36Zm-7.09,0c0-.76,.62-1.37,1.37-1.37h0c.75,0,1.36,.62,1.36,1.37h0c0,.75-.61,1.36-1.36,1.36h0c-.76,0-1.37-.62-1.37-1.36Zm-7.08,0c0-.76,.61-1.37,1.36-1.37h0c.75,0,1.36,.62,1.36,1.37h0c0,.75-.61,1.36-1.36,1.36h0c-.76,0-1.36-.62-1.36-1.36Zm-7.09,0c0-.76,.61-1.37,1.36-1.37h0c.76,0,1.36,.62,1.36,1.37h0c0,.75-.61,1.36-1.36,1.36h0c-.75,0-1.36-.62-1.36-1.36Zm-7.09,0c0-.76,.62-1.37,1.36-1.37h0c.76,0,1.37,.62,1.37,1.37h0c0,.75-.62,1.36-1.37,1.36h0c-.75,0-1.36-.62-1.36-1.36Zm-7.09,0c0-.76,.62-1.37,1.37-1.37h0c.75,0,1.36,.62,1.36,1.37h0c0,.75-.61,1.36-1.36,1.36h0c-.76,0-1.37-.62-1.37-1.36Zm-7.08,0c0-.76,.61-1.37,1.36-1.37h0c.75,0,1.36,.62,1.36,1.37h0c0,.75-.61,1.36-1.36,1.36h0c-.76,0-1.36-.62-1.36-1.36Zm-7.09,0c0-.76,.61-1.37,1.36-1.37h0c.76,0,1.36,.62,1.36,1.37h0c0,.75-.61,1.36-1.36,1.36h0c-.75,0-1.36-.62-1.36-1.36Zm-7.09,0c0-.76,.62-1.37,1.36-1.37h0c.76,0,1.37,.62,1.37,1.37h0c0,.75-.62,1.36-1.37,1.36h0c-.75,0-1.36-.62-1.36-1.36Zm-7.09,0c0-.76,.62-1.37,1.37-1.37h0c.75,0,1.36,.62,1.36,1.37h0c0,.75-.61,1.36-1.36,1.36h0c-.76,0-1.37-.62-1.37-1.36Zm-7.08,0c0-.76,.61-1.37,1.36-1.37h0c.75,0,1.36,.62,1.36,1.37h0c0,.75-.61,1.36-1.36,1.36h0c-.76,0-1.36-.62-1.36-1.36Zm-7.09,0c0-.76,.61-1.37,1.36-1.37h0c.76,0,1.36,.62,1.36,1.37h0c0,.75-.61,1.36-1.36,1.36h0c-.75,0-1.36-.62-1.36-1.36Zm-7.09,0c0-.76,.62-1.37,1.36-1.37h0c.76,0,1.37,.62,1.37,1.37h0c0,.75-.62,1.36-1.37,1.36h0c-.75,0-1.36-.62-1.36-1.36Zm-7.09,0c0-.76,.62-1.37,1.37-1.37h0c.75,0,1.36,.62,1.36,1.37h0c0,.75-.61,1.36-1.36,1.36h0c-.76,0-1.37-.62-1.37-1.36Zm-7.08,0c0-.76,.61-1.37,1.36-1.37h0c.75,0,1.36,.62,1.36,1.37h0c0,.75-.61,1.36-1.36,1.36h0c-.76,0-1.36-.62-1.36-1.36Zm-7.09,0c0-.76,.62-1.37,1.36-1.37h0c.76,0,1.36,.62,1.36,1.37h0c0,.75-.61,1.36-1.36,1.36h0c-.75,0-1.36-.62-1.36-1.36Zm-7.09,0c0-.76,.62-1.37,1.36-1.37h0c.76,0,1.37,.62,1.37,1.37h0c0,.75-.62,1.36-1.37,1.36h0c-.75,0-1.36-.62-1.36-1.36Zm-7.09,0c0-.76,.62-1.37,1.37-1.37h0c.75,0,1.36,.62,1.36,1.37h0c0,.75-.62,1.36-1.36,1.36h0c-.76,0-1.37-.62-1.37-1.36Zm-7.08,0c0-.76,.61-1.37,1.36-1.37h0c.76,0,1.36,.62,1.36,1.37h0c0,.75-.61,1.36-1.36,1.36h0c-.76,0-1.36-.62-1.36-1.36Zm-7.09,0c0-.76,.62-1.37,1.36-1.37h0c.76,0,1.36,.62,1.36,1.37h0c0,.75-.61,1.36-1.36,1.36h0c-.75,0-1.36-.62-1.36-1.36Zm-7.09,0c0-.76,.62-1.37,1.36-1.37h0c.76,0,1.37,.62,1.37,1.37h0c0,.75-.62,1.36-1.37,1.36h0c-.75,0-1.36-.62-1.36-1.36Zm-7.09,0c0-.76,.62-1.37,1.37-1.37h0c.75,0,1.36,.62,1.36,1.37h0c0,.75-.62,1.36-1.36,1.36h0c-.76,0-1.37-.62-1.37-1.36Zm-7.08,0c0-.76,.61-1.37,1.36-1.37h0c.76,0,1.36,.62,1.36,1.37h0c0,.75-.61,1.36-1.36,1.36h0c-.75,0-1.36-.62-1.36-1.36Zm-7.09,0c0-.76,.61-1.37,1.36-1.37h0c.76,0,1.36,.62,1.36,1.37h0c0,.75-.61,1.36-1.36,1.36h0c-.75,0-1.36-.62-1.36-1.36Zm-7.09,0c0-.76,.62-1.37,1.36-1.37h0c.76,0,1.37,.62,1.37,1.37h0c0,.75-.62,1.36-1.37,1.36h0c-.75,0-1.36-.62-1.36-1.36Zm-7.09,0c0-.76,.62-1.37,1.37-1.37h0c.75,0,1.36,.62,1.36,1.37h0c0,.75-.62,1.36-1.36,1.36h0c-.76,0-1.37-.62-1.37-1.36Zm-7.08,0c0-.76,.61-1.37,1.36-1.37h0c.76,0,1.36,.62,1.36,1.37h0c0,.75-.61,1.36-1.36,1.36h0c-.75,0-1.36-.62-1.36-1.36Zm-7.09,0c0-.76,.61-1.37,1.36-1.37h0c.76,0,1.36,.62,1.36,1.37h0c0,.75-.61,1.36-1.36,1.36h0c-.75,0-1.36-.62-1.36-1.36Zm-7.09,0c0-.76,.62-1.37,1.36-1.37h0c.76,0,1.37,.62,1.37,1.37h0c0,.75-.62,1.36-1.37,1.36h0c-.75,0-1.36-.62-1.36-1.36Zm-7.09,0c0-.76,.62-1.37,1.37-1.37h0c.75,0,1.36,.62,1.36,1.37h0c0,.75-.62,1.36-1.36,1.36h0c-.76,0-1.37-.62-1.37-1.36Zm-7.08,0c0-.76,.61-1.37,1.36-1.37h0c.76,0,1.36,.62,1.36,1.37h0c0,.75-.61,1.36-1.36,1.36h0c-.75,0-1.36-.62-1.36-1.36Zm-7.09,0c0-.76,.61-1.37,1.36-1.37h0c.76,0,1.36,.62,1.36,1.37h0c0,.75-.61,1.36-1.36,1.36h0c-.75,0-1.36-.62-1.36-1.36Z"/><path class="cls-2" d="M506.59,73.75c-.09,0-.18,0-.27-.03-.09-.02-.17-.04-.25-.08-.09-.03-.16-.08-.24-.12-.07-.05-.14-.11-.2-.17-.07-.06-.12-.13-.17-.21-.05-.08-.09-.15-.13-.24-.03-.08-.06-.17-.08-.25-.02-.09-.02-.18-.02-.26,0-.09,0-.18,.02-.27,.02-.09,.05-.18,.08-.25,.04-.09,.08-.16,.13-.24,.05-.07,.1-.15,.17-.21,.32-.32,.79-.46,1.23-.37,.09,.02,.18,.05,.26,.08,.08,.03,.15,.08,.23,.12,.08,.05,.15,.11,.21,.17s.12,.14,.17,.21c.05,.08,.09,.15,.12,.24,.04,.08,.06,.17,.09,.25,.02,.08,.02,.18,.02,.27,0,.09,0,.18-.02,.26-.02,.08-.05,.18-.09,.25-.03,.08-.07,.16-.12,.24-.05,.08-.11,.15-.17,.21-.06,.06-.13,.12-.21,.17-.08,.05-.15,.09-.23,.12-.09,.04-.17,.06-.26,.08-.08,.02-.18,.03-.26,.03Z"/></g><g class="cls-6"><path class="cls-2" d="M3.36,161.82c-.09,0-.18,0-.26-.02-.08-.02-.18-.05-.25-.08-.08-.04-.16-.08-.24-.13-.08-.05-.15-.11-.21-.17-.06-.06-.12-.13-.17-.21-.05-.07-.09-.15-.12-.23-.04-.08-.06-.17-.08-.25-.02-.09-.03-.18-.03-.27s.02-.18,.03-.27c.02-.08,.04-.17,.08-.25,.03-.08,.08-.16,.12-.23,.05-.08,.11-.15,.17-.21,.06-.06,.13-.12,.21-.17,.08-.05,.15-.09,.24-.13,.08-.03,.17-.05,.25-.08,.45-.09,.92,.06,1.23,.38,.25,.25,.4,.6,.4,.96,0,.09,0,.18-.03,.27-.02,.08-.04,.17-.08,.25-.03,.08-.08,.16-.12,.23-.05,.08-.11,.15-.17,.21-.25,.25-.61,.4-.97,.4Z"/><path class="cls-2" d="M498.14,160.46c0-.76,.61-1.36,1.36-1.36h0c.76,0,1.36,.61,1.36,1.36h0c0,.76-.61,1.36-1.36,1.36h0c-.75,0-1.36-.61-1.36-1.36Zm-7.09,0c0-.76,.62-1.36,1.36-1.36h0c.75,0,1.37,.61,1.37,1.36h0c0,.76-.62,1.36-1.37,1.36h0c-.75,0-1.36-.61-1.36-1.36Zm-7.09,0c0-.76,.61-1.36,1.36-1.36h0c.75,0,1.37,.61,1.37,1.36h0c0,.76-.62,1.36-1.37,1.36h0c-.76,0-1.36-.61-1.36-1.36Zm-7.08,0c0-.76,.61-1.36,1.36-1.36h0c.75,0,1.36,.61,1.36,1.36h0c0,.76-.62,1.36-1.36,1.36h0c-.75,0-1.36-.61-1.36-1.36Zm-7.09,0c0-.76,.61-1.36,1.36-1.36h0c.76,0,1.36,.61,1.36,1.36h0c0,.76-.61,1.36-1.36,1.36h0c-.75,0-1.36-.61-1.36-1.36Zm-7.09,0c0-.76,.62-1.36,1.36-1.36h0c.75,0,1.37,.61,1.37,1.36h0c0,.76-.62,1.36-1.37,1.36h0c-.75,0-1.36-.61-1.36-1.36Zm-7.09,0c0-.76,.62-1.36,1.36-1.36h0c.75,0,1.37,.61,1.37,1.36h0c0,.76-.62,1.36-1.37,1.36h0c-.75,0-1.36-.61-1.36-1.36Zm-7.08,0c0-.76,.61-1.36,1.36-1.36h0c.75,0,1.36,.61,1.36,1.36h0c0,.76-.62,1.36-1.36,1.36h0c-.75,0-1.36-.61-1.36-1.36Zm-7.09,0c0-.76,.61-1.36,1.36-1.36h0c.75,0,1.36,.61,1.36,1.36h0c0,.76-.61,1.36-1.36,1.36h0c-.76,0-1.36-.61-1.36-1.36Zm-7.09,0c0-.76,.62-1.36,1.36-1.36h0c.75,0,1.37,.61,1.37,1.36h0c0,.76-.62,1.36-1.37,1.36h0c-.75,0-1.36-.61-1.36-1.36Zm-7.09,0c0-.76,.62-1.36,1.36-1.36h0c.75,0,1.37,.61,1.37,1.36h0c0,.76-.62,1.36-1.37,1.36h0c-.75,0-1.36-.61-1.36-1.36Zm-7.08,0c0-.76,.61-1.36,1.36-1.36h0c.75,0,1.36,.61,1.36,1.36h0c0,.76-.62,1.36-1.36,1.36h0c-.75,0-1.36-.61-1.36-1.36Zm-7.09,0c0-.76,.61-1.36,1.36-1.36h0c.75,0,1.36,.61,1.36,1.36h0c0,.76-.61,1.36-1.36,1.36h0c-.76,0-1.36-.61-1.36-1.36Zm-7.09,0c0-.76,.61-1.36,1.36-1.36h0c.75,0,1.36,.61,1.36,1.36h0c0,.76-.61,1.36-1.36,1.36h0c-.76,0-1.36-.61-1.36-1.36Zm-7.09,0c0-.76,.62-1.36,1.36-1.36h0c.75,0,1.37,.61,1.37,1.36h0c0,.76-.62,1.36-1.37,1.36h0c-.75,0-1.36-.61-1.36-1.36Zm-7.08,0c0-.76,.61-1.36,1.36-1.36h0c.75,0,1.36,.61,1.36,1.36h0c0,.76-.62,1.36-1.36,1.36h0c-.75,0-1.36-.61-1.36-1.36Zm-7.09,0c0-.76,.61-1.36,1.36-1.36h0c.75,0,1.36,.61,1.36,1.36h0c0,.76-.61,1.36-1.36,1.36h0c-.76,0-1.36-.61-1.36-1.36Zm-7.09,0c0-.76,.61-1.36,1.36-1.36h0c.75,0,1.36,.61,1.36,1.36h0c0,.76-.61,1.36-1.36,1.36h0c-.76,0-1.36-.61-1.36-1.36Zm-7.09,0c0-.76,.62-1.36,1.36-1.36h0c.76,0,1.36,.61,1.36,1.36h0c0,.76-.61,1.36-1.36,1.36h0c-.75,0-1.36-.61-1.36-1.36Zm-7.08,0c0-.76,.61-1.36,1.36-1.36h0c.76,0,1.36,.61,1.36,1.36h0c0,.76-.61,1.36-1.36,1.36h0c-.75,0-1.36-.61-1.36-1.36Zm-92.14,0c0-.76,.61-1.36,1.36-1.36h0c.75,0,1.36,.61,1.36,1.36h0c0,.76-.61,1.36-1.36,1.36h0c-.76,0-1.36-.61-1.36-1.36Zm-7.09,0c0-.76,.61-1.36,1.36-1.36h0c.75,0,1.36,.61,1.36,1.36h0c0,.76-.61,1.36-1.36,1.36h0c-.76,0-1.36-.61-1.36-1.36Zm-7.09,0c0-.76,.62-1.36,1.37-1.36h0c.75,0,1.36,.61,1.36,1.36h0c0,.76-.62,1.36-1.36,1.36h0c-.75,0-1.37-.61-1.37-1.36Zm-7.09,0c0-.76,.62-1.36,1.37-1.36h0c.75,0,1.36,.61,1.36,1.36h0c0,.76-.61,1.36-1.36,1.36h0c-.76,0-1.37-.61-1.37-1.36Zm-7.08,0c0-.76,.61-1.36,1.36-1.36h0c.75,0,1.36,.61,1.36,1.36h0c0,.76-.61,1.36-1.36,1.36h0c-.76,0-1.36-.61-1.36-1.36Zm-7.09,0c0-.76,.61-1.36,1.36-1.36h0c.76,0,1.36,.61,1.36,1.36h0c0,.76-.61,1.36-1.36,1.36h0c-.76,0-1.36-.61-1.36-1.36Zm-7.09,0c0-.76,.62-1.36,1.37-1.36h0c.75,0,1.36,.61,1.36,1.36h0c0,.76-.62,1.36-1.36,1.36h0c-.75,0-1.37-.61-1.37-1.36Zm-7.09,0c0-.76,.62-1.36,1.37-1.36h0c.75,0,1.36,.61,1.36,1.36h0c0,.76-.61,1.36-1.36,1.36h0c-.76,0-1.37-.61-1.37-1.36Zm-7.08,0c0-.76,.61-1.36,1.36-1.36h0c.75,0,1.36,.61,1.36,1.36h0c0,.76-.61,1.36-1.36,1.36h0c-.76,0-1.36-.61-1.36-1.36Zm-7.09,0c0-.76,.61-1.36,1.36-1.36h0c.76,0,1.36,.61,1.36,1.36h0c0,.76-.61,1.36-1.36,1.36h0c-.75,0-1.36-.61-1.36-1.36Zm-7.09,0c0-.76,.62-1.36,1.36-1.36h0c.76,0,1.37,.61,1.37,1.36h0c0,.76-.62,1.36-1.37,1.36h0c-.75,0-1.36-.61-1.36-1.36Zm-7.09,0c0-.76,.62-1.36,1.37-1.36h0c.75,0,1.36,.61,1.36,1.36h0c0,.76-.61,1.36-1.36,1.36h0c-.76,0-1.37-.61-1.37-1.36Zm-7.08,0c0-.76,.61-1.36,1.36-1.36h0c.75,0,1.36,.61,1.36,1.36h0c0,.76-.61,1.36-1.36,1.36h0c-.76,0-1.36-.61-1.36-1.36Zm-7.09,0c0-.76,.61-1.36,1.36-1.36h0c.76,0,1.36,.61,1.36,1.36h0c0,.76-.61,1.36-1.36,1.36h0c-.75,0-1.36-.61-1.36-1.36Zm-7.09,0c0-.76,.62-1.36,1.36-1.36h0c.76,0,1.37,.61,1.37,1.36h0c0,.76-.62,1.36-1.37,1.36h0c-.75,0-1.36-.61-1.36-1.36Zm-7.09,0c0-.76,.62-1.36,1.37-1.36h0c.75,0,1.36,.61,1.36,1.36h0c0,.76-.61,1.36-1.36,1.36h0c-.76,0-1.37-.61-1.37-1.36Zm-7.08,0c0-.76,.61-1.36,1.36-1.36h0c.75,0,1.36,.61,1.36,1.36h0c0,.76-.61,1.36-1.36,1.36h0c-.76,0-1.36-.61-1.36-1.36Zm-7.09,0c0-.76,.61-1.36,1.36-1.36h0c.76,0,1.36,.61,1.36,1.36h0c0,.76-.61,1.36-1.36,1.36h0c-.75,0-1.36-.61-1.36-1.36Zm-7.09,0c0-.76,.62-1.36,1.36-1.36h0c.76,0,1.37,.61,1.37,1.36h0c0,.76-.62,1.36-1.37,1.36h0c-.75,0-1.36-.61-1.36-1.36Zm-7.09,0c0-.76,.62-1.36,1.37-1.36h0c.75,0,1.36,.61,1.36,1.36h0c0,.76-.61,1.36-1.36,1.36h0c-.76,0-1.37-.61-1.37-1.36Zm-7.08,0c0-.76,.61-1.36,1.36-1.36h0c.75,0,1.36,.61,1.36,1.36h0c0,.76-.61,1.36-1.36,1.36h0c-.76,0-1.36-.61-1.36-1.36Zm-7.09,0c0-.76,.62-1.36,1.36-1.36h0c.76,0,1.36,.61,1.36,1.36h0c0,.76-.61,1.36-1.36,1.36h0c-.75,0-1.36-.61-1.36-1.36Zm-7.09,0c0-.76,.62-1.36,1.36-1.36h0c.76,0,1.37,.61,1.37,1.36h0c0,.76-.62,1.36-1.37,1.36h0c-.75,0-1.36-.61-1.36-1.36Zm-7.09,0c0-.76,.62-1.36,1.37-1.36h0c.75,0,1.36,.61,1.36,1.36h0c0,.76-.62,1.36-1.36,1.36h0c-.76,0-1.37-.61-1.37-1.36Zm-7.08,0c0-.76,.61-1.36,1.36-1.36h0c.76,0,1.36,.61,1.36,1.36h0c0,.76-.61,1.36-1.36,1.36h0c-.76,0-1.36-.61-1.36-1.36Zm-7.09,0c0-.76,.62-1.36,1.36-1.36h0c.76,0,1.36,.61,1.36,1.36h0c0,.76-.61,1.36-1.36,1.36h0c-.75,0-1.36-.61-1.36-1.36Zm-7.09,0c0-.76,.62-1.36,1.36-1.36h0c.76,0,1.37,.61,1.37,1.36h0c0,.76-.62,1.36-1.37,1.36h0c-.75,0-1.36-.61-1.36-1.36Zm-7.09,0c0-.76,.62-1.36,1.37-1.36h0c.75,0,1.36,.61,1.36,1.36h0c0,.76-.62,1.36-1.36,1.36h0c-.76,0-1.37-.61-1.37-1.36Zm-7.08,0c0-.76,.61-1.36,1.36-1.36h0c.76,0,1.36,.61,1.36,1.36h0c0,.76-.61,1.36-1.36,1.36h0c-.75,0-1.36-.61-1.36-1.36Zm-7.09,0c0-.76,.61-1.36,1.36-1.36h0c.76,0,1.36,.61,1.36,1.36h0c0,.76-.61,1.36-1.36,1.36h0c-.75,0-1.36-.61-1.36-1.36Zm-7.09,0c0-.76,.62-1.36,1.36-1.36h0c.76,0,1.37,.61,1.37,1.36h0c0,.76-.62,1.36-1.37,1.36h0c-.75,0-1.36-.61-1.36-1.36Zm-7.09,0c0-.76,.62-1.36,1.37-1.36h0c.75,0,1.36,.61,1.36,1.36h0c0,.76-.62,1.36-1.36,1.36h0c-.76,0-1.37-.61-1.37-1.36Zm-7.08,0c0-.76,.61-1.36,1.36-1.36h0c.76,0,1.36,.61,1.36,1.36h0c0,.76-.61,1.36-1.36,1.36h0c-.75,0-1.36-.61-1.36-1.36Zm-7.09,0c0-.76,.61-1.36,1.36-1.36h0c.76,0,1.36,.61,1.36,1.36h0c0,.76-.61,1.36-1.36,1.36h0c-.75,0-1.36-.61-1.36-1.36Zm-7.09,0c0-.76,.62-1.36,1.36-1.36h0c.76,0,1.37,.61,1.37,1.36h0c0,.76-.62,1.36-1.37,1.36h0c-.75,0-1.36-.61-1.36-1.36Zm-7.09,0c0-.76,.62-1.36,1.37-1.36h0c.75,0,1.36,.61,1.36,1.36h0c0,.76-.62,1.36-1.36,1.36h0c-.76,0-1.37-.61-1.37-1.36Zm-7.08,0c0-.76,.61-1.36,1.36-1.36h0c.76,0,1.36,.61,1.36,1.36h0c0,.76-.61,1.36-1.36,1.36h0c-.75,0-1.36-.61-1.36-1.36Zm-7.09,0c0-.76,.61-1.36,1.36-1.36h0c.76,0,1.36,.61,1.36,1.36h0c0,.76-.61,1.36-1.36,1.36h0c-.75,0-1.36-.61-1.36-1.36Z"/><path class="cls-2" d="M506.59,161.82c-.36,0-.71-.15-.96-.4-.07-.06-.12-.13-.17-.21-.05-.07-.09-.15-.13-.23-.03-.08-.06-.17-.08-.25-.02-.09-.02-.18-.02-.27,0-.36,.15-.71,.4-.96,.32-.32,.79-.46,1.23-.38,.09,.02,.18,.05,.26,.08,.08,.04,.15,.08,.23,.13,.08,.05,.15,.1,.21,.17,.25,.25,.4,.6,.4,.96s-.15,.71-.4,.96c-.06,.06-.13,.12-.21,.17-.08,.05-.15,.09-.23,.13-.09,.03-.17,.05-.26,.08-.08,.02-.18,.02-.26,.02Z"/></g><g><path class="cls-2" d="M312.75,139.25l.23,1.31c.14,.77-.49,1.47-1.27,1.42l-7-.46c-.56-.04-1.02-.45-1.11-1l-3.51-19.88-3.08,10.48c-.2,.68-.94,1.05-1.61,.79l-3.7-1.46,6.12,34.68c.13,.73-.43,1.41-1.17,1.42l-12.09,.23c-.6,.01-1.11-.41-1.21-1l-5.22-29.6-2.2,7.51c-.25,.85-1.3,1.15-1.96,.57l-8.33-7.33c-.36-.32-.5-.82-.35-1.28l7.05-21.68-8.18,1.44c-.74,.13-1.42-.44-1.42-1.2l.03-13c0-1,1.15-1.57,1.95-.96l2.16,1.65,4.96-1.4-3.06-17.38-2.85-1.89c-.87-.58-.65-1.91,.36-2.18l14.34-3.84c.69-.18,1.38,.26,1.51,.96l3.71,21.03,5.5-1.15c.59-.12,1.18,.21,1.39,.78l4.56,12.73-8.99,1.59,.77,4.35,6.95,3.36,3.5-1.45-.73-4.14-2.03-1.21c-.87-.52-.76-1.81,.19-2.17l8.59-3.26c.71-.27,1.49,.17,1.62,.92l.21,1.19,9.33-2.29c.68-.17,1.36,.28,1.48,.97l5.07,28.76c.12,.66-.32,1.29-.98,1.4l-9.52,1.68Zm41.47-8.87c-.69,2.6-1.56,5.09-2.56,7.63-.28,.7-1.13,.98-1.77,.57l-10.85-6.88,1.69,9.61c.13,.73-.43,1.41-1.18,1.42l-15.25,.2c-1.1,.01-1.65-1.33-.85-2.09l2.59-2.47-5.93-33.65-10.71-.51c-.73-.03-1.26-.7-1.13-1.42l2.59-14.46-16.87,2.98c-.74,.13-1.42-.44-1.42-1.19l-.04-13.69c0-.97,1.07-1.55,1.88-1.01l2.83,1.88c10.71-2.7,38.73-8.44,48.69-10.25,.56-.1,1.1,.2,1.32,.72l5.04,11.76c.31,.72-.13,1.53-.9,1.67l-25.07,4.42-1.36,6.49,5.42-1.63c.69-.21,1.41,.24,1.54,.95l4.5,25.54,4.7-7.71c.35-.57,1.1-.75,1.67-.4l2.24,1.39c.05-2.09-.02-4.27-.13-6.65l-8.76,1.54c-.75,.13-1.43-.45-1.42-1.22l.23-12.25c.02-.97,1.11-1.52,1.9-.97l2.3,1.61c4.04-1.29,8.9-2.46,14.4-3.72,.68-.16,1.36,.3,1.47,.98,1.83,10.84,2.26,19.76,1.59,27.9l3.29,2.13,1.99-.78c.95-.37,1.91,.54,1.59,1.51l-3.92,11.85c-.25,.76-1.17,1.07-1.83,.62l-3.53-2.41Zm-49.03,31.26l.08-12.86c0-.97,1.09-1.54,1.89-.99l2.86,1.95c11.92-2.92,36.82-7.92,50.92-10.63,.55-.11,1.1,.18,1.33,.7l4.84,10.84c.32,.72-.12,1.55-.9,1.69l-59.59,10.51c-.74,.13-1.43-.44-1.42-1.2Zm6.71-42.56l-2.63,.46,1.66,9.4,2.63-.46-1.66-9.4Zm28.97,9.48c.81-1.91,1.52-3.81,2.12-5.69l-6.25-4.11,1.85,10.51,2.27-.71Z"/><path d="M310.92,137.42l.23,1.31c.14,.77-.49,1.47-1.27,1.42l-7-.46c-.56-.04-1.02-.45-1.11-1l-3.51-19.88-3.08,10.48c-.2,.68-.94,1.05-1.61,.79l-3.7-1.46,6.12,34.68c.13,.73-.43,1.41-1.17,1.42l-12.09,.23c-.6,.01-1.11-.41-1.21-1l-5.22-29.6-2.2,7.51c-.25,.85-1.3,1.15-1.96,.57l-8.33-7.33c-.36-.32-.5-.82-.35-1.28l7.05-21.68-8.18,1.44c-.74,.13-1.42-.44-1.42-1.2l.03-13c0-1,1.15-1.57,1.95-.96l2.16,1.65,4.96-1.4-3.06-17.38-2.85-1.89c-.87-.58-.65-1.91,.36-2.18l14.34-3.84c.69-.18,1.38,.26,1.51,.96l3.71,21.03,5.5-1.15c.59-.12,1.18,.21,1.39,.78l4.56,12.73-8.99,1.59,.77,4.35,6.95,3.36,3.5-1.45-.73-4.14-2.03-1.21c-.87-.52-.76-1.81,.19-2.17l8.59-3.26c.71-.27,1.49,.17,1.62,.92l.21,1.19,9.33-2.29c.68-.17,1.36,.28,1.48,.97l5.07,28.76c.12,.66-.32,1.29-.98,1.4l-9.52,1.68Zm41.47-8.87c-.69,2.6-1.56,5.09-2.56,7.63-.28,.7-1.13,.98-1.77,.57l-10.85-6.88,1.69,9.61c.13,.73-.43,1.41-1.18,1.42l-15.25,.2c-1.1,.01-1.65-1.33-.85-2.09l2.59-2.47-5.93-33.65-10.71-.51c-.73-.03-1.26-.7-1.13-1.42l2.59-14.46-16.87,2.98c-.74,.13-1.42-.44-1.42-1.19l-.04-13.69c0-.97,1.07-1.55,1.88-1.01l2.83,1.88c10.71-2.7,38.73-8.44,48.69-10.25,.56-.1,1.1,.2,1.32,.72l5.04,11.76c.31,.72-.13,1.53-.9,1.67l-25.07,4.42-1.36,6.49,5.42-1.63c.69-.21,1.41,.24,1.54,.95l4.5,25.54,4.7-7.71c.35-.57,1.1-.75,1.67-.4l2.24,1.39c.05-2.09-.02-4.27-.13-6.65l-8.76,1.54c-.75,.13-1.43-.45-1.42-1.22l.23-12.25c.02-.97,1.11-1.52,1.9-.97l2.3,1.61c4.04-1.29,8.9-2.46,14.4-3.72,.68-.16,1.36,.3,1.47,.98,1.83,10.84,2.26,19.76,1.59,27.9l3.29,2.13,1.99-.78c.95-.37,1.91,.54,1.59,1.51l-3.92,11.85c-.25,.76-1.17,1.07-1.83,.62l-3.53-2.41Zm-49.03,31.26l.08-12.86c0-.97,1.09-1.54,1.89-.99l2.86,1.95c11.92-2.92,36.82-7.92,50.92-10.63,.55-.11,1.1,.18,1.33,.7l4.84,10.84c.32,.72-.12,1.55-.9,1.69l-59.59,10.51c-.74,.13-1.43-.44-1.42-1.2Zm6.71-42.56l-2.63,.46,1.66,9.4,2.63-.46-1.66-9.4Zm28.97,9.48c.81-1.91,1.52-3.81,2.12-5.69l-6.25-4.11,1.85,10.51,2.27-.71Z"/></g><g><g><path class="cls-2" d="M349.57,229.29c15.51-15.89,26.47-27.74,27.84-35.56,.64-3.65-1.4-7.32-4.95-7.95-4.13-.73-7.69,3.21-9.35,5.46-.53,.71-1.59,.7-2.14,0-3.4-4.34-6.89-7.77-9.35-10.05-.53-.49-.58-1.32-.09-1.86,2.87-3.2,12.93-12.77,28.4-10.04,11.2,1.97,19.93,10.85,17.77,23.1-2.25,12.76-16.06,26.62-16.06,26.62l3.21,.57c3.22,.57,6.77,.88,8.79,1.02,.85,.06,1.42,.87,1.19,1.69-.75,2.63-1.62,6.18-2.38,10.54-.26,1.48-.51,4.21-.66,6.11-.08,.94-1.05,1.51-1.9,1.1-2.78-1.34-9.37-3.85-23.03-6.26-13.37-2.36-13.79-1.92-18.22-2.53-.17-.02-.42-.22-.4-.39,.06-.5,1.33-1.56,1.33-1.56Z"/><path d="M347.73,227.45c15.51-15.89,26.47-27.74,27.84-35.56,.64-3.65-1.4-7.32-4.95-7.95-4.13-.73-7.69,3.21-9.35,5.46-.53,.71-1.59,.7-2.14,0-3.4-4.34-6.89-7.77-9.35-10.05-.53-.49-.58-1.32-.09-1.86,2.87-3.2,12.93-12.77,28.4-10.04,11.2,1.97,19.93,10.85,17.77,23.1-2.25,12.76-16.06,26.62-16.06,26.62l3.21,.57c3.22,.57,6.77,.88,8.79,1.02,.85,.06,1.42,.87,1.19,1.69-.75,2.63-1.62,6.18-2.38,10.54-.26,1.48-.51,4.21-.66,6.11-.08,.94-1.05,1.51-1.9,1.1-2.78-1.34-9.37-3.85-23.03-6.26-13.37-2.36-13.79-1.92-18.22-2.53-.17-.02-.42-.22-.4-.39,.06-.5,1.33-1.56,1.33-1.56Z"/></g><path class="cls-2" d="M422.64,188.21l-17.06-.37v-.13c0-.68-.08-1.35-.23-2.02l16.63-3.8c.44,1.91,.66,3.87,.66,5.82,0,.17,0,.33,0,.5Zm-20.1-7.26c-.54-.48-1.15-.89-1.81-1.24l7.88-15.13c1.88,.98,3.64,2.18,5.21,3.58l-11.29,12.79Z"/></g></g></g></g></g></g></svg>