<?xml version="1.0" encoding="UTF-8"?><svg id="_レイヤー_2" xmlns="http://www.w3.org/2000/svg" viewBox="0 0 291.98 96.99"><defs><style>.cls-1{fill:#111;}</style></defs><g id="img"><g><path class="cls-1" d="M1.56,.22H7.48c1.69,0,2.62,.26,3.41,.95,.79,.73,1.23,1.87,1.23,3.19,0,1.56-.51,2.6-1.69,3.37l.22,.13c.7,.48,.88,.66,1.14,1.12,.42,.7,.62,1.61,.62,2.64,0,1.56-.48,2.75-1.41,3.48-.77,.62-1.63,.84-3.23,.84H1.56V.22ZM7.31,6.93c.86,0,1.34-.13,1.78-.51,.42-.35,.7-1.12,.7-1.92,0-1.63-.79-2.4-2.49-2.4H3.89V6.93h3.41Zm.31,7.11c1.67,0,2.46-.84,2.46-2.6s-.81-2.62-2.46-2.62H3.89v5.21h3.72Z"/><path class="cls-1" d="M16.54,6.16c0-2.24,.35-3.5,1.3-4.53,1.03-1.14,2.35-1.63,4.38-1.63,2.16,0,3.59,.59,4.58,1.89,.77,.99,1.08,2.2,1.08,4.27v3.83c0,2.24-.35,3.52-1.3,4.53-1.03,1.14-2.35,1.63-4.36,1.63-2.18,0-3.61-.59-4.6-1.89-.77-.99-1.08-2.2-1.08-4.27v-3.83Zm8.98,.22c0-3.15-.99-4.47-3.3-4.47s-3.32,1.32-3.32,4.47v3.39c0,3.15,.99,4.47,3.32,4.47s3.3-1.32,3.3-4.47v-3.39Z"/><path class="cls-1" d="M33.07,.22h9.33v1.94h-6.98V7.13h5.9v1.94h-5.9v6.87h-2.35V.22Z"/><path class="cls-1" d="M48.67,.22V10.12c0,1.52,.13,2.22,.48,2.84,.55,.9,1.32,1.28,2.68,1.28s2.27-.44,2.77-1.47c.26-.57,.37-1.32,.37-2.64V.22h2.35V10.12c0,2.27-.22,3.28-.97,4.2-.99,1.28-2.35,1.83-4.53,1.83-2.33,0-3.83-.66-4.78-2.09-.57-.88-.75-1.85-.75-3.94V.22h2.35Z"/><path class="cls-1" d="M65.19,15.93h-2.35V.22h5.59c1.94,0,3.04,.33,3.85,1.14,.77,.77,1.12,1.8,1.12,3.32,0,2.6-.95,3.94-3.1,4.42l3.43,6.82h-2.6l-3.15-6.6h-2.79v6.6Zm3.15-8.47c1.89,0,2.73-.84,2.73-2.66s-.88-2.68-2.86-2.68h-3.06V7.46h3.19Z"/><path class="cls-1" d="M78.3,.22h2.35V15.93h-2.35V.22Z"/><path class="cls-1" d="M86.06,4.73h2.35v2.49h-2.35v-2.49Zm0,8.71h2.35v2.49h-2.35v-2.49Z"/><path class="cls-1" d="M1.56,44.22H3.92v15.71H1.56v-15.71Z"/><path class="cls-1" d="M15.18,44.22h5.17c3.98-.07,5.94,1.96,5.83,6.03v3.65c.11,4.07-1.85,6.07-5.83,6.03h-5.17v-15.71Zm4.75,13.82c2.77,.04,3.87-1.17,3.89-4.33v-3.26c-.02-3.17-1.12-4.4-3.89-4.33h-2.4v11.93h2.4Z"/><path class="cls-1" d="M30.67,53.48c0-3.43,1.45-4.95,4.73-4.95s4.71,1.52,4.71,4.95v1.72c0,3.43-1.45,4.95-4.71,4.95s-4.73-1.52-4.73-4.95v-1.72Zm7.19,.15c0-2.29-.75-3.3-2.49-3.3s-2.46,1.01-2.46,3.3v1.41c0,2.29,.75,3.3,2.46,3.3s2.49-1.01,2.49-3.3v-1.41Z"/><path class="cls-1" d="M44.62,48.75h1.72l.18,1.12c.7-.95,1.58-1.34,3.06-1.34,1.96,0,3.21,.73,3.74,2.16,.22,.64,.33,1.5,.33,2.84v6.4h-2.24v-6.16c0-2.38-.62-3.32-2.2-3.32-1.69,0-2.33,1.03-2.33,3.76v5.72h-2.24v-11.18Z"/><path class="cls-1" d="M58.08,44.22h2.35l-1.23,5.43h-1.89l.77-5.43Z"/><path class="cls-1" d="M63.21,50.56v-1.8h1.3l.11-3.41h2.13v3.41h2.2v1.8h-2.2v5.41c0,1.63,.44,2.16,1.89,2.11h.35v1.85h-.4c-3.34,0-4.09-.77-4.09-4.18v-5.19h-1.3Z"/><path class="cls-1" d="M77.46,44.22h2.35l2.77,12.34,3.3-12.34h1.74l3.32,12.34,2.75-12.34h2.38l-3.98,15.71h-2.07l-3.26-11.82-3.28,11.82h-2.05l-3.98-15.71Z"/><path class="cls-1" d="M105.6,52.65c0-1.63-.64-2.31-2.18-2.31-.99,0-1.83,.37-2.46,1.12l-1.54-1.14c.99-1.21,2.33-1.78,4.22-1.78s3.15,.59,3.76,1.76c.33,.62,.44,1.34,.44,2.73v6.91h-1.78l-.15-.73c-.7,.7-1.52,.95-3.15,.95-2.82,0-3.85-.9-3.85-3.41s1.06-3.45,4.22-3.45h2.46v-.64Zm-2.22,2.22c-1.69,0-2.33,.51-2.33,1.83s.57,1.69,2.27,1.69c1.06,0,1.67-.2,2.02-.66,.2-.29,.26-.59,.26-1.41v-1.45h-2.22Z"/><path class="cls-1" d="M112.64,48.75h1.72l.18,1.12c.7-.95,1.58-1.34,3.06-1.34,1.96,0,3.21,.73,3.74,2.16,.22,.64,.33,1.5,.33,2.84v6.4h-2.24v-6.16c0-2.38-.62-3.32-2.2-3.32-1.69,0-2.33,1.03-2.33,3.76v5.72h-2.24v-11.18Z"/><path class="cls-1" d="M125.49,50.56v-1.8h1.3l.11-3.41h2.13v3.41h2.2v1.8h-2.2v5.41c0,1.63,.44,2.16,1.89,2.11h.35v1.85h-.4c-3.34,0-4.09-.77-4.09-4.18v-5.19h-1.3Z"/><path class="cls-1" d="M140.01,50.56v-1.8h1.3l.11-3.41h2.13v3.41h2.2v1.8h-2.2v5.41c0,1.63,.44,2.16,1.89,2.11h.35v1.85h-.4c-3.34,0-4.09-.77-4.09-4.18v-5.19h-1.3Z"/><path class="cls-1" d="M149.42,53.48c0-3.43,1.45-4.95,4.73-4.95s4.71,1.52,4.71,4.95v1.72c0,3.43-1.45,4.95-4.71,4.95s-4.73-1.52-4.73-4.95v-1.72Zm7.19,.15c0-2.29-.75-3.3-2.49-3.3s-2.46,1.01-2.46,3.3v1.41c0,2.29,.75,3.3,2.46,3.3s2.49-1.01,2.49-3.3v-1.41Z"/><path class="cls-1" d="M175.05,51.5h5.28v2.53c0,2.18-.31,3.34-1.14,4.36-.99,1.19-2.42,1.76-4.44,1.76-2.27,0-3.72-.62-4.69-1.96-.75-1.01-1.01-2.22-1.01-4.47v-3.28c0-2.42,.33-3.7,1.23-4.73,.99-1.14,2.33-1.67,4.31-1.67,3.28,0,5.1,1.45,5.26,4.2l-2.18,.15c-.22-1.61-1.25-2.44-2.99-2.44-2.38,0-3.28,1.28-3.28,4.64v2.99c0,3.39,.9,4.64,3.3,4.64,2.22,0,3.3-1.21,3.3-3.7v-1.21h-2.95v-1.83Z"/><path class="cls-1" d="M186.85,55.27c0,2.02,.97,3.1,2.77,3.1,1.12,0,1.83-.33,2.42-1.12l1.67,.99c-.92,1.36-2.18,1.91-4.31,1.91-3.32,0-4.8-1.63-4.8-5.3v-.86c0-3.83,1.39-5.46,4.66-5.46s4.67,1.63,4.67,5.46v.88h-7.08v.4Zm4.95-2v-.22c0-1.8-.86-2.77-2.46-2.77-1.01,0-1.65,.31-2.05,.99-.26,.44-.44,1.14-.44,1.8v.2h4.95Z"/><path class="cls-1" d="M197.32,50.56v-1.8h1.3l.11-3.41h2.13v3.41h2.2v1.8h-2.2v5.41c0,1.63,.44,2.16,1.89,2.11h.35v1.85h-.4c-3.34,0-4.09-.77-4.09-4.18v-5.19h-1.3Z"/><path class="cls-1" d="M213.14,44.22h2.35v6.8h6.03v-6.8h2.35v15.71h-2.35v-6.97h-6.03v6.97h-2.35v-15.71Z"/><path class="cls-1" d="M231.24,48.75v6.18c0,2.35,.59,3.3,2.09,3.3,1.58,0,2.2-1.03,2.2-3.76v-5.72h2.24v11.18h-1.63l-.24-1.14c-.62,.97-1.5,1.36-2.95,1.36-1.89,0-3.12-.73-3.63-2.16-.22-.62-.33-1.5-.33-2.84v-6.4h2.24Z"/><path class="cls-1" d="M242.66,48.75h1.74l.24,.95c.7-.86,1.36-1.17,2.51-1.17,.81,0,1.43,.18,2.27,.64l-.97,1.87c-.57-.42-.99-.57-1.52-.57-1.43,0-2.02,1.19-2.02,4.03v5.43h-2.24v-11.18Z"/><path class="cls-1" d="M251.44,50.56v-1.8h1.3l.11-3.41h2.13v3.41h2.2v1.8h-2.2v5.41c0,1.63,.44,2.16,1.89,2.11h.35v1.85h-.4c-3.34,0-4.09-.77-4.09-4.18v-5.19h-1.3Z"/><path class="cls-1" d="M261.56,57.47h2.49l-1.54,6.6h-2l1.06-6.6Z"/><path class="cls-1" d="M1.63,89.22c.75,.88,1.36,1.14,2.77,1.14,1.69,0,2.53-.55,2.53-1.65,0-.55-.24-.99-.68-1.19-.42-.2-.55-.22-1.94-.4-1.52-.2-2.24-.44-2.79-.9-.62-.51-.92-1.28-.92-2.27,0-2.22,1.36-3.43,3.87-3.43,2.02,0,3.32,.62,4.2,1.96l-1.65,.97c-.66-.84-1.28-1.14-2.38-1.14-1.23,0-1.91,.55-1.91,1.54,0,.48,.22,.88,.62,1.1,.35,.18,.68,.26,1.58,.37,1.74,.2,2.49,.42,3.12,.88,.66,.46,1.01,1.36,1.01,2.55,0,2.29-1.5,3.39-4.58,3.39-2.2,0-3.72-.66-4.49-1.91l1.63-1.01Z"/><path class="cls-1" d="M12.78,85.48c0-3.43,1.45-4.95,4.73-4.95s4.71,1.52,4.71,4.95v1.72c0,3.43-1.45,4.95-4.71,4.95s-4.73-1.52-4.73-4.95v-1.72Zm7.19,.15c0-2.29-.75-3.3-2.49-3.3s-2.46,1.01-2.46,3.3v1.41c0,2.29,.75,3.3,2.46,3.3s2.49-1.01,2.49-3.3v-1.41Z"/><path class="cls-1" d="M32.78,76.22h2.35v15.71h-2.35v-15.71Z"/><path class="cls-1" d="M40,76.22h2.35l-1.23,5.43h-1.89l.77-5.43Z"/><path class="cls-1" d="M48.31,76.22v11.75c0,1.63,.44,2.13,1.91,2.13h.48v1.83h-.57c-3.26,0-4.07-.84-4.07-4.18v-11.53h2.25Z"/><path class="cls-1" d="M56.21,76.22v11.75c0,1.63,.44,2.13,1.91,2.13h.48v1.83h-.57c-3.26,0-4.07-.84-4.07-4.18v-11.53h2.24Z"/><path class="cls-1" d="M67.94,76.22h2.24l4.62,9.68,4.62-9.68h2.24v15.71h-2.27v-11.22l-3.85,7.94h-1.5l-3.85-7.94v11.22h-2.27v-15.71Z"/><path class="cls-1" d="M92.77,84.65c0-1.63-.64-2.31-2.18-2.31-.99,0-1.83,.37-2.46,1.12l-1.54-1.14c.99-1.21,2.33-1.78,4.22-1.78s3.15,.59,3.76,1.76c.33,.62,.44,1.34,.44,2.73v6.91h-1.78l-.15-.73c-.7,.7-1.52,.95-3.15,.95-2.82,0-3.85-.9-3.85-3.41s1.06-3.45,4.22-3.45h2.46v-.64Zm-2.22,2.22c-1.69,0-2.33,.51-2.33,1.83s.57,1.69,2.27,1.69c1.06,0,1.67-.2,2.02-.66,.2-.29,.26-.59,.26-1.41v-1.45h-2.22Z"/><path class="cls-1" d="M98.63,80.75h2.53l2.31,3.74,2.24-3.74h2.42l-3.56,5.5,3.5,5.68h-2.53l-2.42-3.92-2.33,3.92h-2.44l3.65-5.72-3.37-5.46Z"/><path class="cls-1" d="M117.28,82.16c0-2.24,.35-3.5,1.3-4.53,1.03-1.14,2.35-1.63,4.38-1.63,2.16,0,3.59,.59,4.58,1.89,.77,.99,1.08,2.2,1.08,4.27v3.83c0,2.24-.35,3.52-1.3,4.53-1.03,1.14-2.35,1.63-4.36,1.63-2.18,0-3.61-.59-4.6-1.89-.77-.99-1.08-2.2-1.08-4.27v-3.83Zm8.98,.22c0-3.15-.99-4.47-3.3-4.47s-3.32,1.32-3.32,4.47v3.39c0,3.15,.99,4.47,3.32,4.47s3.3-1.32,3.3-4.47v-3.39Z"/><path class="cls-1" d="M135.61,80.75v6.18c0,2.35,.59,3.3,2.09,3.3,1.58,0,2.2-1.03,2.2-3.76v-5.72h2.24v11.18h-1.63l-.24-1.14c-.62,.97-1.5,1.36-2.95,1.36-1.89,0-3.12-.73-3.63-2.16-.22-.62-.33-1.5-.33-2.84v-6.4h2.24Z"/><path class="cls-1" d="M146.06,82.56v-1.8h1.3l.11-3.41h2.13v3.41h2.2v1.8h-2.2v5.41c0,1.63,.44,2.16,1.89,2.11h.35v1.85h-.4c-3.34,0-4.09-.77-4.09-4.18v-5.19h-1.3Z"/><path class="cls-1" d="M161.88,76.22h2.24l4.62,9.68,4.62-9.68h2.24v15.71h-2.27v-11.22l-3.85,7.94h-1.5l-3.85-7.94v11.22h-2.27v-15.71Z"/><path class="cls-1" d="M179.43,80.75h2.27l2.88,8.62,2.62-8.62h2.27l-4.22,12.59c-1.12,3.17-1.74,3.63-5,3.65v-1.85c1.72,.02,2.07-.24,2.71-2l.44-1.32-3.96-11.07Z"/><path class="cls-1" d="M199.1,76.22h5.17c3.98-.07,5.94,1.96,5.83,6.03v3.65c.11,4.07-1.85,6.07-5.83,6.03h-5.17v-15.71Zm4.75,13.82c2.77,.04,3.87-1.17,3.89-4.33v-3.26c-.02-3.17-1.12-4.4-3.89-4.33h-2.4v11.93h2.4Z"/><path class="cls-1" d="M216.83,87.27c0,2.02,.97,3.1,2.77,3.1,1.12,0,1.83-.33,2.42-1.12l1.67,.99c-.92,1.36-2.18,1.91-4.31,1.91-3.32,0-4.8-1.63-4.8-5.3v-.86c0-3.83,1.39-5.46,4.66-5.46s4.67,1.63,4.67,5.46v.88h-7.08v.4Zm4.95-2v-.22c0-1.8-.86-2.77-2.46-2.77-1.01,0-1.65,.31-2.05,.99-.26,.44-.44,1.14-.44,1.8v.2h4.95Z"/><path class="cls-1" d="M227.41,82.56v-1.8h1.34v-1.52c0-2.33,.84-3.08,3.41-3.01h1.12v1.72h-.66c-1.34-.02-1.63,.24-1.63,1.52v1.3h2.42v1.8h-2.42v9.37h-2.24v-9.37h-1.34Z"/><path class="cls-1" d="M238.94,87.27c0,2.02,.97,3.1,2.77,3.1,1.12,0,1.83-.33,2.42-1.12l1.67,.99c-.92,1.36-2.18,1.91-4.31,1.91-3.32,0-4.8-1.63-4.8-5.3v-.86c0-3.83,1.39-5.46,4.66-5.46s4.67,1.63,4.67,5.46v.88h-7.08v.4Zm4.95-2v-.22c0-1.8-.86-2.77-2.46-2.77-1.01,0-1.65,.31-2.05,.99-.26,.44-.44,1.14-.44,1.8v.2h4.95Z"/><path class="cls-1" d="M250.38,80.75h1.72l.18,1.12c.7-.95,1.58-1.34,3.06-1.34,1.96,0,3.21,.73,3.74,2.16,.22,.64,.33,1.5,.33,2.84v6.4h-2.24v-6.16c0-2.38-.62-3.32-2.2-3.32-1.69,0-2.33,1.03-2.33,3.76v5.72h-2.24v-11.18Z"/><path class="cls-1" d="M264.59,89.22c.75,.88,1.36,1.14,2.77,1.14,1.69,0,2.53-.55,2.53-1.65,0-.55-.24-.99-.68-1.19-.42-.2-.55-.22-1.94-.4-1.52-.2-2.24-.44-2.79-.9-.62-.51-.92-1.28-.92-2.27,0-2.22,1.36-3.43,3.87-3.43,2.02,0,3.32,.62,4.2,1.96l-1.65,.97c-.66-.84-1.28-1.14-2.38-1.14-1.23,0-1.91,.55-1.91,1.54,0,.48,.22,.88,.62,1.1,.35,.18,.68,.26,1.58,.37,1.74,.2,2.49,.42,3.12,.88,.66,.46,1.01,1.36,1.01,2.55,0,2.29-1.5,3.39-4.58,3.39-2.2,0-3.72-.66-4.49-1.91l1.63-1.01Z"/><path class="cls-1" d="M277.99,87.27c0,2.02,.97,3.1,2.77,3.1,1.12,0,1.83-.33,2.42-1.12l1.67,.99c-.92,1.36-2.18,1.91-4.31,1.91-3.32,0-4.8-1.63-4.8-5.3v-.86c0-3.83,1.39-5.46,4.66-5.46s4.67,1.63,4.67,5.46v.88h-7.08v.4Zm4.95-2v-.22c0-1.8-.86-2.77-2.46-2.77-1.01,0-1.65,.31-2.05,.99-.26,.44-.44,1.14-.44,1.8v.2h4.95Z"/><path class="cls-1" d="M289.63,89.44h2.35v2.49h-2.35v-2.49Z"/></g></g></svg>