<svg xmlns="http://www.w3.org/2000/svg" viewBox="0 0 104.33 99.41"><defs><style>.cls-1{fill:#001111;}</style></defs><title>LINE</title><g id="レイヤー_2" data-name="レイヤー 2"><g id="ICON"><path class="cls-1" d="M104.33,42.33C104.33,19,80.93,0,52.16,0S0,19,0,42.33C0,63.26,18.56,80.78,43.63,84.1c1.69.36,4,1.12,4.59,2.57a10.6,10.6,0,0,1,.17,4.72l-.74,4.46c-.23,1.32-1,5.16,4.51,2.81S82.21,81,93.15,68.38h0C100.71,60.09,104.33,51.67,104.33,42.33ZM33.76,54.79a1,1,0,0,1-1,1H18.13a1,1,0,0,1-.7-.28l0,0h0a1,1,0,0,1-.29-.7h0V32.07a1,1,0,0,1,1-1h3.66a1,1,0,0,1,1,1v18h10a1,1,0,0,1,1,1Zm8.82,0a1,1,0,0,1-1,1H37.91a1,1,0,0,1-1-1V32.07a1,1,0,0,1,1-1h3.66a1,1,0,0,1,1,1Zm25.19,0a1,1,0,0,1-1,1H63.09a1.09,1.09,0,0,1-.26,0h0l-.07,0h0l0,0-.05,0h0l-.06,0h0a.88.88,0,0,1-.26-.25L51.83,41.3V54.8a1,1,0,0,1-1,1H47.15a1,1,0,0,1-1-1V32.07a1,1,0,0,1,1-1h3.94l.06,0h0l.06,0h0l0,0,0,0,0,0,0,0,.05,0,0,0,.06.06h0l.08.1L62.08,45.57V32.07a1,1,0,0,1,1-1h3.66a1,1,0,0,1,1,1ZM88,35.73a1,1,0,0,1-1,1H77v3.85H87a1,1,0,0,1,1,1v3.66a1,1,0,0,1-1,1H77v3.84H87a1,1,0,0,1,1,1v3.65a1,1,0,0,1-1,1H72.34a1,1,0,0,1-.7-.28l0,0h0a1,1,0,0,1-.29-.7h0V32.07h0a1,1,0,0,1,.29-.7v0h0a1,1,0,0,1,.71-.29H87a1,1,0,0,1,1,1Z"/></g></g></svg>