<?xml version="1.0" encoding="UTF-8"?><svg id="_レイヤー_2" xmlns="http://www.w3.org/2000/svg" viewBox="0 0 230.06 884.21"><defs><style>.cls-1{fill:#011;}</style></defs><g id="img"><g><path class="cls-1" d="M154.38,35.67l-.57-.57v-11.48l.57-.57,13.61,.25h45.84l13.61-.25,.57,.57v11.48l-.57,.57-13.61-.25h-45.84l-13.61,.25Z"/><path class="cls-1" d="M214.32,97.25c1.64-3.03,3.2-6.23,4.76-9.59l.74-.33,8.69,4.51,.33,.82c-3.2,5.82-6.15,10.99-9.68,15.99l10.41-.25,.49,.41v8.86l-.49,.41-10.66-.25h-6.15c-1.72,1.72-3.44,3.44-5.25,5.08h7.22l10.09-.25,.57,.57-.25,8.86v11.23l.41,16.81h-11.07v-3.28h-13.61v3.77h-10.74l.41-17.63v-6.64c-.9,.57-1.8,1.23-2.71,1.8-.57,.33-.98,.57-1.39,.57s-.74-.25-1.07-.74l-4.26-5.9c1.89,5.82,2.87,10.25,3.69,15.66l-.33,.74-7.05,2.54-.57-.41c-.74-5.82-1.72-11.97-3.03-17.06l.41-.57,5.99-1.89,.33,.16-.49-.74c7.54-4.02,13.2-7.95,18.45-12.71h-6.31l-10,.25c.9,2.79,1.72,5.74,2.21,8.77l-.33,.66-6.81,2.38-.66-.41c-.16-.98-.33-1.97-.57-2.95-.82,.16-1.72,.33-2.62,.41v14.1l.41,20.17h-10.5l.41-20.17v-12.55c-2.95,.49-6.15,.9-9.51,1.31l-.74-.41-1.89-8.77,.57-.57c1.97,0,3.94-.08,5.82-.16,1.64-2.3,3.2-4.67,4.67-7.05-3.53-3.61-7.05-6.4-11.4-9.35v-.66l4.43-6.64h.66c.66,.41,1.31,.82,1.97,1.31,2.21-4.35,4.35-9.51,6.15-14.51l.74-.33,8.69,3.36,.25,.74c-3.28,6.89-5.9,11.64-8.69,16.24,.74,.57,1.39,1.15,2.05,1.8,2.05-3.61,4.02-7.3,6.07-11.4l.74-.33,7.95,4.26,.25,.74c-4.92,8.94-8.77,15.09-13.45,21.16,1.72-.16,3.36-.33,5.08-.49-.49-1.48-.98-2.95-1.48-4.26l.49-.66,6.07-2.05,.66,.25c.41,.9,.74,1.8,1.07,2.62v-5.74l.49-.49,10.74,.25h2.87v-7.05l-9.43,.25-.57-.49v-8.45l.49-.49,9.51,.25v-8.45l.57-.66h9.84l.57,.57v8.45l7.79-.16,.49,.41v4.43Zm-51.99,35.59l.49,.57c-.49,8.36-1.23,15.25-2.71,21.48-.25,.9-.49,1.23-.98,1.23-.25,0-.57-.08-.9-.25l-6.81-3.12c1.64-6.72,2.62-13.2,2.79-20.91l.49-.41,7.63,1.39Zm52.15-1.39h-13.61v4.02h13.61v-4.02Zm0,12.55h-13.61v4.35h13.61v-4.35Zm-8.77-42.31v6.97h1.15c1.72-2.21,3.36-4.43,4.84-6.89l-5.99-.08Z"/><path class="cls-1" d="M191.85,188.85c-.74,3.28-1.64,6.48-2.38,9.43,2.87-.57,5.74-1.23,8.61-1.97l.74,.33,1.56,7.22c9.18,.74,17.88,2.62,25.34,6.4l.25,.82-3.36,9.1-.66,.33c-2.62-1.23-4.26-1.39-6.64-1.39-5.25,0-9.76,2.05-9.76,5.74,0,2.54,1.23,6.31,3.61,12.22,6.81,2.95,13.28,6.72,17.88,10.5v.82l-6.89,8.86-.74,.08c-3.53-3.2-6.15-5.49-9.59-7.79-.25,6.64-7.46,10.99-16.73,10.99-10.66,0-17.22-4.26-17.22-12.79,0-7.71,6.56-13.12,15.33-13.12,2.87,0,3.61,.16,5.33,.41-1.23-4.18-1.97-6.81-1.8-10,.16-4.43,4.35-8.2,11.15-10.25-3.2-.57-7.22-.9-11.15-1.15l-.41-.57,2.05-4.67c-3.53,.74-7.13,1.48-10.74,1.97-4.92,13.69-11.15,24.52-19.35,36.08l-.82,.16-9.68-6.23v-.74c6.89-8.28,12.46-17.79,16.56-27.72-4.26,.41-8.61,.66-13.12,.74l-.66-.49-.25-10.09,.57-.57c6.23-.16,12.05-.57,17.63-1.15,1.31-4.59,2.38-9.1,3.12-13.61l.74-.49,10.99,1.89,.49,.74Zm-.98,55.27c-2.79,0-4.43,1.72-4.43,3.12,0,1.97,1.8,3.28,4.76,3.28,4.67,0,7.38-1.64,7.3-4.92-1.89-1.07-3.94-1.48-7.63-1.48Z"/><path class="cls-1" d="M169.06,308.65l10.25,1.97,.49,.74c-1.64,5.99-2.54,11.32-3.28,17.47,6.23-6.48,14.51-10,23.45-10,13.69,0,21.16,8.53,21.16,18.86,0,15.99-15.5,22.88-38.38,24.11-1.48,0-1.97-.08-2.62-1.07l-6.81-10c21.98-.66,34.19-5,34.19-12.87,0-4.92-1.72-8.53-8.53-8.53-7.38,0-16.48,4.1-23.12,15.74l-.82,.41-10-.9-.57-.74c-.16-11.32,1.31-23.12,3.77-34.85l.82-.33Zm6.15-10.58l5.08-8.94,.82-.41c6.4,1.72,12.46,3.77,19.84,7.63l.16,.82-5.58,9.59-.82,.16c-6.64-3.69-12.14-6.15-19.27-8.2l-.25-.66Z"/><path class="cls-1" d="M212.6,382.12c6.48,4.43,11.81,9.27,17.06,16.15v.66l-8.45,7.63h-.74c-5.25-7.3-11.4-13.45-16.65-17.06v-.74l7.95-6.56,.82-.08Z"/><path class="cls-1" d="M19.43,30.59c-.33,.98-.66,1.89-.66,3.03,0,1.8,1.64,2.05,6.23,2.05,.66-4.59,1.15-7.95,1.64-11.4-5.74-.33-10.58-.74-15.01-1.31l-.49-.74,.66-9.51,.66-.49c5.08,.74,10.09,1.23,15.83,1.39,.66-4.51,1.31-9.1,1.8-13.2l.74-.41,11.4,1.31,.57,.74c-.49,3.44-1.15,7.38-1.89,11.4,3.77-.16,7.46-.57,11.32-1.07l.66,.49,.66,9.68-.74,.66c-4.18,.49-8.94,.82-13.78,.98-.66,3.85-1.23,7.71-1.72,11.32,5.33-.33,11.07-1.07,16.89-2.13l.74,.49,1.07,9.59-.49,.66c-7.05,1.15-13.53,1.89-19.52,2.38-.41,3.2-.82,5.82-.82,9.18,0,4.1,1.89,5.66,8.12,5.66,10.99,0,14.02-2.13,14.02-5.49,0-1.72-.82-4.35-4.67-8.53l9.76-3.28c.82-.25,1.48,.08,1.8,.49,5.99,6.31,6.97,10.17,6.97,13.94,0,8.2-6.72,14.27-27.8,14.27-16.07,0-20.67-6.48-20.67-14.84,0-4.67,.41-7.95,.82-11.4-10.91-.57-15.42-2.71-15.42-9.27,0-1.97,.33-4.02,1.48-6.64l.66-.33,8.77-.33,.41,.66Z"/><path class="cls-1" d="M18.78,123.33c19.84-9.1,28.95-12.05,36.82-12.05,12.55,0,20.25,7.79,20.25,19.19,0,8.77-4.59,15.58-12.63,19.19-3.12,1.39-10.33,3.53-18.45,4.51-.57,.08-.98,.08-1.31,.08-1.07,0-1.39-.33-1.97-1.23l-5.33-9.02c10.25-.57,14.68-1.39,19.6-3.44,5.74-2.38,8.04-5.9,8.04-11.4,0-4.92-3.2-7.46-8.69-7.46-6.56,0-13.53,2.46-31.16,11.56l-.82-.08-4.51-9.02,.16-.82Z"/><path class="cls-1" d="M65.03,250.27c-7.54,.57-15.5,.9-25.83,.9-19.68,0-29.11-5.99-29.11-18.86,0-7.46,6.15-14.6,14.84-20.75-4.02-5.74-8.36-12.96-11.97-19.52l.16-.82,9.92-5.17,.82,.25c3.61,6.56,7.71,13.45,11.64,19.11,7.46-3.77,15.83-7.3,24.03-10.33l.82,.33,4.84,10.74-.33,.66c-7.13,2.38-14.43,5.17-19.19,7.22-1.31,1.07-2.05,2.13-2.21,4.1-.25,3.28-3.36,5.33-5.9,5.33-2.21,0-4.02-.82-5.66-2.21-6.4,3.69-9.27,7.13-9.27,10.99,0,5.49,6.97,6.72,16.65,6.72,7.22,0,15.25-.57,25.26-1.64l.66,.49,.33,11.73-.49,.74Z"/><path class="cls-1" d="M8.53,318.49l-.49-.66,.41-7.46v-4.26l-.25-7.05,.57-.57,12.22,.25h.25v-3.77H12.71l-12.14,.25-.57-.49v-7.71l.49-.49,12.22,.25h8.53v-5.25l.57-.57h9.59l.49,.57v5.25h13.61v-5.25l.57-.57h9.92l.49,.57v5.25h8.61l12.22-.25,.49,.41v7.87l-.49,.41-12.22-.25h-8.61v3.77l12.3-.25,.57,.57-.25,7.05v4.26l.25,7.54-.57,.57-11.48-.25H21.48l-12.96,.25Zm-3.85,32.14c9.43-.08,17.22-.98,23.62-2.62-1.89-1.07-3.69-2.05-5.58-3.03-2.13,1.23-4.18,2.38-6.31,3.36-.33,.16-.57,.25-.82,.25-.41,0-.74-.25-1.23-.82l-5.49-6.48c7.63-3.36,13.37-6.97,18.29-12.3H13.45v9.92H1.56l.41-9.1v-1.48l-.25-7.13,.57-.57,13.61,.25H61.75l13.61-.25,.57,.57-.25,6.4v2.21l.41,9.1h-12.14v-9.92h-23.86c-.57,.9-1.23,1.72-1.89,2.54h13.94l5.66-.25,4.67,3.03c.41,.33,.74,.57,.74,.98,0,.33-.16,.74-.57,1.31-8.77,13.86-27.88,22.55-50.76,23.04-1.8,0-2.3-.08-2.87-1.15l-4.35-7.87Zm19.93-44.94h-5.33v5.58h5.33v-5.58Zm6.64,33.05c-.33,.25-.66,.57-.98,.82,2.95,1.39,5.74,2.95,8.53,4.59,3.12-1.56,5.74-3.36,8.12-5.41h-15.66Zm14.27-40.02v-3.77h-13.61v3.77h13.61Zm-4.59,12.55v-5.58h-5.58v5.58h5.58Zm16.73,0v-5.58h-5.74v5.58h5.74Z"/><path class="cls-1" d="M16.4,426.15v4.84H4.26l.41-19.68v-9.35l-.25-9.84,.57-.57,12.22,.25h14.92v-14.84l.57-.57h10.99l.57,.57v14.84h15.99l12.22-.16,.57,.57-.16,9.76v9.1l.41,19.27h-12.46v-4.18h-16.56v4.59l.41,23.94h-12.96l.41-23.94v-4.59h-15.74Zm15.74-24.52h-15.74v14.68h15.74v-14.68Zm28.7,14.68v-14.68h-16.56v14.68h16.56Z"/><path class="cls-1" d="M12.63,478.88l11.32,1.56,.49,.66c-.25,4.76-1.31,9.43-3.77,17.79-1.89,6.81-3.03,13.61-3.03,19.02,0,4.35,.08,6.48,.49,8.28,.25,1.07,1.07,1.15,2.3-.08,1.31-1.48,3.03-3.69,4.18-5.33l2.38,1.23c-2.46,6.97-3.69,12.14-3.85,17.3-.08,3.69-1.89,5.99-5.66,6.07-3.28,.08-5.25-1.72-7.13-5-1.8-3.03-4.1-9.68-4.1-21.48,0-7.38,1.72-17.38,3.61-24.93,1.23-5.41,2.05-9.76,2.13-14.6l.66-.49Zm59.29,60.68c-5.58,.82-11.48,1.31-19.27,1.31-16.48,0-20.83-8.28-22.8-17.38l.41-.74,8.77-4.02,.74,.25c1.56,7.71,4.76,10.17,15.74,10.09,2.71,0,9.68-.57,15.33-1.72l.74,.49,.74,10.99-.41,.74Zm-35.75-52.4c2.71,.08,5.33,.16,7.87,.16,7.79,0,14.92-.57,23.12-1.97l.57,.49,.49,10.33-.49,.66c-6.15,1.31-14.76,2.05-23.7,2.05-2.62,0-5.17,0-7.79-.16l-.57-.74v-10.17l.49-.66Z"/><path class="cls-1" d="M39.85,575.89c-.74,3.28-1.64,6.48-2.38,9.43,2.87-.57,5.74-1.23,8.61-1.97l.74,.33,1.56,7.22c9.18,.74,17.88,2.62,25.34,6.4l.25,.82-3.36,9.1-.66,.33c-2.62-1.23-4.26-1.39-6.64-1.39-5.25,0-9.76,2.05-9.76,5.74,0,2.54,1.23,6.31,3.61,12.22,6.81,2.95,13.28,6.72,17.88,10.5v.82l-6.89,8.86-.74,.08c-3.53-3.2-6.15-5.49-9.59-7.79-.25,6.64-7.46,10.99-16.73,10.99-10.66,0-17.22-4.26-17.22-12.79,0-7.71,6.56-13.12,15.33-13.12,2.87,0,3.61,.16,5.33,.41-1.23-4.18-1.97-6.81-1.8-10,.16-4.43,4.35-8.2,11.15-10.25-3.2-.57-7.22-.9-11.15-1.15l-.41-.57,2.05-4.67c-3.53,.74-7.13,1.48-10.74,1.97-4.92,13.69-11.15,24.52-19.35,36.08l-.82,.16-9.68-6.23v-.74c6.89-8.28,12.46-17.79,16.56-27.72-4.26,.41-8.61,.66-13.12,.74l-.66-.49-.25-10.09,.57-.57c6.23-.16,12.05-.57,17.63-1.15,1.31-4.59,2.38-9.1,3.12-13.61l.74-.49,10.99,1.89,.49,.74Zm-.98,55.27c-2.79,0-4.43,1.72-4.43,3.12,0,1.97,1.8,3.28,4.76,3.28,4.67,0,7.38-1.64,7.3-4.92-1.89-1.07-3.94-1.48-7.63-1.48Z"/><path class="cls-1" d="M30.67,695.61c8.2-8.04,14.02-11.23,20.67-11.23s12.55,2.87,12.55,13.2c0,5.58-.57,10.33-.98,14.51-.33,3.69-.66,8.45-.66,10.41,0,2.21,.25,2.95,1.89,2.95,1.48,0,5.99-2.13,10.25-7.71l3.36,10.99c.49,1.48,.16,2.05-.9,3.03-4.92,4.59-10,6.72-15.58,6.72-6.31,0-11.4-3.03-11.4-12.87,0-3.77,.41-8.61,.82-13.37,.33-3.69,.74-8.04,.74-11.56,0-3.94-.57-4.92-2.87-4.92-2.54,0-5.49,1.8-8.36,4.1-2.87,2.38-6.31,5.74-9.92,9.18-.16,8.61,0,17.71,.49,29.44,0,3.61-2.46,6.48-6.56,6.48-3.28,0-5-2.38-5.99-5.17-.82-2.21-2.87-6.07-6.4-10.09-1.23,1.72-2.46,3.61-3.94,5.74h-.9l-6.56-8.77v-.9c6.48-8.69,12.22-15.58,18.53-23.37,.08-1.8,.08-3.61,.08-5.41-3.36,1.23-6.97,2.95-10.99,5.33l-.9-.25-4.51-9.02,.25-.9c5.82-3.03,11.73-5.41,16.56-7.05,.16-3.85,.33-7.87,.57-12.14l.57-.49,10.74,.08,.57,.66c-.25,3.77-.49,7.46-.66,10.82,1.15,.9,2.3,2.3,2.3,3.94,0,1.48-.57,2.79-2.79,5.99l-.08,1.64Zm-12.87,33.21c.98,.33,1.39,0,1.39-1.64v-8.12c-1.72,2.46-3.85,5.58-5.58,8.04,1.56,.74,3.12,1.39,4.18,1.72Z"/><path class="cls-1" d="M17.06,786.87l-2.13-10.5,.49-.74c12.46-2.79,25.09-4.76,34.03-5.9,4.1,0,7.54,3.2,7.54,7.13,0,1.48-.25,3.03-1.48,4.26-6.64,6.56-11.23,10.74-18.04,17.47,3.94-1.97,6.81-2.13,10.25-2.13,12.38,0,20.66,8.45,20.66,21.16,0,14.92-11.23,23.37-30.18,23.37-9.68,0-17.88-4.02-17.88-13.37,0-5.33,5.9-11.4,12.55-11.4,9.76,0,14.43,6.4,16.65,12.14,4.84-2.3,6.31-6.15,6.31-11.89s-4.35-10.33-11.15-10.33c-11.73,0-20.17,7.71-28.86,18.94l-.82,.08-8.77-7.05-.08-.9c11.32-12.96,21.65-24.27,32.55-35.1-6.23,1.31-13.45,3.03-20.99,5.17l-.66-.41Zm16.65,38.95c-1.64,0-3.12,.66-3.12,2.13,0,1.72,1.89,3.28,6.07,3.28,1.15,0,1.97-.08,2.62-.25-.82-3.53-3.61-5.17-5.58-5.17Z"/><path class="cls-1" d="M77.74,872.64c0,6.56-5.08,11.56-11.64,11.56s-11.64-5-11.64-11.56,5.17-11.56,11.64-11.56,11.64,5,11.64,11.56Zm-18.45,0c0,3.85,2.95,6.81,6.81,6.81s6.81-2.95,6.81-6.81-2.87-6.81-6.81-6.81-6.81,2.95-6.81,6.81Z"/></g></g></svg>