<?xml version="1.0" encoding="UTF-8"?><svg id="_レイヤー_2" xmlns="http://www.w3.org/2000/svg" viewBox="0 0 1453.95 395.79"><defs><style>.cls-1{fill:#011;}</style></defs><g id="_レイヤー_1-2"><g><path class="cls-1" d="M455.46,186.59h-127.56c0-6.25,3.89-12.78,9.71-19.6,28.49-32.94,103.28-64.47,103.28-113.88v-3.41C437.66,3.98,402.04,1.99,395.24,1.99h-.97c-24.61,0-39.82,19.88-44.35,37.49-1.3,4.54-1.94,9.09-1.94,13.63,0,11.36,4.21,22.44,13.92,31.24l-2.27,2.27-37.88-33.51C328.55,23,358.33,0,394.27,0h1.94c40.47,0,69.93,28.4,69.93,58.79,0,18.18-11.33,30.1-29.46,43.17-10.68,7.67-22.34,15.05-41.77,25.56-28.81,15.62-44.68,28.97-53.42,39.48h90.65c16.19,0,30.43-9.09,34.97-22.44,0,0,.32,0,.32-.28l1.94,.57-13.92,41.75Z"/><path class="cls-1" d="M645.19,93.72c0,51.4-33.67,93.15-74.79,93.15s-75.11-41.75-75.11-93.15S528.96,.57,570.4,.57s74.79,41.75,74.79,93.15Zm-22.99,0c0-50.27-23.31-91.16-51.8-91.16s-52.13,40.9-52.13,91.16,23.31,91.16,52.13,91.16,51.8-40.9,51.8-91.16Z"/><path class="cls-1" d="M804.79,186.59h-127.56c0-6.25,3.89-12.78,9.71-19.6,28.49-32.94,103.28-64.47,103.28-113.88v-3.41c-3.24-45.72-38.85-47.71-45.65-47.71h-.97c-24.61,0-39.82,19.88-44.36,37.49-1.3,4.54-1.94,9.09-1.94,13.63,0,11.36,4.21,22.44,13.92,31.24l-2.27,2.27-37.88-33.51c6.8-30.1,36.58-53.11,72.52-53.11h1.94c40.47,0,69.93,28.4,69.93,58.79,0,18.18-11.33,30.1-29.46,43.17-10.68,7.67-22.34,15.05-41.77,25.56-28.81,15.62-44.68,28.97-53.42,39.48h90.65c16.19,0,30.43-9.09,34.97-22.44,0,0,.32,0,.32-.28l1.94,.57-13.92,41.75Z"/><path class="cls-1" d="M997.43,121.55c0,36.35-33.02,65.89-73.82,65.89-35.94,0-66.05-22.72-72.52-53.11l37.56-33.23,2.59,1.99c-10.04,8.8-14.25,20.16-14.25,31.24,0,4.54,.65,9.09,1.94,13.63,4.86,17.61,19.75,37.49,44.68,37.49,28.17,0,51.15-28.68,51.15-63.9s-22.99-63.9-51.15-63.9c-11.01,0-21.04,4.26-29.14,11.36l-1.62-1.42,51.8-46.86h-45.33c-15.86,0-30.43,8.8-34.97,22.15v.28l-2.27-.57,14.25-41.46h93.24l-62.16,55.95c5.18-.85,10.68-1.42,16.19-1.42,40.79,0,73.82,29.54,73.82,65.89Z"/><path class="cls-1" d="M1042.75,169.55c2.27,1.99,3.24,4.26,3.24,7.1,0,2.56-.97,4.83-3.24,6.82-2.27,1.99-5.18,3.12-8.09,3.12s-5.5-1.14-7.77-3.12c-2.27-1.99-3.56-4.26-3.56-6.82,0-2.84,1.29-5.11,3.56-7.1s4.86-2.84,7.77-2.84,5.83,.85,8.09,2.84Z"/><path class="cls-1" d="M1147.97,184.6v1.99h-63.13v-1.99c11.01,0,20.4-7.95,20.4-17.89V26.98c0-4.26-3.56-7.67-8.74-7.67-1.94,0-4.21,.57-6.47,1.7l-4.21,1.7-.97-1.7,42.74-19.88V166.71c0,4.83,2.27,9.37,5.83,12.5,3.88,3.41,8.74,5.4,14.57,5.4Z"/><path class="cls-1" d="M145.81,328.68c0,37.13-32.79,67.11-73.02,67.11S0,365.81,0,328.68s32.56-67.11,72.79-67.11,73.02,29.99,73.02,67.11Zm-16.05,0c0-36.31-25.58-65.69-56.98-65.69s-56.74,29.38-56.74,65.69,25.35,65.69,56.74,65.69,56.98-29.38,56.98-65.69Z"/><path class="cls-1" d="M279.54,262.18v1.22c-7.44,0-13.95,5.51-13.95,12.04v119.95l-93.26-123.62v109.75c0,3.47,1.4,6.53,3.95,8.77,2.79,2.24,6.28,3.67,10.23,3.67v1.43h-30v-1.43c7.67,0,14.19-5.71,14.19-12.44v-109.14c0-1.84-.7-3.47-1.86-4.9-1.86-2.45-4.88-4.08-8.37-4.08h-3.95v-1.22h27.67l79.54,105.26v-91.59c0-6.73-6.28-12.44-14.19-12.44v-1.22h30Z"/><path class="cls-1" d="M464.65,382.13c2.79,7.14,10.23,11.83,18.6,11.83v1.43h-45.35v-1.43c5.81,0,10.23-4.28,10.23-8.98,0-1.02,0-1.84-.47-2.86l-10.23-26.72h-63.49l-10.46,26.93c-.47,1.02-.7,2.04-.7,2.86,0,4.69,4.42,8.77,10,8.77v1.43h-30v-1.43c8.6,0,16.28-4.9,19.07-12.04l42.33-108.52c.46-.82,.46-1.63,.46-2.45s0-1.63-.46-2.45c-1.16-2.86-4.42-5.1-7.91-5.1h-.46v-1.22h23.02l45.81,119.95Zm-27.67-28.15l-30.93-80.78-31.63,80.78h62.56Z"/><path class="cls-1" d="M542.56,263.4c-8.14,0-14.65,5.92-14.65,12.85v104.85c0,7.14,6.51,12.85,14.65,12.85v1.43h-45.35v-1.43c8.14,0,14.65-5.71,14.65-12.85v-104.85c0-6.94-6.51-12.85-14.65-12.85v-1.22h45.35v1.22Z"/><path class="cls-1" d="M670.47,382.94c3.95,6.73,11.63,11.02,20.23,11.02v1.43h-45.35v-1.43c4.88,0,8.37-3.47,8.37-7.34,0-1.02-.23-2.24-.93-3.26l-26.74-47.33c-4.88-8.57-14.88-14.08-25.81-14.08h-13.02v59.16c0,3.47,1.63,6.73,4.19,8.98,2.56,2.45,6.28,3.88,10.46,3.88v1.43h-45.35v-1.43c7.91,0,14.65-5.71,14.65-12.85v-104.85c0-3.47-1.86-6.73-4.42-8.98s-6.28-3.88-10.23-3.88v-1.22h73.72c18.84,0,34.19,13.26,34.19,29.78s-15.35,29.99-34.19,29.99h-11.63c12.56,3.06,23.49,10.61,29.3,21.21l22.56,39.78Zm-54.65-62.42c8.84,0,16.98-3.06,23.02-8.36,5.81-5.1,9.54-12.24,9.54-20.2,0-15.71-14.65-28.56-32.56-28.56h-13.95c-8.14,0-14.65,5.92-14.65,12.85v44.27h28.6Z"/><path class="cls-1" d="M773.95,395.39l-10.23-29.99,1.63-.41c5.81,17.13,23.72,28.97,44.19,28.97h7.91c13.26,0,32.09-6.12,37.44-18.97,.93-2.45,1.4-5.1,1.4-7.55,0-7.14-3.72-14.08-10-18.97-6.51-5.3-14.42-7.75-22.56-10.61-10-3.47-20-7.14-30-11.02-10.23-4.08-19.07-8.16-25.12-16.93-3.26-4.9-5.35-10.4-5.35-15.91,0-15.3,16.28-31.82,48.84-31.82h38.37l10,29.78-1.39,.41c-5.81-17.13-23.95-28.97-44.19-28.97-9.77,0-20.23,2.45-26.98,7.55-7.91,5.92-10.46,11.83-10.46,17.34,0,9.18,7.44,16.73,12.56,19.99,4.42,2.86,9.54,4.9,14.65,6.94,11.86,4.49,24.19,8.36,36.05,12.65,.93,.2,1.63,.61,2.33,.82,16.28,5.92,29.07,17.14,29.07,32.64,0,2.86-.46,5.92-1.63,8.77-4.42,11.02-21.16,25.09-47.21,25.09l-3.72,.2h-45.58Z"/><path class="cls-1" d="M1005.58,291.96l-1.39,.41c-5.81-17.13-23.95-28.76-44.19-28.97h-2.33c-2.09,0-3.95,1.63-3.95,3.47v114.24c0,7.14,6.75,12.85,14.65,12.85v1.43h-45.35v-1.43c8.14,0,14.65-5.71,14.65-12.85v-114.24c0-1.84-1.63-3.47-3.95-3.47h-2.09c-20.46,.2-38.37,11.83-44.19,28.97l-1.4-.41,10-29.78h99.54l10,29.78Z"/><path class="cls-1" d="M1122.79,382.13c2.79,7.14,10.23,11.83,18.6,11.83v1.43h-45.35v-1.43c5.81,0,10.23-4.28,10.23-8.98,0-1.02,0-1.84-.47-2.86l-10.23-26.72h-63.49l-10.46,26.93c-.46,1.02-.7,2.04-.7,2.86,0,4.69,4.42,8.77,10,8.77v1.43h-30v-1.43c8.6,0,16.28-4.9,19.07-12.04l42.33-108.52c.46-.82,.46-1.63,.46-2.45s0-1.63-.46-2.45c-1.16-2.86-4.42-5.1-7.91-5.1h-.46v-1.22h23.02l45.81,119.95Zm-27.67-28.15l-30.93-80.78-31.63,80.78h62.56Z"/><path class="cls-1" d="M1269.3,382.94c3.95,6.73,11.63,11.02,20.23,11.02v1.43h-45.35v-1.43c4.88,0,8.37-3.47,8.37-7.34,0-1.02-.23-2.24-.93-3.26l-26.74-47.33c-4.88-8.57-14.88-14.08-25.81-14.08h-13.02v59.16c0,3.47,1.63,6.73,4.19,8.98,2.56,2.45,6.28,3.88,10.46,3.88v1.43h-45.35v-1.43c7.91,0,14.65-5.71,14.65-12.85v-104.85c0-3.47-1.86-6.73-4.42-8.98-2.56-2.24-6.28-3.88-10.23-3.88v-1.22h73.72c18.84,0,34.19,13.26,34.19,29.78s-15.35,29.99-34.19,29.99h-11.63c12.56,3.06,23.49,10.61,29.3,21.21l22.56,39.78Zm-54.65-62.42c8.84,0,16.98-3.06,23.02-8.36,5.81-5.1,9.54-12.24,9.54-20.2,0-15.71-14.65-28.56-32.56-28.56h-13.95c-8.14,0-14.65,5.92-14.65,12.85v44.27h28.6Z"/><path class="cls-1" d="M1413.72,291.96l-1.39,.41c-5.81-17.13-23.95-28.76-44.19-28.97h-2.33c-2.09,0-3.95,1.63-3.95,3.47v114.24c0,7.14,6.75,12.85,14.65,12.85v1.43h-45.35v-1.43c8.14,0,14.65-5.71,14.65-12.85v-114.24c0-1.84-1.63-3.47-3.95-3.47h-2.09c-20.46,.2-38.37,11.83-44.19,28.97l-1.4-.41,10-29.78h99.54l10,29.78Z"/><path class="cls-1" d="M1450.92,383.35c1.63,1.43,2.33,3.06,2.33,5.1,0,1.84-.7,3.47-2.33,4.9-1.63,1.43-3.49,2.24-5.81,2.24-2.09,0-3.95-.82-5.58-2.24-1.63-1.43-2.56-3.06-2.56-4.9,0-2.04,.93-3.67,2.56-5.1,1.63-1.43,3.49-2.04,5.58-2.04,2.33,0,4.19,.61,5.81,2.04Zm-4.19-12.85h-1.63l-7.21-108.32h16.05l-7.21,108.32Z"/></g></g></svg>