<?xml version="1.0" encoding="UTF-8"?><svg id="_レイヤー_2" xmlns="http://www.w3.org/2000/svg" viewBox="0 0 59 59"><defs><style>.cls-1{fill:#00b4ff;}</style></defs><g id="img"><path class="cls-1" d="M59,29.5l-15.34-5.14-4.68,3.65v-2.04c0-.5-.4-.9-.9-.9s-.9,.4-.9,.9v.62h-.83v-.62c0-.5-.4-.9-.9-.9s-.9,.4-.9,.9v.62h-.82l-1.31-1.31v-.82h.62c.5,0,.9-.4,.9-.9s-.4-.9-.9-.9h-.62v-.83h.62c.5,0,.9-.4,.9-.9s-.4-.9-.9-.9h-2.04l3.65-4.68L29.5,0l-5.14,15.34,3.65,4.68h-2.04c-.5,0-.9,.4-.9,.9s.4,.9,.9,.9h.62v.83h-.62c-.5,0-.9,.4-.9,.9s.4,.9,.9,.9h.62v.82l-1.31,1.31h-.82v-.62c0-.5-.4-.9-.9-.9s-.9,.4-.9,.9v.62h-.83v-.62c0-.5-.4-.9-.9-.9s-.9,.4-.9,.9v2.04l-4.68-3.65L0,29.5l15.34,5.14,4.68-3.65v2.04c0,.5,.4,.9,.9,.9s.9-.4,.9-.9v-.62h.83v.62c0,.5,.4,.9,.9,.9s.9-.4,.9-.9v-.62h.82l1.31,1.31v.82h-.62c-.5,0-.9,.4-.9,.9s.4,.9,.9,.9h.62v.83h-.62c-.5,0-.9,.4-.9,.9s.4,.9,.9,.9h2.04l-3.65,4.68,5.14,15.34,5.14-15.34-3.65-4.68h2.04c.5,0,.9-.4,.9-.9s-.4-.9-.9-.9h-.62v-.83h.62c.5,0,.9-.4,.9-.9s-.4-.9-.9-.9h-.62v-.82l1.31-1.31h.82v.62c0,.5,.4,.9,.9,.9s.9-.4,.9-.9v-.62h.83v.62c0,.5,.4,.9,.9,.9s.9-.4,.9-.9v-2.04l4.68,3.65,15.34-5.14Z"/></g></svg>