<?xml version="1.0" encoding="UTF-8"?><svg id="_レイヤー_2" xmlns="http://www.w3.org/2000/svg" viewBox="0 0 287.71 59.9"><defs><style>.cls-1{fill:#fff;}</style></defs><g id="img"><g><g><polygon class="cls-1" points="110.28 0 110.28 25.47 129.12 25.47 154.59 25.47 129.12 0 110.28 0"/><rect class="cls-1" x="154.59" width="22.84" height="25.47"/></g><g><path class="cls-1" d="M1.86,53.91H0v-1.64c0-.87,.5-1.31,1.5-1.31h.28v.71c-.6,0-.9,.18-.9,.51v.44h.98v1.3Zm2.86,0h-1.86v-1.64c0-.87,.5-1.31,1.5-1.31h.28v.71c-.6,0-.9,.18-.9,.51v.44h.98v1.3Z"/><path class="cls-1" d="M19.63,59.64h-1.79l-6.63-7.12v7.12h-1.44v-8.69h1.79l6.64,7.13v-7.13h1.44v8.69Z"/><path class="cls-1" d="M37.96,50.96l-2.84,8.69h-1.87l-2.17-7.25-2.17,7.25h-1.84l-2.87-8.69h1.6l2.19,7.27,2.17-7.27h1.82l2.18,7.29,2.18-7.29h1.6Z"/><path class="cls-1" d="M53.23,55.29c0,1.42-.58,2.58-1.75,3.46-1.02,.77-2.3,1.15-3.82,1.15s-2.82-.39-3.84-1.16c-1.17-.88-1.75-2.03-1.75-3.44s.59-2.54,1.78-3.43c1.04-.78,2.31-1.18,3.82-1.18s2.78,.39,3.8,1.18c1.18,.9,1.76,2.04,1.76,3.43Zm-1.5,0c0-1.02-.43-1.84-1.3-2.47-.74-.54-1.67-.82-2.77-.82-1.21,0-2.19,.31-2.95,.93-.76,.62-1.14,1.41-1.14,2.36s.37,1.78,1.12,2.38c.74,.6,1.74,.91,2.98,.91s2.22-.3,2.96-.91,1.11-1.4,1.11-2.38Z"/><path class="cls-1" d="M59.69,52.6c0,.87-.5,1.31-1.5,1.31h-.28v-.71c.6,0,.9-.17,.9-.51v-.44h-.98v-1.3h1.86v1.64Zm2.86,0c0,.87-.5,1.31-1.5,1.31h-.28v-.71c.6,0,.9-.17,.9-.51v-.44h-.98v-1.3h1.86v1.64Z"/><path class="cls-1" d="M84.78,55.29c0,1.42-.58,2.58-1.75,3.46-1.02,.77-2.3,1.15-3.82,1.15s-2.82-.39-3.84-1.16c-1.17-.88-1.75-2.03-1.75-3.44s.59-2.54,1.78-3.43c1.04-.78,2.31-1.18,3.82-1.18s2.78,.39,3.8,1.18c1.18,.9,1.76,2.04,1.76,3.43Zm-1.5,0c0-1.02-.43-1.84-1.3-2.47-.74-.54-1.67-.82-2.77-.82-1.21,0-2.19,.31-2.95,.93-.76,.62-1.14,1.41-1.14,2.36s.37,1.78,1.12,2.38c.74,.6,1.74,.91,2.98,.91s2.22-.3,2.96-.91,1.11-1.4,1.11-2.38Z"/><path class="cls-1" d="M97,50.96c.89,0,1.59,.25,2.11,.74,.52,.49,.78,1.15,.78,1.97,0,.86-.27,1.52-.81,1.98s-1.33,.68-2.36,.68h-5.17v3.31h-1.44v-8.69h6.89Zm-.25,4.08c1.11,0,1.67-.45,1.67-1.34,0-.96-.59-1.44-1.76-1.44h-5.1v2.78h5.2Z"/><path class="cls-1" d="M113.52,59.64h-9.1v-8.69h8.76v1.3h-7.32v2.23h5.09v1.3h-5.09v2.57h7.66v1.3Z"/><path class="cls-1" d="M128.42,59.64h-1.68l-2.35-3.31h-4.39v3.31h-1.44v-8.69h6.85c.91,0,1.63,.25,2.15,.74,.52,.49,.78,1.16,.78,2,0,.74-.21,1.33-.64,1.78-.39,.42-.93,.68-1.62,.79l2.33,3.38Zm-3.22-4.61c1.11,0,1.67-.45,1.67-1.34,0-.96-.6-1.44-1.8-1.44h-5.06v2.78h5.2Z"/><path class="cls-1" d="M143.28,59.64h-1.58l-1-1.94h-5.85l-1,1.94h-1.57l4.6-8.69h1.81l4.6,8.69Zm-3.28-3.24l-2.21-4.21-2.24,4.21h4.45Z"/><path class="cls-1" d="M156.32,52.25h-4.15v7.39h-1.44v-7.39h-4.15v-1.3h9.74v1.3Z"/><path class="cls-1" d="M162.34,59.64h-1.44v-8.69h1.44v8.69Z"/><path class="cls-1" d="M178.82,55.29c0,1.42-.58,2.58-1.75,3.46-1.02,.77-2.3,1.15-3.82,1.15s-2.82-.39-3.84-1.16c-1.17-.88-1.75-2.03-1.75-3.44s.59-2.54,1.78-3.43c1.04-.78,2.31-1.18,3.82-1.18s2.78,.39,3.8,1.18c1.18,.9,1.76,2.04,1.76,3.43Zm-1.5,0c0-1.02-.43-1.84-1.3-2.47-.74-.54-1.67-.82-2.77-.82-1.21,0-2.19,.31-2.95,.93-.76,.62-1.14,1.41-1.14,2.36s.37,1.78,1.12,2.38c.74,.6,1.74,.91,2.98,.91s2.22-.3,2.96-.91,1.11-1.4,1.11-2.38Z"/><path class="cls-1" d="M194.02,59.64h-1.79l-6.63-7.12v7.12h-1.44v-8.69h1.79l6.64,7.13v-7.13h1.44v8.69Z"/><path class="cls-1" d="M213.9,53c-1.29-.66-2.6-.98-3.94-.98-.89,0-1.57,.1-2.04,.31-.47,.21-.71,.5-.71,.86s.25,.66,.76,.84c.36,.13,.95,.22,1.76,.26,1.2,.08,1.99,.14,2.38,.19,1.09,.14,1.89,.41,2.41,.8s.78,.95,.78,1.67c0,.92-.41,1.63-1.22,2.14-.82,.5-1.99,.76-3.52,.76-2.22,0-3.94-.49-5.17-1.46l.79-1.04c1.36,.83,2.82,1.25,4.39,1.25,1.02,0,1.8-.14,2.36-.42,.54-.27,.8-.64,.8-1.12,0-.55-.35-.92-1.06-1.1-.37-.1-1.36-.2-2.98-.3-1.43-.1-2.44-.29-3.01-.58-.67-.34-1.01-.9-1.01-1.69s.38-1.46,1.15-1.93c.76-.47,1.84-.71,3.23-.71,1.87,0,3.44,.43,4.7,1.28l-.88,.97Z"/><path class="cls-1" d="M229.98,50.96l-4.75,5.26v3.43h-1.44v-3.43l-4.75-5.26h1.8l3.68,4.06,3.67-4.06h1.8Z"/><path class="cls-1" d="M241.99,53c-1.29-.66-2.6-.98-3.94-.98-.89,0-1.57,.1-2.04,.31-.47,.21-.71,.5-.71,.86s.25,.66,.76,.84c.36,.13,.95,.22,1.76,.26,1.2,.08,1.99,.14,2.38,.19,1.09,.14,1.89,.41,2.41,.8s.78,.95,.78,1.67c0,.92-.41,1.63-1.22,2.14-.82,.5-1.99,.76-3.52,.76-2.22,0-3.94-.49-5.17-1.46l.79-1.04c1.36,.83,2.82,1.25,4.39,1.25,1.02,0,1.8-.14,2.36-.42,.54-.27,.8-.64,.8-1.12,0-.55-.35-.92-1.06-1.1-.37-.1-1.36-.2-2.98-.3-1.43-.1-2.44-.29-3.01-.58-.67-.34-1.01-.9-1.01-1.69s.38-1.46,1.15-1.93c.76-.47,1.84-.71,3.23-.71,1.87,0,3.44,.43,4.7,1.28l-.88,.97Z"/><path class="cls-1" d="M257.05,52.25h-4.15v7.39h-1.44v-7.39h-4.15v-1.3h9.74v1.3Z"/><path class="cls-1" d="M270.72,59.64h-9.1v-8.69h8.76v1.3h-7.32v2.23h5.09v1.3h-5.09v2.57h7.66v1.3Z"/><path class="cls-1" d="M287.71,59.64h-1.44v-7.1h-.04l-4.51,5.66-4.48-5.66h-.04v7.1h-1.44v-8.69h1.8l4.16,5.25,4.18-5.25h1.79v8.69Z"/></g></g></g></svg>