<?xml version="1.0" encoding="UTF-8"?><svg id="_レイヤー_2" xmlns="http://www.w3.org/2000/svg" viewBox="0 0 146.22 146.22"><defs><style>.cls-1{fill:#fff;}.cls-2{fill:none;stroke:#fff;stroke-miterlimit:10;stroke-width:2px;}</style></defs><g id="img"><g><path class="cls-1" d="M93.69,49.24c-1.7-1.41-4.22-1.17-5.63,.54-1.41,1.7-1.17,4.22,.54,5.63,5.63,4.65,8.86,11.5,8.86,18.79,0,13.42-10.92,24.35-24.35,24.35s-24.35-10.92-24.35-24.35c0-7.29,3.23-14.14,8.86-18.79,1.7-1.41,1.95-3.93,.54-5.63-1.41-1.7-3.93-1.95-5.63-.54-7.48,6.17-11.77,15.27-11.77,24.96,0,17.84,14.51,32.35,32.35,32.35s32.35-14.51,32.35-32.35c0-9.69-4.29-18.79-11.77-24.96Z"/><path class="cls-1" d="M73.11,70.14c2.21,0,4-1.79,4-4v-23.59c0-2.21-1.79-4-4-4s-4,1.79-4,4v23.59c0,2.21,1.79,4,4,4Z"/><circle class="cls-2" cx="73.11" cy="73.11" r="72.11"/></g></g></svg>